<svg width="100" height="46" viewBox="0 0 100 46" fill="none" xmlns="http://www.w3.org/2000/svg">
<path fill-rule="evenodd" clip-rule="evenodd" d="M76.7593 40.0837H75.4683V36.1838H76.7593C77.8193 36.1838 78.7971 36.9233 78.7971 38.1281C78.7971 39.3431 77.8193 40.0837 76.7593 40.0837ZM76.8661 34.408H73.5969V41.8698H76.8661C78.9234 41.8698 80.6068 40.1956 80.6068 38.1281C80.6068 36.0811 78.9234 34.408 76.8661 34.408Z" fill="#FAFBFD"/>
<path fill-rule="evenodd" clip-rule="evenodd" d="M85.5374 40.1308C84.4374 40.1308 83.5449 39.2393 83.5449 38.1393C83.5449 37.0382 84.4374 36.1467 85.5374 36.1467C86.6375 36.1467 87.529 37.0382 87.529 38.1393C87.529 39.2393 86.6375 40.1308 85.5374 40.1308ZM85.5374 34.2918C83.4124 34.2918 81.691 36.0142 81.691 38.1393C81.691 40.2633 83.4124 41.9857 85.5374 41.9857C87.6625 41.9857 89.3839 40.2633 89.3839 38.1393C89.3839 36.0142 87.6625 34.2918 85.5374 34.2918Z" fill="#FAFBFD"/>
<path fill-rule="evenodd" clip-rule="evenodd" d="M67.6229 39.4951L68.7301 37.1205L69.8373 39.4951H67.6229ZM64.744 41.8698H66.5157L67.6229 39.4951L68.2802 40.9053H70.4946L70.9445 41.8698H72.7162L68.7301 33.3213L64.744 41.8698Z" fill="#FAFBFD"/>
<path fill-rule="evenodd" clip-rule="evenodd" d="M38.7258 41.8697H39.8269V34.4079H38.7258V41.8697Z" fill="#FAFBFD"/>
<path fill-rule="evenodd" clip-rule="evenodd" d="M43.171 34.408H42.07V41.8698H46.6128V40.8766H43.171V34.408Z" fill="#FAFBFD"/>
<path fill-rule="evenodd" clip-rule="evenodd" d="M50.1348 35.4013H52.6389V41.8699H53.7409V35.4013H55.7818L56.245 34.4081H50.1348V35.4013Z" fill="#FAFBFD"/>
<path fill-rule="evenodd" clip-rule="evenodd" d="M47.8556 41.8697H48.8909V34.4079H47.8556V41.8697Z" fill="#FAFBFD"/>
<path fill-rule="evenodd" clip-rule="evenodd" d="M34.7665 40.8763H32.4114V38.4051H34.6761C35.4701 38.4051 36.0093 38.9453 36.0093 39.7023C36.0093 40.4695 35.5327 40.8763 34.7665 40.8763ZM32.4114 35.4009H34.3372C35.09 35.4009 35.5389 35.6638 35.5389 36.431C35.5389 37.0493 35.1763 37.4109 34.4286 37.4109H32.4114V35.4009ZM35.9456 37.8915C36.4345 37.5423 36.6327 36.9661 36.6327 36.3776C36.6327 35.2581 35.8131 34.4077 34.5128 34.4077H31.3104V41.8695H34.9545C36.3287 41.8695 37.0867 40.9841 37.0867 39.7906C37.0867 38.8098 36.5095 38.1391 35.9456 37.8915Z" fill="#FAFBFD"/>
<path fill-rule="evenodd" clip-rule="evenodd" d="M14.5456 40.6483L11.1284 33.3211L7.14333 41.8695H8.28134L11.1284 35.7635L13.9765 41.8695H15.1146L17.9627 35.7635L20.8098 41.8695H21.9478L17.9627 33.3211L14.5456 40.6483Z" fill="#FAFBFD"/>
<path fill-rule="evenodd" clip-rule="evenodd" d="M26.059 40.9229C24.4115 40.9229 23.4214 39.6103 23.4214 38.1384C23.4214 36.6666 24.4115 35.355 26.059 35.355C27.7064 35.355 28.6965 36.6666 28.6965 38.1384C28.6965 39.6103 27.7064 40.9229 26.059 40.9229ZM26.059 34.292C23.8517 34.292 22.3532 36.0463 22.3532 38.1384C22.3532 40.2306 23.8517 41.9859 26.059 41.9859C28.2662 41.9859 29.7647 40.2306 29.7647 38.1384C29.7647 36.0463 28.2662 34.292 26.059 34.292Z" fill="#FAFBFD"/>
<path fill-rule="evenodd" clip-rule="evenodd" d="M61.1744 34.408C61.1744 34.408 59.793 37.3711 59.2784 38.4732C58.7649 37.3711 57.3834 34.408 57.3834 34.408L56.245 34.4081C56.245 34.4081 58.1157 38.4208 58.7289 39.7304V41.8698H59.8299V39.7304C60.4421 38.4208 62.3134 34.408 62.3134 34.408H61.1744Z" fill="#FAFBFD"/>
<path fill-rule="evenodd" clip-rule="evenodd" d="M91.2593 35.6067H91.5459C91.7287 35.6067 91.8448 35.4752 91.8448 35.3294C91.8448 35.1815 91.7308 35.0592 91.5675 35.0592H91.2419V36.3749H91.0519V34.8867H91.5623C91.8397 34.8867 92.0276 35.0829 92.0276 35.3273C92.0276 35.5502 91.8427 35.7464 91.6044 35.7464L92.1498 36.3749H91.9013L91.2593 35.6067Z" fill="#FAFBFD"/>
<path fill-rule="evenodd" clip-rule="evenodd" d="M91.601 34.5209C90.9888 34.5209 90.4907 35.0191 90.4907 35.6302C90.4907 36.2423 90.9888 36.7405 91.601 36.7405C92.2131 36.7405 92.7102 36.2423 92.7102 35.6302C92.7102 35.0191 92.2131 34.5209 91.601 34.5209ZM91.601 36.8863C90.9087 36.8863 90.3448 36.3225 90.3448 35.6302C90.3448 34.9379 90.9087 34.3751 91.601 34.3751C92.2932 34.3751 92.8571 34.9379 92.8571 35.6302C92.8571 36.3225 92.2932 36.8863 91.601 36.8863Z" fill="#FAFBFD"/>
<path d="M91.6684 3.30176C91.011 3.30176 90.4797 3.8339 90.4797 4.49047C90.4797 5.14704 91.0118 5.67834 91.6684 5.67834C92.3249 5.67834 92.8571 5.1462 92.8571 4.49047C92.8571 3.83475 92.3249 3.30176 91.6684 3.30176ZM91.6684 5.44211C91.143 5.44211 90.7176 5.01589 90.7176 4.49047C90.7176 3.96505 91.143 3.53967 91.6684 3.53967C92.1938 3.53967 92.6183 3.96589 92.6183 4.49047C92.6183 5.01505 92.193 5.44211 91.6684 5.44211Z" fill="#FAFBFD"/>
<path d="M92.1829 4.19287C92.1829 3.91965 92.0206 3.7986 91.697 3.7986H91.1724V5.1815H91.3809V4.5821H91.6196L91.9836 5.1815H92.2157L91.8256 4.57286C92.0282 4.54764 92.1837 4.44003 92.1837 4.19287H92.1829ZM91.3809 4.40472V3.97682H91.665C91.8088 3.97682 91.9635 4.00876 91.9635 4.18026C91.9635 4.39211 91.8046 4.40472 91.628 4.40472H91.38H91.3809Z" fill="#FAFBFD"/>
<path d="M25.9403 3.30176L7.14282 27.0718H22.1144L25.9428 3.30176H25.9403Z" fill="#FAFBFD"/>
<path d="M37.8241 3.30176H27.926L24.0984 27.0718H33.8847L37.8241 3.30176Z" fill="#FAFBFD"/>
<path d="M52.6872 3.30176L48.8596 27.0693C55.3798 27.0054 61.5134 21.71 62.5962 15.1864C63.6832 8.6249 59.2469 3.30596 52.6872 3.30176Z" fill="#FAFBFD"/>
<path d="M40.795 3.30176L36.8564 27.0718H46.7587L46.7596 27.0701H46.8764L50.704 3.30176H40.795Z" fill="#FAFBFD"/>
<path d="M78.432 3.30176C71.8688 3.30176 65.6646 8.62322 64.5751 15.1864C63.4915 21.7318 67.9017 27.039 74.4346 27.0701V27.0777H74.6145L78.4454 3.30176H78.432Z" fill="#FAFBFD"/>
<path d="M80.4302 3.30176L76.601 27.0676C83.1187 27.0004 89.2447 21.7075 90.3258 15.1855C91.4137 8.62743 86.9833 3.31101 80.4302 3.30176Z" fill="#FAFBFD"/>
</svg>
