<svg xmlns="http://www.w3.org/2000/svg" width="90" height="40" fill="none"><path fill="#E11F2A" d="M82.502 8.816c-.592 0-1.07.49-1.07 1.095 0 .604.479 1.094 1.07 1.094.59 0 1.07-.49 1.07-1.094s-.48-1.095-1.07-1.095m0 1.971a.866.866 0 0 1-.856-.876c0-.484.383-.876.856-.876s.855.392.855.876a.867.867 0 0 1-.855.876"/><path fill="#E11F2A" d="M82.965 9.637c0-.252-.146-.364-.438-.364h-.472v1.274h.188v-.552h.215l.327.552h.21l-.352-.56c.182-.024.322-.123.322-.35m-.722.195v-.394h.256c.129 0 .268.029.268.187 0 .195-.143.207-.302.207zM23.346 8.816 6.43 30.709h13.474l3.446-21.893zM34.042 8.816h-8.909L21.69 30.709h8.807zM47.419 8.816l-3.445 21.89c5.868-.058 11.388-4.935 12.363-10.944.978-6.043-3.015-10.942-8.919-10.946M36.716 8.816 33.17 30.709h8.912v-.001h.106l3.445-21.892zM70.589 8.816c-5.907 0-11.49 4.901-12.471 10.946-.976 6.029 2.994 10.917 8.873 10.946v.007h.162l3.448-21.9zM72.387 8.816l-3.446 21.89c5.866-.063 11.38-4.938 12.352-10.945.98-6.04-3.008-10.937-8.906-10.945"/></svg>