<svg width="896" height="282" viewBox="0 0 896 282" fill="none" xmlns="http://www.w3.org/2000/svg">
<rect width="896" height="281.684" rx="24" fill="#E3E7F2"/>
<path d="M24 40C24 31.1634 31.1634 24 40 24H72V257.684H40C31.1634 257.684 24 250.521 24 241.684V40Z" fill="black" fill-opacity="0.1"/>
<path fill-rule="evenodd" clip-rule="evenodd" d="M62.6987 221.684C62.6987 213.566 56.1179 206.985 48.0001 206.985C39.8823 206.985 33.3015 213.566 33.3015 221.684C33.3015 229.802 39.8823 236.383 48.0001 236.383C56.1179 236.383 62.6987 229.802 62.6987 221.684ZM59.7583 221.684C59.7583 215.19 54.4937 209.925 47.9994 209.925C41.5052 209.925 36.2405 215.19 36.2405 221.684C36.2405 228.178 41.5052 233.443 47.9994 233.443C54.4937 233.443 59.7583 228.178 59.7583 221.684Z" fill="#474A56"/>
<path fill-rule="evenodd" clip-rule="evenodd" d="M61.4738 221.684C61.4738 214.243 55.4414 208.21 48.0001 208.21C40.5588 208.21 34.5264 214.243 34.5264 221.684C34.5264 229.125 40.5588 235.158 48.0001 235.158C55.4414 235.158 61.4738 229.125 61.4738 221.684ZM47.9994 208.7C55.1701 208.7 60.9832 214.513 60.9832 221.684C60.9832 228.855 55.1701 234.668 47.9994 234.668C40.8287 234.668 35.0157 228.855 35.0157 221.684C35.0157 214.513 40.8287 208.7 47.9994 208.7ZM48.0001 206.985C56.1179 206.985 62.6987 213.566 62.6987 221.684C62.6987 229.802 56.1179 236.383 48.0001 236.383C39.8823 236.383 33.3015 229.802 33.3015 221.684C33.3015 213.566 39.8823 206.985 48.0001 206.985ZM47.9994 209.925C54.4937 209.925 59.7583 215.19 59.7583 221.684C59.7583 228.178 54.4937 233.443 47.9994 233.443C41.5052 233.443 36.2405 228.178 36.2405 221.684C36.2405 215.19 41.5052 209.925 47.9994 209.925Z" fill="#474A56"/>
<path fill-rule="evenodd" clip-rule="evenodd" d="M46.7245 209.085C40.162 220.028 43.9901 230.443 46.7245 234.283C46.7245 224.493 54.4732 222.065 59.8201 222.027C60.1196 222.038 60.4259 222.044 60.7393 222.044C60.4426 222.03 60.1355 222.024 59.8201 222.027C48.5664 221.599 47.0049 213.293 46.7245 209.085ZM49.9591 221.683C49.9591 220.059 48.643 218.743 47.0194 218.743C45.3958 218.743 44.0797 220.059 44.0797 221.683C44.0797 223.307 45.3958 224.623 47.0194 224.623C48.643 224.623 49.9591 223.307 49.9591 221.683Z" fill="#474A56"/>
<path fill-rule="evenodd" clip-rule="evenodd" d="M45.9678 230.279C46.4323 228.441 47.22 226.917 48.2299 225.669C47.8468 225.785 47.4404 225.848 47.0194 225.848C46.0994 225.848 45.249 225.549 44.5598 225.044C44.8457 227.028 45.3671 228.801 45.9678 230.279ZM44.603 218.291C45.2844 217.804 46.1185 217.518 47.0194 217.518C47.4124 217.518 47.7926 217.573 48.153 217.675C48.1517 217.673 48.1504 217.671 48.149 217.669C47.1156 216.171 46.485 214.55 46.096 213.034C45.349 214.833 44.8713 216.595 44.603 218.291ZM51.0452 220.613C51.1358 220.954 51.184 221.313 51.184 221.683C51.184 222.253 51.0694 222.797 50.862 223.292C51.6905 222.744 52.5689 222.304 53.4654 221.957C52.5654 221.576 51.7618 221.123 51.0452 220.613ZM59.8399 220.802C54.5762 220.595 51.7539 218.58 50.1656 216.278C48.5233 213.897 48.0823 211.038 47.9467 209.004C47.9111 208.469 47.5325 208.02 47.0119 207.894C46.4913 207.769 45.9495 207.996 45.674 208.455C38.7966 219.923 42.7906 230.87 45.7268 234.993C46.0358 235.427 46.59 235.612 47.0975 235.449C47.605 235.287 47.9494 234.815 47.9494 234.283C47.9494 229.766 49.7094 227.094 51.9726 225.499C54.2957 223.863 57.2813 223.274 59.802 223.252C60.1083 223.263 60.4207 223.269 60.7393 223.269C61.405 223.269 61.9489 222.737 61.9639 222.071C61.9788 221.406 61.4595 220.85 60.7944 220.82C60.4855 220.806 60.1667 220.8 59.8399 220.802ZM45.3046 221.683C45.3046 222.63 46.0723 223.398 47.0194 223.398C47.9665 223.398 48.7342 222.63 48.7342 221.683C48.7342 220.736 47.9665 219.968 47.0194 219.968C46.0723 219.968 45.3046 220.736 45.3046 221.683Z" fill="#474A56"/>
<path d="M118.7 61.1517C116.169 61.3071 114.031 59.2962 114.031 56.7605L114.031 31.6578C114.031 29.122 116.169 27.1112 118.7 27.2665L141.973 28.6949C144.294 28.8374 146.103 30.7611 146.103 33.0862L146.103 55.3321C146.103 57.6572 144.294 59.5809 141.973 59.7233L118.7 61.1517Z" fill="#F1F3F9" stroke="#B5BAC7"/>
<path d="M121.648 63.86C120.021 63.8886 118.686 62.5771 118.686 60.9492C118.686 59.3214 120.021 58.0099 121.648 58.0385L137.641 58.3201C139.075 58.3453 140.224 59.515 140.224 60.9492C140.224 62.3835 139.075 63.5532 137.641 63.5784L121.648 63.86Z" fill="#F1F3F9" stroke="#B5BAC7"/>
<path d="M121.648 30.3825C120.021 30.4111 118.686 29.0996 118.686 27.4717C118.686 25.8439 120.021 24.5324 121.648 24.561L137.64 24.8426C139.074 24.8678 140.224 26.0375 140.224 27.4717C140.224 28.906 139.074 30.0757 137.64 30.1009L121.648 30.3825Z" fill="#F1F3F9" stroke="#B5BAC7"/>
<rect x="144.653" y="51.6714" width="14.9235" height="3.89953" rx="1.94977" transform="rotate(-90 144.653 51.6714)" fill="#F1F3F9" stroke="#B5BAC7"/>
<path d="M125.889 48.3561C123.635 48.3561 122.165 46.3963 122.165 43.922C122.165 41.4722 123.659 39.4879 125.913 39.4879C128.155 39.4879 129.637 41.4477 129.637 43.922C129.637 46.3718 128.143 48.3561 125.889 48.3561ZM125.913 46.9964C127.248 46.9964 128.081 45.6368 128.081 43.922C128.081 42.2317 127.212 40.8475 125.889 40.8475C124.566 40.8475 123.721 42.1949 123.721 43.922C123.721 45.6123 124.578 46.9964 125.913 46.9964ZM135.377 48.2091V46.286H131.053L130.771 45.2081L135.536 39.5737H136.822V45.0489H138.047V46.286H136.822V48.2091H135.377ZM132.56 45.0489H135.377V41.656L132.56 45.0489Z" fill="#5F2167"/>
<path d="M118.7 117.573C116.169 117.728 114.031 115.717 114.031 113.181L114.031 88.0788C114.031 85.543 116.169 83.5322 118.7 83.6875L141.973 85.1159C144.294 85.2584 146.103 87.182 146.103 89.5072L146.103 111.753C146.103 114.078 144.294 116.002 141.973 116.144L118.7 117.573Z" fill="#F1F3F9" stroke="#B5BAC7"/>
<path d="M121.648 120.281C120.021 120.31 118.686 118.998 118.686 117.37C118.686 115.742 120.021 114.431 121.648 114.46L137.641 114.741C139.075 114.766 140.224 115.936 140.224 117.37C140.224 118.804 139.075 119.974 137.641 119.999L121.648 120.281Z" fill="#F1F3F9" stroke="#B5BAC7"/>
<path d="M121.648 86.8034C120.021 86.8321 118.686 85.5206 118.686 83.8927C118.686 82.2649 120.021 80.9534 121.648 80.982L137.64 81.2635C139.074 81.2888 140.224 82.4585 140.224 83.8927C140.224 85.327 139.074 86.4967 137.64 86.5219L121.648 86.8034Z" fill="#F1F3F9" stroke="#B5BAC7"/>
<rect x="144.653" y="108.092" width="14.9235" height="3.89953" rx="1.94977" transform="rotate(-90 144.653 108.092)" fill="#F1F3F9" stroke="#B5BAC7"/>
<path d="M126.831 104.777C124.578 104.777 123.108 102.817 123.108 100.343C123.108 97.8932 124.602 95.9089 126.856 95.9089C129.097 95.9089 130.579 97.8687 130.579 100.343C130.579 102.793 129.085 104.777 126.831 104.777ZM126.856 103.417C128.191 103.417 129.024 102.058 129.024 100.343C129.024 98.6526 128.154 97.2685 126.831 97.2685C125.508 97.2685 124.663 98.6159 124.663 100.343C124.663 102.033 125.521 103.417 126.856 103.417ZM134.963 104.777C133.469 104.777 132.403 104.152 131.68 103.27L132.734 102.291C133.346 103.013 134.032 103.417 134.987 103.417C135.833 103.417 136.469 102.903 136.469 102.095C136.469 101.249 135.698 100.772 134.497 100.772H133.799L133.554 99.8285L135.869 97.3665H132.158V96.0559H137.829V97.1828L135.441 99.6325C136.8 99.8285 137.964 100.527 137.964 102.07C137.964 103.65 136.739 104.777 134.963 104.777Z" fill="#5F2167"/>
<path d="M118.7 197.994C116.169 198.149 114.031 196.138 114.031 193.602L114.031 168.5C114.031 165.964 116.169 163.953 118.7 164.109L141.973 165.537C144.294 165.679 146.103 167.603 146.103 169.928L146.103 192.174C146.103 194.499 144.294 196.423 141.973 196.565L118.7 197.994Z" fill="#F1F3F9" stroke="#B5BAC7"/>
<path d="M121.648 200.702C120.021 200.731 118.686 199.419 118.686 197.791C118.686 196.163 120.021 194.852 121.648 194.881L137.641 195.162C139.075 195.187 140.224 196.357 140.224 197.791C140.224 199.225 139.075 200.395 137.641 200.42L121.648 200.702Z" fill="#F1F3F9" stroke="#B5BAC7"/>
<path d="M121.648 167.224C120.021 167.253 118.686 165.942 118.686 164.314C118.686 162.686 120.021 161.374 121.648 161.403L137.64 161.685C139.074 161.71 140.224 162.879 140.224 164.314C140.224 165.748 139.074 166.918 137.64 166.943L121.648 167.224Z" fill="#F1F3F9" stroke="#B5BAC7"/>
<rect x="144.653" y="188.513" width="14.9235" height="3.89953" rx="1.94977" transform="rotate(-90 144.653 188.513)" fill="#F1F3F9" stroke="#B5BAC7"/>
<path d="M126.861 185.198C124.607 185.198 123.138 183.238 123.138 180.764C123.138 178.314 124.632 176.33 126.886 176.33C129.127 176.33 130.609 178.29 130.609 180.764C130.609 183.214 129.115 185.198 126.861 185.198ZM126.886 183.838C128.221 183.838 129.054 182.479 129.054 180.764C129.054 179.074 128.184 177.69 126.861 177.69C125.538 177.69 124.693 179.037 124.693 180.764C124.693 182.454 125.551 183.838 126.886 183.838ZM131.784 185.051V183.863L134.736 181.352C135.911 180.36 136.34 179.809 136.34 179.037C136.34 178.192 135.74 177.702 134.956 177.702C134.172 177.702 133.633 178.13 132.972 178.988L131.906 178.155C132.727 177.004 133.535 176.354 135.066 176.354C136.744 176.354 137.896 177.383 137.896 178.939C137.896 180.286 137.173 181.009 135.666 182.258L133.903 183.728H137.982V185.051H131.784Z" fill="#5F2167"/>
<path d="M118.7 254.415C116.169 254.57 114.031 252.559 114.031 250.023L114.031 224.921C114.031 222.385 116.169 220.374 118.7 220.53L141.973 221.958C144.294 222.1 146.103 224.024 146.103 226.349L146.103 248.595C146.103 250.92 144.294 252.844 141.973 252.986L118.7 254.415Z" fill="#F1F3F9" stroke="#B5BAC7"/>
<path d="M121.648 257.123C120.021 257.152 118.686 255.84 118.686 254.212C118.686 252.584 120.021 251.273 121.648 251.301L137.641 251.583C139.075 251.608 140.224 252.778 140.224 254.212C140.224 255.646 139.075 256.816 137.641 256.841L121.648 257.123Z" fill="#F1F3F9" stroke="#B5BAC7"/>
<path d="M121.648 223.645C120.021 223.674 118.686 222.363 118.686 220.735C118.686 219.107 120.021 217.795 121.648 217.824L137.64 218.106C139.074 218.131 140.224 219.3 140.224 220.735C140.224 222.169 139.074 223.339 137.64 223.364L121.648 223.645Z" fill="#F1F3F9" stroke="#B5BAC7"/>
<rect x="144.653" y="244.934" width="14.9235" height="3.89953" rx="1.94977" transform="rotate(-90 144.653 244.934)" fill="#F1F3F9" stroke="#B5BAC7"/>
<path d="M127.629 241.619C125.375 241.619 123.906 239.659 123.906 237.185C123.906 234.735 125.4 232.751 127.654 232.751C129.895 232.751 131.377 234.711 131.377 237.185C131.377 239.635 129.883 241.619 127.629 241.619ZM127.654 240.259C128.989 240.259 129.822 238.9 129.822 237.185C129.822 235.495 128.952 234.111 127.629 234.111C126.306 234.111 125.461 235.458 125.461 237.185C125.461 238.875 126.319 240.259 127.654 240.259ZM134.251 241.472V234.368L132.708 234.796L132.389 233.572L134.692 232.837H135.746V241.472H134.251Z" fill="#5F2167"/>
<path d="M195.753 61.1527C193.222 61.3081 191.084 59.2973 191.084 56.7615L191.084 31.6588C191.084 29.123 193.222 27.1122 195.753 27.2676L219.026 28.6959C221.346 28.8384 223.156 30.7621 223.156 33.0872L223.156 55.3331C223.156 57.6582 221.346 59.5819 219.026 59.7244L195.753 61.1527Z" fill="#848CA2" stroke="#B5BAC7"/>
<path d="M198.701 63.86C197.073 63.8886 195.739 62.5771 195.739 60.9492C195.739 59.3214 197.073 58.0099 198.701 58.0385L214.693 58.3201C216.127 58.3453 217.276 59.515 217.276 60.9492C217.276 62.3835 216.127 63.5532 214.693 63.5784L198.701 63.86Z" fill="#848CA2" stroke="#B5BAC7"/>
<path d="M198.701 30.3824C197.073 30.411 195.739 29.0995 195.739 27.4716C195.739 25.8438 197.073 24.5323 198.701 24.5609L214.693 24.8425C216.127 24.8677 217.276 26.0374 217.276 27.4716C217.276 28.9059 216.127 30.0756 214.693 30.1008L198.701 30.3824Z" fill="#848CA2" stroke="#B5BAC7"/>
<rect x="221.706" y="51.6732" width="14.9235" height="3.89953" rx="1.94977" transform="rotate(-90 221.706 51.6732)" fill="#848CA2" stroke="#B5BAC7"/>
<line opacity="0.35" x1="0.918661" y1="-0.918661" x2="47.5842" y2="-0.918661" transform="matrix(-0.707107 0.707107 -0.707107 -0.707106 224.88 27.6751)" stroke="#E11F2A" stroke-width="1.83732" stroke-linecap="round"/>
<line opacity="0.35" x1="0.918661" y1="-0.918661" x2="47.5842" y2="-0.918661" transform="matrix(0.707107 0.707106 0.707107 -0.707107 190.584 27.6751)" stroke="#E11F2A" stroke-width="1.83732" stroke-linecap="round"/>
<path d="M203.751 48.3573C201.497 48.3573 200.028 46.3975 200.028 43.9232C200.028 41.4734 201.522 39.4891 203.776 39.4891C206.017 39.4891 207.499 41.4489 207.499 43.9232C207.499 46.373 206.005 48.3573 203.751 48.3573ZM203.776 46.9977C205.111 46.9977 205.944 45.638 205.944 43.9232C205.944 42.2329 205.074 40.8488 203.751 40.8488C202.428 40.8488 201.583 42.1961 201.583 43.9232C201.583 45.6135 202.441 46.9977 203.776 46.9977ZM212.051 48.3328C210.177 48.3328 208.781 47.3529 208.781 45.8585C208.781 44.8174 209.357 44.1682 210.324 43.764C209.602 43.3843 209.075 42.8086 209.075 41.8287C209.075 40.518 210.337 39.5136 212.051 39.5136C213.766 39.5136 215.028 40.5058 215.028 41.8532C215.028 42.8086 214.501 43.3843 213.779 43.764C214.709 44.1927 215.322 44.8051 215.322 45.8463C215.322 47.3774 213.926 48.3328 212.051 48.3328ZM212.051 43.2618C212.933 43.2618 213.583 42.7351 213.583 41.9756C213.583 41.3142 212.97 40.7753 212.051 40.7753C211.133 40.7753 210.52 41.3142 210.52 41.9879C210.52 42.7351 211.17 43.2618 212.051 43.2618ZM212.051 47.0712C213.178 47.0712 213.852 46.4955 213.852 45.7605C213.852 44.9766 213.068 44.4622 212.051 44.4622C211.035 44.4622 210.251 44.9766 210.251 45.785C210.251 46.4832 210.925 47.0712 212.051 47.0712Z" fill="white"/>
<path d="M195.753 117.573C193.222 117.728 191.084 115.717 191.084 113.181L191.084 88.0788C191.084 85.543 193.222 83.5322 195.753 83.6875L219.026 85.1159C221.346 85.2584 223.156 87.182 223.156 89.5072L223.156 111.753C223.156 114.078 221.346 116.002 219.026 116.144L195.753 117.573Z" fill="#F1F3F9" stroke="#B5BAC7"/>
<path d="M198.701 120.281C197.073 120.31 195.739 118.998 195.739 117.37C195.739 115.742 197.073 114.431 198.701 114.46L214.693 114.741C216.127 114.766 217.276 115.936 217.276 117.37C217.276 118.804 216.127 119.974 214.693 119.999L198.701 120.281Z" fill="#F1F3F9" stroke="#B5BAC7"/>
<path d="M198.701 86.8034C197.073 86.8321 195.738 85.5206 195.738 83.8927C195.738 82.2649 197.073 80.9534 198.701 80.982L214.693 81.2635C216.127 81.2888 217.276 82.4585 217.276 83.8927C217.276 85.327 216.127 86.4967 214.693 86.5219L198.701 86.8034Z" fill="#F1F3F9" stroke="#B5BAC7"/>
<rect x="221.706" y="108.092" width="14.9235" height="3.89953" rx="1.94977" transform="rotate(-90 221.706 108.092)" fill="#F1F3F9" stroke="#B5BAC7"/>
<path d="M203.545 104.777C201.291 104.777 199.822 102.817 199.822 100.343C199.822 97.8932 201.316 95.9089 203.57 95.9089C205.811 95.9089 207.293 97.8687 207.293 100.343C207.293 102.793 205.799 104.777 203.545 104.777ZM203.57 103.417C204.905 103.417 205.738 102.058 205.738 100.343C205.738 98.6526 204.868 97.2685 203.545 97.2685C202.222 97.2685 201.377 98.6159 201.377 100.343C201.377 102.033 202.235 103.417 203.57 103.417ZM208.951 104.63L212.797 97.3788H208.485V96.0559H214.512V97.195L210.641 104.63H208.951Z" fill="#5F2167"/>
<path d="M195.753 197.995C193.222 198.15 191.084 196.139 191.084 193.603L191.084 168.501C191.084 165.965 193.222 163.954 195.753 164.11L219.026 165.538C221.346 165.68 223.156 167.604 223.156 169.929L223.156 192.175C223.156 194.5 221.346 196.424 219.026 196.566L195.753 197.995Z" fill="#848CA2" stroke="#B5BAC7"/>
<path d="M198.701 200.702C197.073 200.731 195.739 199.419 195.739 197.791C195.739 196.163 197.073 194.852 198.701 194.881L214.693 195.162C216.127 195.187 217.276 196.357 217.276 197.791C217.276 199.225 216.127 200.395 214.693 200.42L198.701 200.702Z" fill="#848CA2" stroke="#B5BAC7"/>
<path d="M198.701 167.224C197.073 167.253 195.739 165.941 195.739 164.314C195.739 162.686 197.073 161.374 198.701 161.403L214.693 161.684C216.127 161.71 217.276 162.879 217.276 164.314C217.276 165.748 216.127 166.918 214.693 166.943L198.701 167.224Z" fill="#848CA2" stroke="#B5BAC7"/>
<rect x="221.706" y="188.515" width="14.9235" height="3.89953" rx="1.94977" transform="rotate(-90 221.706 188.515)" fill="#848CA2" stroke="#B5BAC7"/>
<line opacity="0.35" x1="0.918661" y1="-0.918661" x2="47.5842" y2="-0.918661" transform="matrix(-0.707107 0.707107 -0.707107 -0.707106 224.88 164.517)" stroke="#E11F2A" stroke-width="1.83732" stroke-linecap="round"/>
<line opacity="0.35" x1="0.918661" y1="-0.918661" x2="47.5842" y2="-0.918661" transform="matrix(0.707107 0.707106 0.707107 -0.707107 190.584 164.517)" stroke="#E11F2A" stroke-width="1.83732" stroke-linecap="round"/>
<path d="M203.59 185.199C201.336 185.199 199.866 183.239 199.866 180.765C199.866 178.315 201.36 176.331 203.614 176.331C205.856 176.331 207.338 178.291 207.338 180.765C207.338 183.215 205.844 185.199 203.59 185.199ZM203.614 183.84C204.949 183.84 205.782 182.48 205.782 180.765C205.782 179.075 204.913 177.691 203.59 177.691C202.267 177.691 201.422 179.038 201.422 180.765C201.422 182.456 202.279 183.84 203.614 183.84ZM212.159 185.199C211.106 185.199 210.347 184.869 209.783 184.305C209.122 183.644 208.73 182.749 208.73 180.998C208.73 178.377 209.979 176.331 212.404 176.331C213.519 176.331 214.278 176.686 215.026 177.287L214.217 178.45C213.617 177.985 213.103 177.703 212.355 177.703C211.082 177.703 210.371 178.854 210.298 180.422C210.751 179.981 211.339 179.565 212.343 179.565C214.009 179.565 215.344 180.545 215.344 182.284C215.344 183.987 213.96 185.199 212.159 185.199ZM212.123 183.901C213.188 183.901 213.838 183.227 213.838 182.321C213.838 181.463 213.152 180.826 212.086 180.826C211.02 180.826 210.347 181.512 210.347 182.358C210.347 183.227 211.045 183.901 212.123 183.901Z" fill="white"/>
<path d="M195.753 254.416C193.222 254.571 191.084 252.56 191.084 250.024L191.084 224.922C191.084 222.386 193.222 220.375 195.753 220.531L219.026 221.959C221.346 222.101 223.156 224.025 223.156 226.35L223.156 248.596C223.156 250.921 221.346 252.845 219.026 252.987L195.753 254.416Z" fill="#848CA2" stroke="#B5BAC7"/>
<path d="M198.701 257.123C197.073 257.152 195.739 255.84 195.739 254.212C195.739 252.584 197.073 251.273 198.701 251.301L214.693 251.583C216.127 251.608 217.276 252.778 217.276 254.212C217.276 255.646 216.127 256.816 214.693 256.841L198.701 257.123Z" fill="#848CA2" stroke="#B5BAC7"/>
<path d="M198.701 223.645C197.073 223.674 195.739 222.362 195.739 220.735C195.739 219.107 197.073 217.795 198.701 217.824L214.693 218.105C216.127 218.131 217.276 219.3 217.276 220.735C217.276 222.169 216.127 223.339 214.693 223.364L198.701 223.645Z" fill="#848CA2" stroke="#B5BAC7"/>
<rect x="221.706" y="244.936" width="14.9235" height="3.89953" rx="1.94977" transform="rotate(-90 221.706 244.936)" fill="#848CA2" stroke="#B5BAC7"/>
<line opacity="0.35" x1="0.918661" y1="-0.918661" x2="47.5842" y2="-0.918661" transform="matrix(-0.707107 0.707107 -0.707107 -0.707106 224.88 220.938)" stroke="#E11F2A" stroke-width="1.83732" stroke-linecap="round"/>
<line opacity="0.35" x1="0.918661" y1="-0.918661" x2="47.5842" y2="-0.918661" transform="matrix(0.707107 0.707106 0.707107 -0.707107 190.584 220.938)" stroke="#E11F2A" stroke-width="1.83732" stroke-linecap="round"/>
<path d="M203.799 241.62C201.545 241.62 200.075 239.66 200.075 237.186C200.075 234.736 201.57 232.752 203.824 232.752C206.065 232.752 207.547 234.712 207.547 237.186C207.547 239.636 206.053 241.62 203.799 241.62ZM203.824 240.261C205.159 240.261 205.992 238.901 205.992 237.186C205.992 235.496 205.122 234.112 203.799 234.112C202.476 234.112 201.631 235.459 201.631 237.186C201.631 238.877 202.488 240.261 203.824 240.261ZM211.965 241.62C210.654 241.62 209.625 241.094 208.817 240.31L209.748 239.219C210.433 239.856 211.156 240.248 211.952 240.248C212.981 240.248 213.655 239.66 213.655 238.742C213.655 237.872 212.92 237.321 211.879 237.321C211.266 237.321 210.74 237.492 210.299 237.701L209.392 237.1L209.637 232.899H214.757V234.234H210.936L210.801 236.243C211.205 236.096 211.585 235.998 212.161 235.998C213.826 235.998 215.137 236.88 215.137 238.717C215.137 240.469 213.863 241.62 211.965 241.62Z" fill="white"/>
<path d="M272.806 61.1517C270.274 61.3071 268.136 59.2962 268.136 56.7605L268.136 31.6578C268.136 29.122 270.274 27.1112 272.806 27.2665L296.078 28.6949C298.399 28.8374 300.208 30.7611 300.208 33.0862L300.208 55.3321C300.208 57.6572 298.399 59.5809 296.078 59.7233L272.806 61.1517Z" fill="#F1F3F9" stroke="#B5BAC7"/>
<path d="M275.754 63.86C274.126 63.8886 272.791 62.5771 272.791 60.9492C272.791 59.3214 274.126 58.0099 275.754 58.0385L291.746 58.3201C293.18 58.3453 294.329 59.515 294.329 60.9492C294.329 62.3835 293.18 63.5532 291.746 63.5784L275.754 63.86Z" fill="#F1F3F9" stroke="#B5BAC7"/>
<path d="M275.753 30.3825C274.126 30.4111 272.791 29.0996 272.791 27.4717C272.791 25.8439 274.126 24.5324 275.753 24.561L291.746 24.8426C293.18 24.8678 294.329 26.0375 294.329 27.4717C294.329 28.906 293.18 30.0757 291.746 30.1009L275.753 30.3825Z" fill="#F1F3F9" stroke="#B5BAC7"/>
<rect x="298.758" y="51.6714" width="14.9235" height="3.89953" rx="1.94977" transform="rotate(-90 298.758 51.6714)" fill="#F1F3F9" stroke="#B5BAC7"/>
<path d="M280.669 48.2091V41.1048L279.125 41.5335L278.807 40.3086L281.11 39.5737H282.163V48.2091H280.669ZM283.945 48.2091V47.0209L286.897 44.5099C288.073 43.5178 288.502 42.9666 288.502 42.1949C288.502 41.3497 287.901 40.8598 287.117 40.8598C286.334 40.8598 285.795 41.2885 285.133 42.1459L284.068 41.313C284.888 40.1616 285.697 39.5124 287.228 39.5124C288.906 39.5124 290.057 40.5413 290.057 42.0969C290.057 43.4443 289.335 44.167 287.828 45.4163L286.064 46.8862H290.143V48.2091H283.945Z" fill="#5F2167"/>
<path d="M272.806 117.573C270.274 117.728 268.136 115.717 268.136 113.181L268.136 88.0788C268.136 85.543 270.274 83.5322 272.806 83.6875L296.078 85.1159C298.399 85.2584 300.208 87.182 300.208 89.5072L300.208 111.753C300.208 114.078 298.399 116.002 296.078 116.144L272.806 117.573Z" fill="#F1F3F9" stroke="#B5BAC7"/>
<path d="M275.754 120.281C274.126 120.31 272.791 118.998 272.791 117.37C272.791 115.742 274.126 114.431 275.754 114.46L291.746 114.741C293.18 114.766 294.329 115.936 294.329 117.37C294.329 118.804 293.18 119.974 291.746 119.999L275.754 120.281Z" fill="#F1F3F9" stroke="#B5BAC7"/>
<path d="M275.753 86.8034C274.126 86.8321 272.791 85.5206 272.791 83.8927C272.791 82.2649 274.126 80.9534 275.753 80.982L291.746 81.2635C293.18 81.2888 294.329 82.4585 294.329 83.8927C294.329 85.327 293.18 86.4967 291.746 86.5219L275.753 86.8034Z" fill="#F1F3F9" stroke="#B5BAC7"/>
<rect x="298.758" y="108.092" width="14.9235" height="3.89953" rx="1.94977" transform="rotate(-90 298.758 108.092)" fill="#F1F3F9" stroke="#B5BAC7"/>
<path d="M281.496 104.63V97.5258L279.953 97.9545L279.635 96.7296L281.937 95.9946H282.991V104.63H281.496ZM286.353 104.63V97.5258L284.81 97.9545L284.491 96.7296L286.794 95.9946H287.847V104.63H286.353Z" fill="#5F2167"/>
<path d="M272.806 197.994C270.274 198.149 268.136 196.138 268.136 193.602L268.136 168.5C268.136 165.964 270.274 163.953 272.806 164.109L296.078 165.537C298.399 165.679 300.208 167.603 300.208 169.928L300.208 192.174C300.208 194.499 298.399 196.423 296.078 196.565L272.806 197.994Z" fill="#F1F3F9" stroke="#B5BAC7"/>
<path d="M275.754 200.702C274.126 200.731 272.791 199.419 272.791 197.791C272.791 196.163 274.126 194.852 275.754 194.881L291.746 195.162C293.18 195.187 294.329 196.357 294.329 197.791C294.329 199.225 293.18 200.395 291.746 200.42L275.754 200.702Z" fill="#F1F3F9" stroke="#B5BAC7"/>
<path d="M275.753 167.224C274.126 167.253 272.791 165.942 272.791 164.314C272.791 162.686 274.126 161.374 275.753 161.403L291.746 161.685C293.18 161.71 294.329 162.879 294.329 164.314C294.329 165.748 293.18 166.918 291.746 166.943L275.753 167.224Z" fill="#F1F3F9" stroke="#B5BAC7"/>
<rect x="298.758" y="188.513" width="14.9235" height="3.89953" rx="1.94977" transform="rotate(-90 298.758 188.513)" fill="#F1F3F9" stroke="#B5BAC7"/>
<path d="M279.493 185.051V177.947L277.949 178.375L277.631 177.151L279.934 176.416H280.987V185.051H279.493ZM286.591 185.198C284.337 185.198 282.867 183.238 282.867 180.764C282.867 178.314 284.362 176.33 286.615 176.33C288.857 176.33 290.339 178.29 290.339 180.764C290.339 183.214 288.845 185.198 286.591 185.198ZM286.615 183.838C287.95 183.838 288.783 182.479 288.783 180.764C288.783 179.074 287.914 177.69 286.591 177.69C285.268 177.69 284.423 179.037 284.423 180.764C284.423 182.454 285.28 183.838 286.615 183.838Z" fill="#5F2167"/>
<path d="M272.806 254.415C270.274 254.57 268.136 252.559 268.136 250.023L268.136 224.921C268.136 222.385 270.274 220.374 272.806 220.53L296.078 221.958C298.399 222.1 300.208 224.024 300.208 226.349L300.208 248.595C300.208 250.92 298.399 252.844 296.078 252.986L272.806 254.415Z" fill="#F1F3F9" stroke="#B5BAC7"/>
<path d="M275.754 257.123C274.126 257.152 272.791 255.84 272.791 254.212C272.791 252.584 274.126 251.273 275.754 251.301L291.746 251.583C293.18 251.608 294.329 252.778 294.329 254.212C294.329 255.646 293.18 256.816 291.746 256.841L275.754 257.123Z" fill="#F1F3F9" stroke="#B5BAC7"/>
<path d="M275.753 223.645C274.126 223.674 272.791 222.363 272.791 220.735C272.791 219.107 274.126 217.795 275.753 217.824L291.746 218.106C293.18 218.131 294.329 219.3 294.329 220.735C294.329 222.169 293.18 223.339 291.746 223.364L275.753 223.645Z" fill="#F1F3F9" stroke="#B5BAC7"/>
<rect x="298.758" y="244.934" width="14.9235" height="3.89953" rx="1.94977" transform="rotate(-90 298.758 244.934)" fill="#F1F3F9" stroke="#B5BAC7"/>
<path d="M280.643 241.619C278.39 241.619 276.92 239.659 276.92 237.185C276.92 234.735 278.414 232.751 280.668 232.751C282.909 232.751 284.392 234.711 284.392 237.185C284.392 239.635 282.897 241.619 280.643 241.619ZM280.668 240.259C282.003 240.259 282.836 238.9 282.836 237.185C282.836 235.495 281.966 234.111 280.643 234.111C279.321 234.111 278.475 235.458 278.475 237.185C278.475 238.875 279.333 240.259 280.668 240.259ZM288.748 241.619C287.56 241.619 286.727 241.19 286.004 240.59L286.825 239.439C287.474 239.99 288.05 240.247 288.784 240.247C290.046 240.247 290.805 239.133 290.854 237.552C290.426 238.067 289.764 238.459 288.846 238.459C287.021 238.459 285.808 237.393 285.808 235.715C285.808 234.037 287.106 232.751 289.005 232.751C290.083 232.751 290.781 233.057 291.381 233.657C292.018 234.294 292.422 235.237 292.422 236.952C292.422 239.708 291.05 241.619 288.748 241.619ZM289.066 237.197C290.156 237.197 290.805 236.487 290.805 235.629C290.805 234.735 290.107 234.049 289.017 234.049C287.952 234.049 287.315 234.76 287.315 235.666C287.315 236.56 288.001 237.197 289.066 237.197Z" fill="#5F2167"/>
<path d="M349.858 61.1517C347.327 61.3071 345.189 59.2962 345.189 56.7605L345.189 31.6578C345.189 29.122 347.327 27.1112 349.858 27.2665L373.131 28.6949C375.452 28.8374 377.261 30.7611 377.261 33.0862L377.261 55.3321C377.261 57.6572 375.452 59.5809 373.131 59.7233L349.858 61.1517Z" fill="#F1F3F9" stroke="#B5BAC7"/>
<path d="M352.806 63.86C351.179 63.8886 349.844 62.5771 349.844 60.9492C349.844 59.3214 351.179 58.0099 352.806 58.0385L368.798 58.3201C370.232 58.3453 371.382 59.515 371.382 60.9492C371.382 62.3835 370.232 63.5532 368.798 63.5784L352.806 63.86Z" fill="#F1F3F9" stroke="#B5BAC7"/>
<path d="M352.806 30.3825C351.178 30.4111 349.844 29.0996 349.844 27.4717C349.844 25.8439 351.178 24.5324 352.806 24.561L368.798 24.8426C370.232 24.8678 371.381 26.0375 371.381 27.4717C371.381 28.906 370.232 30.0757 368.798 30.1009L352.806 30.3825Z" fill="#F1F3F9" stroke="#B5BAC7"/>
<rect x="375.811" y="51.6714" width="14.9235" height="3.89953" rx="1.94977" transform="rotate(-90 375.811 51.6714)" fill="#F1F3F9" stroke="#B5BAC7"/>
<path d="M357.458 48.2091V41.1048L355.915 41.5335L355.596 40.3086L357.899 39.5737H358.952V48.2091H357.458ZM364.262 48.3561C363.209 48.3561 362.449 48.0253 361.886 47.4619C361.224 46.8005 360.832 45.9063 360.832 44.1547C360.832 41.5335 362.082 39.4879 364.507 39.4879C365.622 39.4879 366.381 39.8431 367.128 40.4433L366.32 41.607C365.72 41.1415 365.205 40.8598 364.458 40.8598C363.184 40.8598 362.474 42.0112 362.4 43.579C362.853 43.1381 363.441 42.7216 364.446 42.7216C366.112 42.7216 367.447 43.7015 367.447 45.4408C367.447 47.1434 366.063 48.3561 364.262 48.3561ZM364.225 47.0577C365.291 47.0577 365.94 46.384 365.94 45.4776C365.94 44.6202 365.254 43.9832 364.189 43.9832C363.123 43.9832 362.449 44.6692 362.449 45.5143C362.449 46.384 363.147 47.0577 364.225 47.0577Z" fill="#5F2167"/>
<path d="M349.858 117.573C347.327 117.728 345.189 115.717 345.189 113.181L345.189 88.0788C345.189 85.543 347.327 83.5322 349.858 83.6875L373.131 85.1159C375.452 85.2584 377.261 87.182 377.261 89.5072L377.261 111.753C377.261 114.078 375.452 116.002 373.131 116.144L349.858 117.573Z" fill="#F1F3F9" stroke="#B5BAC7"/>
<path d="M352.806 120.281C351.179 120.31 349.844 118.998 349.844 117.37C349.844 115.742 351.179 114.431 352.806 114.46L368.798 114.741C370.232 114.766 371.382 115.936 371.382 117.37C371.382 118.804 370.232 119.974 368.798 119.999L352.806 120.281Z" fill="#F1F3F9" stroke="#B5BAC7"/>
<path d="M352.806 86.8034C351.178 86.8321 349.844 85.5206 349.844 83.8927C349.844 82.2649 351.178 80.9534 352.806 80.982L368.798 81.2635C370.232 81.2888 371.381 82.4585 371.381 83.8927C371.381 85.327 370.232 86.4967 368.798 86.5219L352.806 86.8034Z" fill="#F1F3F9" stroke="#B5BAC7"/>
<rect x="375.811" y="108.092" width="14.9235" height="3.89953" rx="1.94977" transform="rotate(-90 375.811 108.092)" fill="#F1F3F9" stroke="#B5BAC7"/>
<path d="M357.667 104.63V97.5258L356.124 97.9545L355.806 96.7296L358.108 95.9946H359.162V104.63H357.667ZM364.067 104.777C362.757 104.777 361.728 104.25 360.919 103.466L361.85 102.376C362.536 103.013 363.259 103.405 364.055 103.405C365.084 103.405 365.757 102.817 365.757 101.899C365.757 101.029 365.023 100.478 363.981 100.478C363.369 100.478 362.842 100.649 362.401 100.857L361.495 100.257L361.74 96.0559H366.86V97.391H363.038L362.904 99.3998C363.308 99.2528 363.687 99.1548 364.263 99.1548C365.929 99.1548 367.24 100.037 367.24 101.874C367.24 103.626 365.966 104.777 364.067 104.777Z" fill="#5F2167"/>
<path d="M349.858 197.995C347.327 198.15 345.189 196.139 345.189 193.603L345.189 168.501C345.189 165.965 347.327 163.954 349.858 164.11L373.131 165.538C375.452 165.68 377.261 167.604 377.261 169.929L377.261 192.175C377.261 194.5 375.452 196.424 373.131 196.566L349.858 197.995Z" fill="#848CA2" stroke="#B5BAC7"/>
<path d="M352.806 200.702C351.179 200.731 349.844 199.419 349.844 197.791C349.844 196.163 351.179 194.852 352.806 194.881L368.798 195.162C370.232 195.187 371.382 196.357 371.382 197.791C371.382 199.225 370.232 200.395 368.798 200.42L352.806 200.702Z" fill="#848CA2" stroke="#B5BAC7"/>
<path d="M352.806 167.224C351.179 167.253 349.844 165.941 349.844 164.314C349.844 162.686 351.179 161.374 352.806 161.403L368.798 161.684C370.232 161.71 371.382 162.879 371.382 164.314C371.382 165.748 370.232 166.918 368.798 166.943L352.806 167.224Z" fill="#848CA2" stroke="#B5BAC7"/>
<rect x="375.811" y="188.515" width="14.9235" height="3.89953" rx="1.94977" transform="rotate(-90 375.811 188.515)" fill="#848CA2" stroke="#B5BAC7"/>
<line opacity="0.35" x1="0.918661" y1="-0.918661" x2="47.5842" y2="-0.918661" transform="matrix(-0.707107 0.707107 -0.707107 -0.707106 378.986 164.517)" stroke="#E11F2A" stroke-width="1.83732" stroke-linecap="round"/>
<line opacity="0.35" x1="0.918661" y1="-0.918661" x2="47.5842" y2="-0.918661" transform="matrix(0.707107 0.707106 0.707107 -0.707107 344.689 164.517)" stroke="#E11F2A" stroke-width="1.83732" stroke-linecap="round"/>
<path d="M356.808 185.052V177.948L355.264 178.377L354.946 177.152L357.248 176.417H358.302V185.052H356.808ZM364.53 185.052V183.129H360.206L359.925 182.051L364.689 176.417H365.976V181.892H367.2V183.129H365.976V185.052H364.53ZM361.713 181.892H364.53V178.499L361.713 181.892Z" fill="white"/>
<path d="M349.858 254.415C347.327 254.57 345.189 252.559 345.189 250.023L345.189 224.921C345.189 222.385 347.327 220.374 349.858 220.53L373.131 221.958C375.452 222.1 377.261 224.024 377.261 226.349L377.261 248.595C377.261 250.92 375.452 252.844 373.131 252.986L349.858 254.415Z" fill="#F1F3F9" stroke="#B5BAC7"/>
<path d="M352.806 257.123C351.179 257.152 349.844 255.84 349.844 254.212C349.844 252.584 351.179 251.273 352.806 251.301L368.798 251.583C370.232 251.608 371.382 252.778 371.382 254.212C371.382 255.646 370.232 256.816 368.798 256.841L352.806 257.123Z" fill="#F1F3F9" stroke="#B5BAC7"/>
<path d="M352.806 223.645C351.178 223.674 349.844 222.363 349.844 220.735C349.844 219.107 351.178 217.795 352.806 217.824L368.798 218.106C370.232 218.131 371.381 219.3 371.381 220.735C371.381 222.169 370.232 223.339 368.798 223.364L352.806 223.645Z" fill="#F1F3F9" stroke="#B5BAC7"/>
<rect x="375.811" y="244.934" width="14.9235" height="3.89953" rx="1.94977" transform="rotate(-90 375.811 244.934)" fill="#F1F3F9" stroke="#B5BAC7"/>
<path d="M357.691 241.472V234.368L356.148 234.796L355.829 233.572L358.132 232.837H359.186V241.472H357.691ZM364.177 241.619C362.682 241.619 361.617 240.994 360.894 240.112L361.948 239.133C362.56 239.855 363.246 240.259 364.201 240.259C365.046 240.259 365.683 239.745 365.683 238.937C365.683 238.091 364.912 237.614 363.711 237.614H363.013L362.768 236.671L365.083 234.208H361.372V232.898H367.043V234.025L364.655 236.475C366.014 236.671 367.178 237.369 367.178 238.912C367.178 240.492 365.953 241.619 364.177 241.619Z" fill="#5F2167"/>
<path d="M426.911 61.1517C424.38 61.3071 422.242 59.2962 422.242 56.7605L422.242 31.6578C422.242 29.122 424.38 27.1112 426.911 27.2665L450.184 28.6949C452.504 28.8374 454.314 30.7611 454.314 33.0862L454.314 55.3321C454.314 57.6572 452.504 59.5809 450.184 59.7233L426.911 61.1517Z" fill="#F1F3F9" stroke="#B5BAC7"/>
<path d="M429.859 63.86C428.231 63.8886 426.896 62.5771 426.896 60.9492C426.896 59.3214 428.231 58.0099 429.859 58.0385L445.851 58.3201C447.285 58.3453 448.434 59.515 448.434 60.9492C448.434 62.3835 447.285 63.5532 445.851 63.5784L429.859 63.86Z" fill="#F1F3F9" stroke="#B5BAC7"/>
<path d="M429.859 30.3825C428.231 30.4111 426.896 29.0996 426.896 27.4717C426.896 25.8439 428.231 24.5324 429.859 24.561L445.851 24.8426C447.285 24.8678 448.434 26.0375 448.434 27.4717C448.434 28.906 447.285 30.0757 445.851 30.1009L429.859 30.3825Z" fill="#F1F3F9" stroke="#B5BAC7"/>
<rect x="452.864" y="51.6714" width="14.9235" height="3.89953" rx="1.94977" transform="rotate(-90 452.864 51.6714)" fill="#F1F3F9" stroke="#B5BAC7"/>
<path d="M431.19 48.2091V47.0209L434.142 44.5099C435.318 43.5178 435.747 42.9666 435.747 42.1949C435.747 41.3497 435.147 40.8598 434.363 40.8598C433.579 40.8598 433.04 41.2885 432.378 42.1459L431.313 41.313C432.133 40.1616 432.942 39.5124 434.473 39.5124C436.151 39.5124 437.302 40.5413 437.302 42.0969C437.302 43.4443 436.58 44.167 435.073 45.4163L433.309 46.8862H437.388V48.2091H431.19ZM442.524 48.3561C440.27 48.3561 438.8 46.3963 438.8 43.922C438.8 41.4722 440.295 39.4879 442.548 39.4879C444.79 39.4879 446.272 41.4477 446.272 43.922C446.272 46.3718 444.778 48.3561 442.524 48.3561ZM442.548 46.9964C443.883 46.9964 444.716 45.6368 444.716 43.922C444.716 42.2317 443.847 40.8475 442.524 40.8475C441.201 40.8475 440.356 42.1949 440.356 43.922C440.356 45.6123 441.213 46.9964 442.548 46.9964Z" fill="#5F2167"/>
<path d="M426.911 117.574C424.38 117.729 422.242 115.718 422.242 113.182L422.242 88.0798C422.242 85.544 424.38 83.5332 426.911 83.6886L450.184 85.117C452.504 85.2594 454.314 87.1831 454.314 89.5082L454.314 111.754C454.314 114.079 452.504 116.003 450.184 116.145L426.911 117.574Z" fill="#848CA2" stroke="#B5BAC7"/>
<path d="M429.859 120.281C428.231 120.31 426.896 118.998 426.896 117.37C426.896 115.742 428.231 114.431 429.859 114.46L445.851 114.741C447.285 114.766 448.434 115.936 448.434 117.37C448.434 118.804 447.285 119.974 445.851 119.999L429.859 120.281Z" fill="#848CA2" stroke="#B5BAC7"/>
<path d="M429.859 86.8033C428.231 86.832 426.896 85.5205 426.896 83.8926C426.896 82.2648 428.231 80.9533 429.859 80.9819L445.851 81.2634C447.285 81.2887 448.434 82.4584 448.434 83.8926C448.434 85.3269 447.285 86.4966 445.851 86.5218L429.859 86.8033Z" fill="#848CA2" stroke="#B5BAC7"/>
<rect x="452.864" y="108.094" width="14.9235" height="3.89953" rx="1.94977" transform="rotate(-90 452.864 108.094)" fill="#848CA2" stroke="#B5BAC7"/>
<line opacity="0.35" x1="0.918661" y1="-0.918661" x2="47.5842" y2="-0.918661" transform="matrix(-0.707107 0.707107 -0.707107 -0.707106 456.038 84.0961)" stroke="#E11F2A" stroke-width="1.83732" stroke-linecap="round"/>
<line opacity="0.35" x1="0.918661" y1="-0.918661" x2="47.5842" y2="-0.918661" transform="matrix(0.707107 0.707106 0.707107 -0.707107 421.742 84.0961)" stroke="#E11F2A" stroke-width="1.83732" stroke-linecap="round"/>
<path d="M434.51 104.631V97.527L432.966 97.9557L432.648 96.7308L434.951 95.9959H436.004V104.631H434.51ZM440.848 104.778C439.66 104.778 438.827 104.35 438.105 103.749L438.925 102.598C439.574 103.149 440.15 103.406 440.885 103.406C442.147 103.406 442.906 102.292 442.955 100.712C442.526 101.226 441.865 101.618 440.946 101.618C439.121 101.618 437.909 100.552 437.909 98.8743C437.909 97.1963 439.207 95.9101 441.106 95.9101C442.183 95.9101 442.882 96.2163 443.482 96.8165C444.119 97.4535 444.523 98.3966 444.523 100.111C444.523 102.867 443.151 104.778 440.848 104.778ZM441.167 100.356C442.257 100.356 442.906 99.646 442.906 98.7886C442.906 97.8944 442.208 97.2085 441.118 97.2085C440.052 97.2085 439.415 97.9189 439.415 98.8253C439.415 99.7195 440.101 100.356 441.167 100.356Z" fill="white"/>
<path d="M426.911 197.994C424.38 198.149 422.242 196.138 422.242 193.602L422.242 168.5C422.242 165.964 424.38 163.953 426.911 164.109L450.184 165.537C452.504 165.679 454.314 167.603 454.314 169.928L454.314 192.174C454.314 194.499 452.504 196.423 450.184 196.565L426.911 197.994Z" fill="#F1F3F9" stroke="#B5BAC7"/>
<path d="M429.859 200.702C428.231 200.731 426.896 199.419 426.896 197.791C426.896 196.163 428.231 194.852 429.859 194.881L445.851 195.162C447.285 195.187 448.434 196.357 448.434 197.791C448.434 199.225 447.285 200.395 445.851 200.42L429.859 200.702Z" fill="#F1F3F9" stroke="#B5BAC7"/>
<path d="M429.859 167.224C428.231 167.253 426.896 165.942 426.896 164.314C426.896 162.686 428.231 161.374 429.859 161.403L445.851 161.685C447.285 161.71 448.434 162.879 448.434 164.314C448.434 165.748 447.285 166.918 445.851 166.943L429.859 167.224Z" fill="#F1F3F9" stroke="#B5BAC7"/>
<rect x="452.864" y="188.513" width="14.9235" height="3.89953" rx="1.94977" transform="rotate(-90 452.864 188.513)" fill="#F1F3F9" stroke="#B5BAC7"/>
<path d="M434.672 185.051V177.947L433.129 178.375L432.81 177.151L435.113 176.416H436.167V185.051H434.672ZM441.207 185.174C439.333 185.174 437.936 184.194 437.936 182.699C437.936 181.658 438.512 181.009 439.48 180.605C438.757 180.225 438.23 179.649 438.23 178.669C438.23 177.359 439.492 176.354 441.207 176.354C442.922 176.354 444.183 177.347 444.183 178.694C444.183 179.649 443.657 180.225 442.934 180.605C443.865 181.033 444.477 181.646 444.477 182.687C444.477 184.218 443.081 185.174 441.207 185.174ZM441.207 180.103C442.089 180.103 442.738 179.576 442.738 178.816C442.738 178.155 442.125 177.616 441.207 177.616C440.288 177.616 439.676 178.155 439.676 178.829C439.676 179.576 440.325 180.103 441.207 180.103ZM441.207 183.912C442.334 183.912 443.007 183.336 443.007 182.601C443.007 181.817 442.223 181.303 441.207 181.303C440.19 181.303 439.406 181.817 439.406 182.626C439.406 183.324 440.08 183.912 441.207 183.912Z" fill="#5F2167"/>
<path d="M426.911 254.417C424.379 254.573 422.241 252.562 422.241 250.026L422.241 224.923C422.241 222.388 424.379 220.377 426.91 220.532L450.183 221.96C452.504 222.103 454.313 224.027 454.313 226.352L454.313 248.598C454.313 250.923 452.504 252.846 450.183 252.989L426.911 254.417Z" fill="#5F2167" stroke="#B5BAC7"/>
<path d="M434.798 241.474V234.37L433.254 234.799L432.936 233.574L435.239 232.839H436.292V241.474H434.798ZM438.772 241.474L442.619 234.223H438.307V232.9H444.333V234.039L440.463 241.474H438.772Z" fill="white"/>
<path d="M429.859 257.123C428.232 257.152 426.897 255.84 426.897 254.212C426.897 252.584 428.232 251.273 429.859 251.302L445.851 251.583C447.285 251.608 448.435 252.778 448.435 254.212C448.435 255.646 447.285 256.816 445.851 256.841L429.859 257.123Z" fill="#5F2167" stroke="#B5BAC7"/>
<path d="M429.859 223.645C428.232 223.674 426.897 222.362 426.897 220.735C426.897 219.107 428.232 217.795 429.859 217.824L445.851 218.105C447.285 218.131 448.435 219.3 448.435 220.735C448.435 222.169 447.285 223.339 445.851 223.364L429.859 223.645Z" fill="#5F2167" stroke="#B5BAC7"/>
<rect x="452.864" y="244.935" width="14.9235" height="3.89953" rx="1.94977" transform="rotate(-90 452.864 244.935)" fill="#5F2167" stroke="#B5BAC7"/>
<path d="M503.963 61.1517C501.432 61.3071 499.294 59.2962 499.294 56.7605L499.294 31.6578C499.294 29.122 501.432 27.1112 503.963 27.2665L527.236 28.6949C529.557 28.8374 531.366 30.7611 531.366 33.0862L531.366 55.3321C531.366 57.6572 529.557 59.5809 527.236 59.7233L503.963 61.1517Z" fill="#F1F3F9" stroke="#B5BAC7"/>
<path d="M506.911 63.86C505.284 63.8886 503.949 62.5771 503.949 60.9492C503.949 59.3214 505.284 58.0099 506.911 58.0385L522.904 58.3201C524.338 58.3453 525.487 59.515 525.487 60.9492C525.487 62.3835 524.338 63.5532 522.904 63.5784L506.911 63.86Z" fill="#F1F3F9" stroke="#B5BAC7"/>
<path d="M506.911 30.3825C505.284 30.4111 503.949 29.0996 503.949 27.4717C503.949 25.8439 505.284 24.5324 506.911 24.561L522.903 24.8426C524.337 24.8678 525.487 26.0375 525.487 27.4717C525.487 28.906 524.337 30.0757 522.903 30.1009L506.911 30.3825Z" fill="#F1F3F9" stroke="#B5BAC7"/>
<rect x="529.916" y="51.6714" width="14.9235" height="3.89953" rx="1.94977" transform="rotate(-90 529.916 51.6714)" fill="#F1F3F9" stroke="#B5BAC7"/>
<path d="M508.125 48.2091V47.0209L511.077 44.5099C512.253 43.5178 512.682 42.9666 512.682 42.1949C512.682 41.3497 512.082 40.8598 511.298 40.8598C510.514 40.8598 509.975 41.2885 509.314 42.1459L508.248 41.313C509.069 40.1616 509.877 39.5124 511.408 39.5124C513.086 39.5124 514.238 40.5413 514.238 42.0969C514.238 43.4443 513.515 44.167 512.008 45.4163L510.245 46.8862H514.323V48.2091H508.125ZM519.845 48.2091V46.286H515.521L515.239 45.2081L520.004 39.5737H521.29V45.0489H522.515V46.286H521.29V48.2091H519.845ZM517.027 45.0489H519.845V41.656L517.027 45.0489Z" fill="#5F2167"/>
<path d="M503.963 117.573C501.432 117.728 499.294 115.717 499.294 113.181L499.294 88.0788C499.294 85.543 501.432 83.5322 503.963 83.6875L527.236 85.1159C529.557 85.2584 531.366 87.182 531.366 89.5072L531.366 111.753C531.366 114.078 529.557 116.002 527.236 116.144L503.963 117.573Z" fill="#F1F3F9" stroke="#B5BAC7"/>
<path d="M506.911 120.281C505.284 120.31 503.949 118.998 503.949 117.37C503.949 115.742 505.284 114.431 506.911 114.46L522.904 114.741C524.338 114.766 525.487 115.936 525.487 117.37C525.487 118.804 524.338 119.974 522.904 119.999L506.911 120.281Z" fill="#F1F3F9" stroke="#B5BAC7"/>
<path d="M506.911 86.8034C505.284 86.8321 503.949 85.5206 503.949 83.8927C503.949 82.2649 505.284 80.9534 506.911 80.982L522.903 81.2635C524.337 81.2888 525.487 82.4585 525.487 83.8927C525.487 85.327 524.337 86.4967 522.903 86.5219L506.911 86.8034Z" fill="#F1F3F9" stroke="#B5BAC7"/>
<rect x="529.916" y="108.092" width="14.9235" height="3.89953" rx="1.94977" transform="rotate(-90 529.916 108.092)" fill="#F1F3F9" stroke="#B5BAC7"/>
<path d="M508.389 104.63V103.442L511.341 100.931C512.516 99.9388 512.945 99.3876 512.945 98.6159C512.945 97.7707 512.345 97.2808 511.561 97.2808C510.777 97.2808 510.238 97.7095 509.577 98.5669L508.511 97.734C509.332 96.5826 510.14 95.9334 511.671 95.9334C513.349 95.9334 514.501 96.9623 514.501 98.5179C514.501 99.8653 513.778 100.588 512.272 101.837L510.508 103.307H514.587V104.63H508.389ZM519.11 104.777C517.615 104.777 516.55 104.152 515.827 103.27L516.881 102.291C517.493 103.013 518.179 103.417 519.134 103.417C519.979 103.417 520.616 102.903 520.616 102.095C520.616 101.249 519.845 100.772 518.644 100.772H517.946L517.701 99.8285L520.016 97.3665H516.305V96.0559H521.976V97.1828L519.588 99.6325C520.947 99.8285 522.111 100.527 522.111 102.07C522.111 103.65 520.886 104.777 519.11 104.777Z" fill="#5F2167"/>
<path d="M503.963 197.995C501.432 198.15 499.294 196.139 499.294 193.603L499.294 168.501C499.294 165.965 501.432 163.954 503.963 164.11L527.236 165.538C529.557 165.68 531.366 167.604 531.366 169.929L531.366 192.175C531.366 194.5 529.557 196.424 527.236 196.566L503.963 197.995Z" fill="#848CA2" stroke="#B5BAC7"/>
<path d="M506.911 200.702C505.284 200.731 503.949 199.419 503.949 197.791C503.949 196.163 505.284 194.852 506.911 194.881L522.904 195.162C524.338 195.187 525.487 196.357 525.487 197.791C525.487 199.225 524.338 200.395 522.904 200.42L506.911 200.702Z" fill="#848CA2" stroke="#B5BAC7"/>
<path d="M506.911 167.224C505.284 167.253 503.949 165.941 503.949 164.314C503.949 162.686 505.284 161.374 506.911 161.403L522.904 161.684C524.338 161.71 525.487 162.879 525.487 164.314C525.487 165.748 524.338 166.918 522.904 166.943L506.911 167.224Z" fill="#848CA2" stroke="#B5BAC7"/>
<rect x="529.916" y="188.515" width="14.9235" height="3.89953" rx="1.94977" transform="rotate(-90 529.916 188.515)" fill="#848CA2" stroke="#B5BAC7"/>
<line opacity="0.35" x1="0.918661" y1="-0.918661" x2="47.5842" y2="-0.918661" transform="matrix(-0.707107 0.707107 -0.707107 -0.707106 533.091 164.517)" stroke="#E11F2A" stroke-width="1.83732" stroke-linecap="round"/>
<line opacity="0.35" x1="0.918661" y1="-0.918661" x2="47.5842" y2="-0.918661" transform="matrix(0.707107 0.707106 0.707107 -0.707107 498.794 164.517)" stroke="#E11F2A" stroke-width="1.83732" stroke-linecap="round"/>
<path d="M508.418 185.052V183.864L511.37 181.353C512.545 180.361 512.974 179.81 512.974 179.038C512.974 178.193 512.374 177.703 511.59 177.703C510.806 177.703 510.267 178.132 509.606 178.989L508.54 178.156C509.361 177.005 510.169 176.356 511.7 176.356C513.378 176.356 514.53 177.385 514.53 178.94C514.53 180.287 513.807 181.01 512.3 182.26L510.537 183.729H514.615V185.052H508.418ZM515.93 185.052V183.864L518.882 181.353C520.057 180.361 520.486 179.81 520.486 179.038C520.486 178.193 519.886 177.703 519.102 177.703C518.318 177.703 517.779 178.132 517.118 178.989L516.052 178.156C516.873 177.005 517.681 176.356 519.212 176.356C520.89 176.356 522.042 177.385 522.042 178.94C522.042 180.287 521.319 181.01 519.812 182.26L518.049 183.729H522.127V185.052H515.93Z" fill="white"/>
<path d="M503.963 254.415C501.432 254.57 499.294 252.559 499.294 250.023L499.294 224.921C499.294 222.385 501.432 220.374 503.963 220.53L527.236 221.958C529.557 222.1 531.366 224.024 531.366 226.349L531.366 248.595C531.366 250.92 529.557 252.844 527.236 252.986L503.963 254.415Z" fill="#F1F3F9" stroke="#B5BAC7"/>
<path d="M506.911 257.123C505.284 257.152 503.949 255.84 503.949 254.212C503.949 252.584 505.284 251.273 506.911 251.301L522.904 251.583C524.338 251.608 525.487 252.778 525.487 254.212C525.487 255.646 524.338 256.816 522.904 256.841L506.911 257.123Z" fill="#F1F3F9" stroke="#B5BAC7"/>
<path d="M506.911 223.645C505.284 223.674 503.949 222.363 503.949 220.735C503.949 219.107 505.284 217.795 506.911 217.824L522.903 218.106C524.337 218.131 525.487 219.3 525.487 220.735C525.487 222.169 524.337 223.339 522.903 223.364L506.911 223.645Z" fill="#F1F3F9" stroke="#B5BAC7"/>
<rect x="529.916" y="244.934" width="14.9235" height="3.89953" rx="1.94977" transform="rotate(-90 529.916 244.934)" fill="#F1F3F9" stroke="#B5BAC7"/>
<path d="M510.246 241.472V240.284L513.198 237.773C514.374 236.781 514.803 236.23 514.803 235.458C514.803 234.613 514.203 234.123 513.419 234.123C512.635 234.123 512.096 234.551 511.434 235.409L510.369 234.576C511.189 233.425 511.998 232.775 513.529 232.775C515.207 232.775 516.358 233.804 516.358 235.36C516.358 236.707 515.636 237.43 514.129 238.679L512.365 240.149H516.444V241.472H510.246ZM519.338 241.472V234.368L517.795 234.796L517.477 233.572L519.779 232.837H520.833V241.472H519.338Z" fill="#5F2167"/>
<path d="M581.016 61.1517C578.485 61.3071 576.347 59.2962 576.347 56.7605L576.347 31.6578C576.347 29.122 578.485 27.1112 581.016 27.2665L604.289 28.6949C606.61 28.8374 608.419 30.7611 608.419 33.0862L608.419 55.3321C608.419 57.6572 606.61 59.5809 604.289 59.7233L581.016 61.1517Z" fill="#F1F3F9" stroke="#B5BAC7"/>
<path d="M583.964 63.86C582.337 63.8886 581.002 62.5771 581.002 60.9492C581.002 59.3214 582.337 58.0099 583.964 58.0385L599.956 58.3201C601.39 58.3453 602.54 59.515 602.54 60.9492C602.54 62.3835 601.39 63.5532 599.956 63.5784L583.964 63.86Z" fill="#F1F3F9" stroke="#B5BAC7"/>
<path d="M583.964 30.3825C582.336 30.4111 581.001 29.0996 581.001 27.4717C581.001 25.8439 582.336 24.5324 583.964 24.561L599.956 24.8426C601.39 24.8678 602.539 26.0375 602.539 27.4717C602.539 28.906 601.39 30.0757 599.956 30.1009L583.964 30.3825Z" fill="#F1F3F9" stroke="#B5BAC7"/>
<rect x="606.969" y="51.6714" width="14.9235" height="3.89953" rx="1.94977" transform="rotate(-90 606.969 51.6714)" fill="#F1F3F9" stroke="#B5BAC7"/>
<path d="M585.37 48.2091V47.0209L588.322 44.5099C589.497 43.5178 589.926 42.9666 589.926 42.1949C589.926 41.3497 589.326 40.8598 588.542 40.8598C587.758 40.8598 587.219 41.2885 586.558 42.1459L585.492 41.313C586.313 40.1616 587.121 39.5124 588.652 39.5124C590.33 39.5124 591.482 40.5413 591.482 42.0969C591.482 43.4443 590.759 44.167 589.252 45.4163L587.489 46.8862H591.568V48.2091H585.37ZM596.14 48.3316C594.266 48.3316 592.869 47.3517 592.869 45.8573C592.869 44.8162 593.445 44.167 594.413 43.7628C593.69 43.383 593.163 42.8073 593.163 41.8274C593.163 40.5168 594.425 39.5124 596.14 39.5124C597.855 39.5124 599.116 40.5046 599.116 41.8519C599.116 42.8073 598.59 43.383 597.867 43.7628C598.798 44.1915 599.41 44.8039 599.41 45.8451C599.41 47.3762 598.014 48.3316 596.14 48.3316ZM596.14 43.2606C597.022 43.2606 597.671 42.7339 597.671 41.9744C597.671 41.313 597.058 40.774 596.14 40.774C595.221 40.774 594.609 41.313 594.609 41.9867C594.609 42.7339 595.258 43.2606 596.14 43.2606ZM596.14 47.0699C597.267 47.0699 597.94 46.4942 597.94 45.7593C597.94 44.9754 597.156 44.4609 596.14 44.4609C595.123 44.4609 594.339 44.9754 594.339 45.7838C594.339 46.482 595.013 47.0699 596.14 47.0699Z" fill="#5F2167"/>
<path d="M581.016 117.574C578.485 117.729 576.347 115.718 576.347 113.182L576.347 88.0798C576.347 85.544 578.485 83.5332 581.016 83.6886L604.289 85.117C606.61 85.2594 608.419 87.1831 608.419 89.5082L608.419 111.754C608.419 114.079 606.61 116.003 604.289 116.145L581.016 117.574Z" fill="#848CA2" stroke="#B5BAC7"/>
<path d="M583.964 120.281C582.337 120.31 581.002 118.998 581.002 117.37C581.002 115.742 582.337 114.431 583.964 114.46L599.956 114.741C601.39 114.766 602.54 115.936 602.54 117.37C602.54 118.804 601.39 119.974 599.956 119.999L583.964 120.281Z" fill="#848CA2" stroke="#B5BAC7"/>
<path d="M583.964 86.8033C582.337 86.832 581.002 85.5205 581.002 83.8926C581.002 82.2648 582.337 80.9533 583.964 80.9819L599.956 81.2634C601.39 81.2887 602.54 82.4584 602.54 83.8926C602.54 85.3269 601.39 86.4966 599.956 86.5218L583.964 86.8033Z" fill="#848CA2" stroke="#B5BAC7"/>
<rect x="606.969" y="108.094" width="14.9235" height="3.89953" rx="1.94977" transform="rotate(-90 606.969 108.094)" fill="#848CA2" stroke="#B5BAC7"/>
<line opacity="0.35" x1="0.918661" y1="-0.918661" x2="47.5842" y2="-0.918661" transform="matrix(-0.707107 0.707107 -0.707107 -0.707106 610.144 84.0961)" stroke="#E11F2A" stroke-width="1.83732" stroke-linecap="round"/>
<line opacity="0.35" x1="0.918661" y1="-0.918661" x2="47.5842" y2="-0.918661" transform="matrix(0.707107 0.707106 0.707107 -0.707107 575.847 84.0961)" stroke="#E11F2A" stroke-width="1.83732" stroke-linecap="round"/>
<path d="M585.994 104.631V103.443L588.946 100.932C590.122 99.94 590.551 99.3888 590.551 98.6171C590.551 97.7719 589.951 97.282 589.167 97.282C588.383 97.282 587.844 97.7107 587.182 98.5681L586.117 97.7352C586.937 96.5838 587.746 95.9346 589.277 95.9346C590.955 95.9346 592.106 96.9635 592.106 98.5191C592.106 99.8665 591.384 100.589 589.877 101.839L588.113 103.308H592.192V104.631H585.994ZM594.204 104.631L598.051 97.38H593.739V96.0571H599.765V97.1963L595.895 104.631H594.204Z" fill="white"/>
<path d="M581.016 197.994C578.485 198.149 576.347 196.138 576.347 193.602L576.347 168.5C576.347 165.964 578.485 163.953 581.016 164.109L604.289 165.537C606.61 165.679 608.419 167.603 608.419 169.928L608.419 192.174C608.419 194.499 606.61 196.423 604.289 196.565L581.016 197.994Z" fill="#F1F3F9" stroke="#B5BAC7"/>
<path d="M583.964 200.702C582.337 200.731 581.002 199.419 581.002 197.791C581.002 196.163 582.337 194.852 583.964 194.881L599.956 195.162C601.39 195.187 602.54 196.357 602.54 197.791C602.54 199.225 601.39 200.395 599.956 200.42L583.964 200.702Z" fill="#F1F3F9" stroke="#B5BAC7"/>
<path d="M583.964 167.224C582.336 167.253 581.001 165.942 581.001 164.314C581.001 162.686 582.336 161.374 583.964 161.403L599.956 161.685C601.39 161.71 602.539 162.879 602.539 164.314C602.539 165.748 601.39 166.918 599.956 166.943L583.964 167.224Z" fill="#F1F3F9" stroke="#B5BAC7"/>
<rect x="606.969" y="188.513" width="14.9235" height="3.89953" rx="1.94977" transform="rotate(-90 606.969 188.513)" fill="#F1F3F9" stroke="#B5BAC7"/>
<path d="M585.208 185.051V183.863L588.16 181.352C589.336 180.36 589.765 179.809 589.765 179.037C589.765 178.192 589.164 177.702 588.381 177.702C587.597 177.702 587.058 178.13 586.396 178.988L585.331 178.155C586.151 177.004 586.96 176.354 588.491 176.354C590.169 176.354 591.32 177.383 591.32 178.939C591.32 180.286 590.598 181.009 589.091 182.258L587.327 183.728H591.406V185.051H585.208ZM596.248 185.198C595.194 185.198 594.435 184.867 593.871 184.304C593.21 183.642 592.818 182.748 592.818 180.997C592.818 178.375 594.067 176.33 596.493 176.33C597.607 176.33 598.367 176.685 599.114 177.285L598.306 178.449C597.705 177.983 597.191 177.702 596.444 177.702C595.17 177.702 594.459 178.853 594.386 180.421C594.839 179.98 595.427 179.564 596.431 179.564C598.097 179.564 599.432 180.543 599.432 182.283C599.432 183.985 598.048 185.198 596.248 185.198ZM596.211 183.9C597.277 183.9 597.926 183.226 597.926 182.32C597.926 181.462 597.24 180.825 596.174 180.825C595.109 180.825 594.435 181.511 594.435 182.356C594.435 183.226 595.133 183.9 596.211 183.9Z" fill="#5F2167"/>
<path d="M581.016 254.415C578.485 254.57 576.347 252.559 576.347 250.023L576.347 224.921C576.347 222.385 578.485 220.374 581.016 220.53L604.289 221.958C606.61 222.1 608.419 224.024 608.419 226.349L608.419 248.595C608.419 250.92 606.61 252.844 604.289 252.986L581.016 254.415Z" fill="#F1F3F9" stroke="#B5BAC7"/>
<path d="M583.964 257.123C582.337 257.152 581.002 255.84 581.002 254.212C581.002 252.584 582.337 251.273 583.964 251.301L599.956 251.583C601.39 251.608 602.54 252.778 602.54 254.212C602.54 255.646 601.39 256.816 599.956 256.841L583.964 257.123Z" fill="#F1F3F9" stroke="#B5BAC7"/>
<path d="M583.964 223.645C582.336 223.674 581.001 222.363 581.001 220.735C581.001 219.107 582.336 217.795 583.964 217.824L599.956 218.106C601.39 218.131 602.539 219.3 602.539 220.735C602.539 222.169 601.39 223.339 599.956 223.364L583.964 223.645Z" fill="#F1F3F9" stroke="#B5BAC7"/>
<rect x="606.969" y="244.934" width="14.9235" height="3.89953" rx="1.94977" transform="rotate(-90 606.969 244.934)" fill="#F1F3F9" stroke="#B5BAC7"/>
<path d="M585.417 241.472V240.284L588.369 237.773C589.545 236.781 589.974 236.23 589.974 235.458C589.974 234.613 589.374 234.123 588.59 234.123C587.806 234.123 587.267 234.551 586.606 235.409L585.54 234.576C586.361 233.425 587.169 232.775 588.7 232.775C590.378 232.775 591.53 233.804 591.53 235.36C591.53 236.707 590.807 237.43 589.3 238.679L587.536 240.149H591.615V241.472H585.417ZM596.053 241.619C594.742 241.619 593.713 241.092 592.905 240.308L593.836 239.218C594.522 239.855 595.244 240.247 596.041 240.247C597.07 240.247 597.743 239.659 597.743 238.741C597.743 237.871 597.008 237.32 595.967 237.32C595.355 237.32 594.828 237.491 594.387 237.699L593.481 237.099L593.726 232.898H598.846V234.233H595.024L594.889 236.242C595.293 236.095 595.673 235.997 596.249 235.997C597.915 235.997 599.225 236.879 599.225 238.716C599.225 240.468 597.951 241.619 596.053 241.619Z" fill="#5F2167"/>
<path d="M658.068 61.1517C655.537 61.3071 653.399 59.2962 653.399 56.7605L653.399 31.6578C653.399 29.122 655.537 27.1112 658.068 27.2665L681.341 28.6949C683.662 28.8374 685.471 30.7611 685.471 33.0862L685.471 55.3321C685.471 57.6572 683.662 59.5809 681.341 59.7233L658.068 61.1517Z" fill="#F1F3F9" stroke="#B5BAC7"/>
<path d="M661.017 63.86C659.389 63.8886 658.054 62.5771 658.054 60.9492C658.054 59.3214 659.389 58.0099 661.017 58.0385L677.009 58.3201C678.443 58.3453 679.592 59.515 679.592 60.9492C679.592 62.3835 678.443 63.5532 677.009 63.5784L661.017 63.86Z" fill="#F1F3F9" stroke="#B5BAC7"/>
<path d="M661.016 30.3825C659.389 30.4111 658.054 29.0996 658.054 27.4717C658.054 25.8439 659.389 24.5324 661.016 24.561L677.008 24.8426C678.443 24.8678 679.592 26.0375 679.592 27.4717C679.592 28.906 678.443 30.0757 677.008 30.1009L661.016 30.3825Z" fill="#F1F3F9" stroke="#B5BAC7"/>
<rect x="684.021" y="51.6714" width="14.9235" height="3.89953" rx="1.94977" transform="rotate(-90 684.021 51.6714)" fill="#F1F3F9" stroke="#B5BAC7"/>
<path d="M665.703 48.3561C664.209 48.3561 663.143 47.7314 662.42 46.8495L663.474 45.8696C664.086 46.5922 664.772 46.9964 665.728 46.9964C666.573 46.9964 667.21 46.482 667.21 45.6736C667.21 44.8284 666.438 44.3507 665.238 44.3507H664.539L664.294 43.4075L666.609 40.9455H662.898V39.6349H668.569V40.7618L666.181 43.2116C667.54 43.4075 668.704 44.1057 668.704 45.6491C668.704 47.2292 667.479 48.3561 665.703 48.3561ZM670.066 48.2091V47.0209L673.018 44.5099C674.193 43.5178 674.622 42.9666 674.622 42.1949C674.622 41.3497 674.022 40.8598 673.238 40.8598C672.454 40.8598 671.915 41.2885 671.254 42.1459L670.188 41.313C671.009 40.1616 671.817 39.5124 673.348 39.5124C675.026 39.5124 676.178 40.5413 676.178 42.0969C676.178 43.4443 675.455 44.167 673.949 45.4163L672.185 46.8862H676.264V48.2091H670.066Z" fill="#5F2167"/>
<path d="M658.068 117.573C655.537 117.728 653.399 115.717 653.399 113.181L653.399 88.0788C653.399 85.543 655.537 83.5322 658.068 83.6875L681.341 85.1159C683.662 85.2584 685.471 87.182 685.471 89.5072L685.471 111.753C685.471 114.078 683.662 116.002 681.341 116.144L658.068 117.573Z" fill="#F1F3F9" stroke="#B5BAC7"/>
<path d="M661.017 120.281C659.389 120.31 658.054 118.998 658.054 117.37C658.054 115.742 659.389 114.431 661.017 114.46L677.009 114.741C678.443 114.766 679.592 115.936 679.592 117.37C679.592 118.804 678.443 119.974 677.009 119.999L661.017 120.281Z" fill="#F1F3F9" stroke="#B5BAC7"/>
<path d="M661.016 86.8034C659.389 86.8321 658.054 85.5206 658.054 83.8927C658.054 82.2649 659.389 80.9534 661.016 80.982L677.008 81.2635C678.443 81.2888 679.592 82.4585 679.592 83.8927C679.592 85.327 678.443 86.4967 677.008 86.5219L661.016 86.8034Z" fill="#F1F3F9" stroke="#B5BAC7"/>
<rect x="684.021" y="108.092" width="14.9235" height="3.89953" rx="1.94977" transform="rotate(-90 684.021 108.092)" fill="#F1F3F9" stroke="#B5BAC7"/>
<path d="M667.531 104.777C666.036 104.777 664.971 104.152 664.248 103.27L665.302 102.291C665.914 103.013 666.6 103.417 667.555 103.417C668.4 103.417 669.037 102.903 669.037 102.095C669.037 101.249 668.266 100.772 667.065 100.772H666.367L666.122 99.8285L668.437 97.3665H664.726V96.0559H670.397V97.1828L668.009 99.6325C669.368 99.8285 670.532 100.527 670.532 102.07C670.532 103.65 669.307 104.777 667.531 104.777ZM673.473 104.63V97.5258L671.93 97.9545L671.612 96.7296L673.914 95.9946H674.968V104.63H673.473Z" fill="#5F2167"/>
<path d="M658.068 197.994C655.537 198.149 653.399 196.138 653.399 193.602L653.399 168.5C653.399 165.964 655.537 163.953 658.068 164.109L681.341 165.537C683.662 165.679 685.471 167.603 685.471 169.928L685.471 192.174C685.471 194.499 683.662 196.423 681.341 196.565L658.068 197.994Z" fill="#F1F3F9" stroke="#B5BAC7"/>
<path d="M661.017 200.702C659.389 200.731 658.054 199.419 658.054 197.791C658.054 196.163 659.389 194.852 661.017 194.881L677.009 195.162C678.443 195.187 679.592 196.357 679.592 197.791C679.592 199.225 678.443 200.395 677.009 200.42L661.017 200.702Z" fill="#F1F3F9" stroke="#B5BAC7"/>
<path d="M661.016 167.224C659.389 167.253 658.054 165.942 658.054 164.314C658.054 162.686 659.389 161.374 661.016 161.403L677.008 161.685C678.443 161.71 679.592 162.879 679.592 164.314C679.592 165.748 678.443 166.918 677.008 166.943L661.016 167.224Z" fill="#F1F3F9" stroke="#B5BAC7"/>
<rect x="684.021" y="188.513" width="14.9235" height="3.89953" rx="1.94977" transform="rotate(-90 684.021 188.513)" fill="#F1F3F9" stroke="#B5BAC7"/>
<path d="M665.527 185.198C664.033 185.198 662.967 184.573 662.245 183.691L663.298 182.712C663.91 183.434 664.596 183.838 665.552 183.838C666.397 183.838 667.034 183.324 667.034 182.516C667.034 181.67 666.262 181.193 665.062 181.193H664.364L664.119 180.25L666.434 177.788H662.722V176.477H668.393V177.604L666.005 180.054C667.365 180.25 668.528 180.948 668.528 182.491C668.528 184.071 667.303 185.198 665.527 185.198ZM673.711 185.198C671.458 185.198 669.988 183.238 669.988 180.764C669.988 178.314 671.482 176.33 673.736 176.33C675.977 176.33 677.46 178.29 677.46 180.764C677.46 183.214 675.965 185.198 673.711 185.198ZM673.736 183.838C675.071 183.838 675.904 182.479 675.904 180.764C675.904 179.074 675.034 177.69 673.711 177.69C672.389 177.69 671.543 179.037 671.543 180.764C671.543 182.454 672.401 183.838 673.736 183.838Z" fill="#5F2167"/>
<path d="M658.068 254.416C655.537 254.571 653.399 252.56 653.399 250.024L653.399 224.922C653.399 222.386 655.537 220.375 658.068 220.531L681.341 221.959C683.662 222.101 685.471 224.025 685.471 226.35L685.471 248.596C685.471 250.921 683.662 252.845 681.341 252.987L658.068 254.416Z" fill="#848CA2" stroke="#B5BAC7"/>
<path d="M661.017 257.123C659.389 257.152 658.054 255.84 658.054 254.212C658.054 252.584 659.389 251.273 661.017 251.301L677.009 251.583C678.443 251.608 679.592 252.778 679.592 254.212C679.592 255.646 678.443 256.816 677.009 256.841L661.017 257.123Z" fill="#848CA2" stroke="#B5BAC7"/>
<path d="M661.017 223.645C659.389 223.674 658.054 222.362 658.054 220.735C658.054 219.107 659.389 217.795 661.017 217.824L677.009 218.105C678.443 218.131 679.592 219.3 679.592 220.735C679.592 222.169 678.443 223.339 677.009 223.364L661.017 223.645Z" fill="#848CA2" stroke="#B5BAC7"/>
<rect x="684.021" y="244.936" width="14.9235" height="3.89953" rx="1.94977" transform="rotate(-90 684.021 244.936)" fill="#848CA2" stroke="#B5BAC7"/>
<line opacity="0.35" x1="0.918661" y1="-0.918661" x2="47.5842" y2="-0.918661" transform="matrix(-0.707107 0.707107 -0.707107 -0.707106 687.196 220.938)" stroke="#E11F2A" stroke-width="1.83732" stroke-linecap="round"/>
<line opacity="0.35" x1="0.918661" y1="-0.918661" x2="47.5842" y2="-0.918661" transform="matrix(0.707107 0.707106 0.707107 -0.707107 652.899 220.938)" stroke="#E11F2A" stroke-width="1.83732" stroke-linecap="round"/>
<path d="M662.26 241.473V240.285L665.212 237.774C666.387 236.782 666.816 236.231 666.816 235.459C666.816 234.614 666.216 234.124 665.432 234.124C664.648 234.124 664.109 234.553 663.448 235.41L662.382 234.577C663.203 233.426 664.011 232.777 665.542 232.777C667.22 232.777 668.372 233.806 668.372 235.361C668.372 236.708 667.649 237.431 666.143 238.681L664.379 240.15H668.458V241.473H662.26ZM672.834 241.62C671.646 241.62 670.813 241.192 670.09 240.591L670.911 239.44C671.56 239.991 672.136 240.248 672.871 240.248C674.132 240.248 674.892 239.134 674.941 237.554C674.512 238.068 673.85 238.46 672.932 238.46C671.107 238.46 669.894 237.394 669.894 235.716C669.894 234.038 671.192 232.752 673.091 232.752C674.169 232.752 674.867 233.058 675.467 233.659C676.104 234.295 676.508 235.239 676.508 236.953C676.508 239.709 675.137 241.62 672.834 241.62ZM673.152 237.198C674.242 237.198 674.892 236.488 674.892 235.631C674.892 234.736 674.193 234.05 673.103 234.05C672.038 234.05 671.401 234.761 671.401 235.667C671.401 236.561 672.087 237.198 673.152 237.198Z" fill="white"/>
<path d="M735.121 61.1527C732.59 61.3081 730.452 59.2973 730.452 56.7615L730.452 31.6588C730.452 29.123 732.59 27.1122 735.121 27.2676L758.394 28.6959C760.715 28.8384 762.524 30.7621 762.524 33.0872L762.524 55.3331C762.524 57.6582 760.715 59.5819 758.394 59.7244L735.121 61.1527Z" fill="#848CA2" stroke="#B5BAC7"/>
<path d="M738.069 63.86C736.442 63.8886 735.107 62.5771 735.107 60.9492C735.107 59.3214 736.442 58.0099 738.069 58.0385L754.061 58.3201C755.495 58.3453 756.645 59.515 756.645 60.9492C756.645 62.3835 755.495 63.5532 754.061 63.5784L738.069 63.86Z" fill="#848CA2" stroke="#B5BAC7"/>
<path d="M738.069 30.3824C736.442 30.411 735.107 29.0995 735.107 27.4716C735.107 25.8438 736.442 24.5323 738.069 24.5609L754.061 24.8425C755.495 24.8677 756.645 26.0374 756.645 27.4716C756.645 28.9059 755.495 30.0756 754.061 30.1008L738.069 30.3824Z" fill="#848CA2" stroke="#B5BAC7"/>
<rect x="761.074" y="51.6732" width="14.9235" height="3.89953" rx="1.94977" transform="rotate(-90 761.074 51.6732)" fill="#848CA2" stroke="#B5BAC7"/>
<line opacity="0.35" x1="0.918661" y1="-0.918661" x2="47.5842" y2="-0.918661" transform="matrix(-0.707107 0.707107 -0.707107 -0.707106 764.249 27.6751)" stroke="#E11F2A" stroke-width="1.83732" stroke-linecap="round"/>
<line opacity="0.35" x1="0.918661" y1="-0.918661" x2="47.5842" y2="-0.918661" transform="matrix(0.707107 0.707106 0.707107 -0.707107 729.952 27.6751)" stroke="#E11F2A" stroke-width="1.83732" stroke-linecap="round"/>
<path d="M742.492 48.3573C740.997 48.3573 739.932 47.7326 739.209 46.8507L740.262 45.8708C740.875 46.5935 741.561 46.9977 742.516 46.9977C743.361 46.9977 743.998 46.4832 743.998 45.6748C743.998 44.8296 743.227 44.3519 742.026 44.3519H741.328L741.083 43.4088L743.398 40.9467H739.687V39.6361H745.358V40.763L742.969 43.2128C744.329 43.4088 745.493 44.1069 745.493 45.6503C745.493 47.2304 744.268 48.3573 742.492 48.3573ZM750.382 48.3573C749.329 48.3573 748.569 48.0266 748.006 47.4631C747.344 46.8017 746.952 45.9075 746.952 44.1559C746.952 41.5347 748.202 39.4891 750.627 39.4891C751.742 39.4891 752.501 39.8444 753.248 40.4445L752.44 41.6082C751.84 41.1427 751.325 40.861 750.578 40.861C749.304 40.861 748.594 42.0124 748.52 43.5802C748.973 43.1393 749.561 42.7228 750.566 42.7228C752.231 42.7228 753.567 43.7027 753.567 45.4421C753.567 47.1446 752.182 48.3573 750.382 48.3573ZM750.345 47.0589C751.411 47.0589 752.06 46.3852 752.06 45.4788C752.06 44.6214 751.374 43.9845 750.308 43.9845C749.243 43.9845 748.569 44.6704 748.569 45.5156C748.569 46.3852 749.267 47.0589 750.345 47.0589Z" fill="white"/>
<path d="M735.121 117.573C732.59 117.728 730.452 115.717 730.452 113.181L730.452 88.0788C730.452 85.543 732.59 83.5322 735.121 83.6875L758.394 85.1159C760.715 85.2584 762.524 87.182 762.524 89.5072L762.524 111.753C762.524 114.078 760.715 116.002 758.394 116.144L735.121 117.573Z" fill="#F1F3F9" stroke="#B5BAC7"/>
<path d="M738.069 120.281C736.442 120.31 735.107 118.998 735.107 117.37C735.107 115.742 736.442 114.431 738.069 114.46L754.061 114.741C755.495 114.766 756.645 115.936 756.645 117.37C756.645 118.804 755.495 119.974 754.061 119.999L738.069 120.281Z" fill="#F1F3F9" stroke="#B5BAC7"/>
<path d="M738.069 86.8034C736.442 86.8321 735.107 85.5206 735.107 83.8927C735.107 82.2649 736.442 80.9534 738.069 80.982L754.061 81.2635C755.495 81.2888 756.645 82.4585 756.645 83.8927C756.645 85.327 755.495 86.4967 754.061 86.5219L738.069 86.8034Z" fill="#F1F3F9" stroke="#B5BAC7"/>
<rect x="761.074" y="108.092" width="14.9235" height="3.89953" rx="1.94977" transform="rotate(-90 761.074 108.092)" fill="#F1F3F9" stroke="#B5BAC7"/>
<path d="M742.702 104.777C741.208 104.777 740.142 104.152 739.419 103.27L740.473 102.291C741.085 103.013 741.771 103.417 742.726 103.417C743.572 103.417 744.209 102.903 744.209 102.095C744.209 101.249 743.437 100.772 742.237 100.772H741.538L741.293 99.8285L743.608 97.3665H739.897V96.0559H745.568V97.1828L743.18 99.6325C744.539 99.8285 745.703 100.527 745.703 102.07C745.703 103.65 744.478 104.777 742.702 104.777ZM750.188 104.777C748.877 104.777 747.848 104.25 747.04 103.466L747.971 102.376C748.657 103.013 749.38 103.405 750.176 103.405C751.205 103.405 751.878 102.817 751.878 101.899C751.878 101.029 751.143 100.478 750.102 100.478C749.49 100.478 748.963 100.649 748.522 100.857L747.616 100.257L747.861 96.0559H752.981V97.391H749.159L749.024 99.3998C749.429 99.2528 749.808 99.1548 750.384 99.1548C752.05 99.1548 753.36 100.037 753.36 101.874C753.36 103.626 752.087 104.777 750.188 104.777Z" fill="#5F2167"/>
<path d="M735.121 197.994C732.59 198.149 730.452 196.138 730.452 193.602L730.452 168.5C730.452 165.964 732.59 163.953 735.121 164.109L758.394 165.537C760.715 165.679 762.524 167.603 762.524 169.928L762.524 192.174C762.524 194.499 760.715 196.423 758.394 196.565L735.121 197.994Z" fill="#F1F3F9" stroke="#B5BAC7"/>
<path d="M738.069 200.702C736.442 200.731 735.107 199.419 735.107 197.791C735.107 196.163 736.442 194.852 738.069 194.881L754.061 195.162C755.495 195.187 756.645 196.357 756.645 197.791C756.645 199.225 755.495 200.395 754.061 200.42L738.069 200.702Z" fill="#F1F3F9" stroke="#B5BAC7"/>
<path d="M738.069 167.224C736.442 167.253 735.107 165.942 735.107 164.314C735.107 162.686 736.442 161.374 738.069 161.403L754.061 161.685C755.495 161.71 756.645 162.879 756.645 164.314C756.645 165.748 755.495 166.918 754.061 166.943L738.069 167.224Z" fill="#F1F3F9" stroke="#B5BAC7"/>
<rect x="761.074" y="188.513" width="14.9235" height="3.89953" rx="1.94977" transform="rotate(-90 761.074 188.513)" fill="#F1F3F9" stroke="#B5BAC7"/>
<path d="M742.343 185.198C740.849 185.198 739.783 184.573 739.06 183.691L740.114 182.712C740.726 183.434 741.412 183.838 742.368 183.838C743.213 183.838 743.85 183.324 743.85 182.516C743.85 181.67 743.078 181.193 741.878 181.193H741.179L740.934 180.25L743.25 177.788H739.538V176.477H745.209V177.604L742.821 180.054C744.18 180.25 745.344 180.948 745.344 182.491C745.344 184.071 744.119 185.198 742.343 185.198ZM751.152 185.051V183.128H746.828L746.546 182.05L751.311 176.416H752.597V181.891H753.822V183.128H752.597V185.051H751.152ZM748.335 181.891H751.152V178.498L748.335 181.891Z" fill="#5F2167"/>
<path d="M735.121 254.415C732.59 254.57 730.452 252.559 730.452 250.023L730.452 224.921C730.452 222.385 732.59 220.374 735.121 220.53L758.394 221.958C760.715 222.1 762.524 224.024 762.524 226.349L762.524 248.595C762.524 250.92 760.715 252.844 758.394 252.986L735.121 254.415Z" fill="#F1F3F9" stroke="#B5BAC7"/>
<path d="M738.069 257.123C736.442 257.152 735.107 255.84 735.107 254.212C735.107 252.584 736.442 251.273 738.069 251.301L754.061 251.583C755.495 251.608 756.645 252.778 756.645 254.212C756.645 255.646 755.495 256.816 754.061 256.841L738.069 257.123Z" fill="#F1F3F9" stroke="#B5BAC7"/>
<path d="M738.069 223.645C736.442 223.674 735.107 222.363 735.107 220.735C735.107 219.107 736.442 217.795 738.069 217.824L754.061 218.106C755.495 218.131 756.645 219.3 756.645 220.735C756.645 222.169 755.495 223.339 754.061 223.364L738.069 223.645Z" fill="#F1F3F9" stroke="#B5BAC7"/>
<rect x="761.074" y="244.934" width="14.9235" height="3.89953" rx="1.94977" transform="rotate(-90 761.074 244.934)" fill="#F1F3F9" stroke="#B5BAC7"/>
<path d="M742.726 241.619C741.232 241.619 740.166 240.994 739.443 240.112L740.497 239.133C741.109 239.855 741.795 240.259 742.75 240.259C743.596 240.259 744.232 239.745 744.232 238.937C744.232 238.091 743.461 237.614 742.26 237.614H741.562L741.317 236.671L743.632 234.208H739.921V232.898H745.592V234.025L743.204 236.475C744.563 236.671 745.727 237.369 745.727 238.912C745.727 240.492 744.502 241.619 742.726 241.619ZM750.298 241.619C748.803 241.619 747.738 240.994 747.015 240.112L748.068 239.133C748.681 239.855 749.367 240.259 750.322 240.259C751.167 240.259 751.804 239.745 751.804 238.937C751.804 238.091 751.033 237.614 749.832 237.614H749.134L748.889 236.671L751.204 234.208H747.493V232.898H753.164V234.025L750.775 236.475C752.135 236.671 753.299 237.369 753.299 238.912C753.299 240.492 752.074 241.619 750.298 241.619Z" fill="#5F2167"/>
<path d="M807.005 24H856C864.837 24 872 31.1634 872 40V241.684C872 250.521 864.837 257.684 856 257.684H807.005V24Z" fill="black" fill-opacity="0.1"/>
<rect x="815.505" y="40.5" width="47.9953" height="47.9953" rx="3.5" fill="#F1F3F9"/>
<rect x="815.505" y="40.5" width="47.9953" height="47.9953" rx="3.5" stroke="#B5BAC7"/>
<path fill-rule="evenodd" clip-rule="evenodd" d="M836.302 53.6977C836.302 55.4609 837.739 56.8977 839.502 56.8977C841.274 56.8977 842.702 55.4609 842.702 53.6977C842.702 51.9344 841.265 50.4976 839.502 50.4976C837.739 50.4976 836.302 51.9344 836.302 53.6977ZM837.69 53.6977C837.69 52.7018 838.506 51.8854 839.502 51.8854C840.506 51.8854 841.314 52.6936 841.314 53.6977C841.314 54.6936 840.498 55.5099 839.502 55.5099C838.506 55.5099 837.69 54.6936 837.69 53.6977Z" fill="#5F2167"/>
<path d="M837.069 68.4568H838.457V78.4976H837.069V68.4568Z" fill="#5F2167"/>
<path d="M841.943 68.4568H840.555V78.4976H841.943V68.4568Z" fill="#5F2167"/>
<path d="M843.363 59.4938H835.657L835.641 68.9142H834.253L834.261 58.8081C834.261 58.6203 834.335 58.4407 834.465 58.3101C834.596 58.1795 834.767 58.106 834.955 58.106H844.057C844.441 58.106 844.751 58.4163 844.751 58.7999V68.9142H843.363V59.4938Z" fill="#5F2167"/>
<rect x="815.505" y="193.189" width="47.9953" height="47.9953" rx="3.5" fill="#F1F3F9"/>
<rect x="815.505" y="193.189" width="47.9953" height="47.9953" rx="3.5" stroke="#B5BAC7"/>
<path fill-rule="evenodd" clip-rule="evenodd" d="M836.295 206.389C836.295 208.154 837.733 209.592 839.498 209.592C841.263 209.592 842.701 208.154 842.701 206.389C842.701 204.624 841.263 203.186 839.498 203.186C837.733 203.186 836.295 204.624 836.295 206.389ZM837.684 206.389C837.684 205.392 838.501 204.575 839.498 204.575C840.495 204.575 841.312 205.392 841.312 206.389C841.312 207.386 840.495 208.203 839.498 208.203C838.493 208.203 837.684 207.386 837.684 206.389Z" fill="#5F2167"/>
<path d="M837.055 221.145H838.444V231.186H837.055V221.145Z" fill="#5F2167"/>
<path d="M841.933 221.145H840.544V231.186H841.933V221.145Z" fill="#5F2167"/>
<path d="M841.5 211.071C841.778 211.071 842.031 211.234 842.137 211.496L846.173 221.161H844.67L841.034 212.46H837.97L834.334 221.161H832.831L836.867 211.496C836.973 211.243 837.227 211.071 837.504 211.071H841.5Z" fill="#5F2167"/>
</svg>
