<svg xmlns="http://www.w3.org/2000/svg" width="31" height="30" fill="none"><rect width="30" height="30" x=".5" fill="#B5BAC7" rx="15"/><path fill="#FAFBFD" fill-rule="evenodd" d="M14.488 19.852h-1.813L10.02 9.362a.616.616 0 0 1 .441-.754l2.675-.589a.62.62 0 0 1 .746.441l.857 3.182c.042.16.021.325-.061.47a.6.6 0 0 1-.38.288l-.033.013.994 3.928h4.79c.527 0 .951.424.951.948v2.563h-2.786V22h-.7v-2.148h-2.325V22h-.7zm-1.265-.7h7.073V17.28a.25.25 0 0 0-.252-.247h-5.333l-1.282-5.074.61-.218-.816-3.03-2.502.553z" clip-rule="evenodd"/></svg>