<svg xmlns="http://www.w3.org/2000/svg" width="896" height="282" fill="none"><rect width="896" height="281.684" fill="#E3E7F2" rx="24"/><path fill="#000" fill-opacity=".1" d="M24 40c0-8.837 7.163-16 16-16h32v233.684H40c-8.837 0-16-7.163-16-16z"/><path fill="#474A56" fill-rule="evenodd" d="M62.699 221.684c0-8.118-6.581-14.699-14.699-14.699s-14.699 6.581-14.699 14.699S39.882 236.383 48 236.383s14.699-6.581 14.699-14.699m-2.94 0c0-6.494-5.266-11.759-11.76-11.759S36.24 215.19 36.24 221.684s5.265 11.759 11.76 11.759c6.493 0 11.758-5.265 11.758-11.759" clip-rule="evenodd"/><path fill="#474A56" fill-rule="evenodd" d="M61.474 221.684c0-7.441-6.033-13.474-13.474-13.474s-13.474 6.033-13.474 13.474S40.56 235.158 48 235.158s13.474-6.033 13.474-13.474M47.999 208.7c7.171 0 12.984 5.813 12.984 12.984s-5.813 12.984-12.984 12.984c-7.17 0-12.983-5.813-12.983-12.984S40.829 208.7 47.999 208.7m.001-1.715c8.118 0 14.699 6.581 14.699 14.699S56.118 236.383 48 236.383s-14.699-6.581-14.699-14.699S39.882 206.985 48 206.985m0 2.94c6.493 0 11.758 5.265 11.758 11.759S54.493 233.443 48 233.443s-11.759-5.265-11.759-11.759 5.265-11.759 11.76-11.759" clip-rule="evenodd"/><path fill="#474A56" fill-rule="evenodd" d="M46.724 209.085c-6.562 10.943-2.734 21.358 0 25.198 0-9.79 7.749-12.218 13.096-12.256q.45.017.92.017-.447-.021-.92-.017c-11.254-.428-12.815-8.734-13.096-12.942m3.235 12.598a2.94 2.94 0 1 0-5.88 0 2.94 2.94 0 0 0 5.88 0" clip-rule="evenodd"/><path fill="#474A56" fill-rule="evenodd" d="M45.968 230.279c.464-1.838 1.252-3.362 2.262-4.61a4.17 4.17 0 0 1-3.67-.625 22.5 22.5 0 0 0 1.408 5.235m-1.365-11.988a4.157 4.157 0 0 1 3.55-.616l-.004-.006c-1.034-1.498-1.664-3.119-2.053-4.635a23 23 0 0 0-1.493 5.257m6.442 2.322a4.17 4.17 0 0 1-.183 2.679 13.6 13.6 0 0 1 2.603-1.335 12.7 12.7 0 0 1-2.42-1.344m8.795.189c-5.264-.207-8.086-2.222-9.675-4.524-1.642-2.381-2.083-5.24-2.218-7.274a1.225 1.225 0 0 0-2.273-.549c-6.877 11.468-2.884 22.415.053 26.538a1.224 1.224 0 0 0 2.222-.71c0-4.517 1.76-7.189 4.023-8.784 2.324-1.636 5.31-2.225 7.83-2.247q.459.017.937.017a1.225 1.225 0 0 0 .055-2.449q-.464-.021-.954-.018m-14.536.881a1.715 1.715 0 1 0 3.43 0 1.715 1.715 0 0 0-3.43 0" clip-rule="evenodd"/><path fill="#F1F3F9" stroke="#B5BAC7" d="M118.7 61.152a4.4 4.4 0 0 1-4.669-4.392V31.659a4.4 4.4 0 0 1 4.669-4.392l23.273 1.429a4.4 4.4 0 0 1 4.13 4.391v22.246a4.4 4.4 0 0 1-4.13 4.391z"/><path fill="#F1F3F9" stroke="#B5BAC7" d="M121.648 63.86a2.911 2.911 0 1 1 0-5.821l15.992.281a2.63 2.63 0 0 1 0 5.258zM121.648 30.383a2.91 2.91 0 1 1 0-5.822l15.992.282a2.63 2.63 0 0 1 0 5.258z"/><rect width="14.924" height="3.9" x="144.653" y="51.671" fill="#F1F3F9" stroke="#B5BAC7" rx="1.95" transform="rotate(-90 144.653 51.671)"/><path fill="#5F2167" d="M125.889 48.356c-2.254 0-3.724-1.96-3.724-4.434 0-2.45 1.494-4.434 3.748-4.434 2.242 0 3.724 1.96 3.724 4.434 0 2.45-1.495 4.434-3.748 4.434m.024-1.36c1.335 0 2.168-1.36 2.168-3.074 0-1.69-.87-3.075-2.192-3.075s-2.168 1.348-2.168 3.075c0 1.69.857 3.074 2.192 3.074m9.464 1.213v-1.923h-4.324l-.282-1.078 4.765-5.634h1.286v5.475h1.225v1.237h-1.225v1.923zm-2.817-3.16h2.817v-3.393z"/><path fill="#F1F3F9" stroke="#B5BAC7" d="M118.7 117.573a4.4 4.4 0 0 1-4.669-4.392V88.079a4.4 4.4 0 0 1 4.669-4.391l23.273 1.428a4.4 4.4 0 0 1 4.13 4.391v22.246a4.4 4.4 0 0 1-4.13 4.391z"/><path fill="#F1F3F9" stroke="#B5BAC7" d="M121.648 120.281a2.911 2.911 0 1 1 0-5.821l15.992.281a2.63 2.63 0 0 1 0 5.258zM121.648 86.803a2.91 2.91 0 1 1 0-5.821l15.992.281a2.63 2.63 0 0 1 0 5.259z"/><rect width="14.924" height="3.9" x="144.653" y="108.092" fill="#F1F3F9" stroke="#B5BAC7" rx="1.95" transform="rotate(-90 144.653 108.092)"/><path fill="#5F2167" d="M126.831 104.777c-2.254 0-3.723-1.96-3.723-4.434 0-2.45 1.494-4.434 3.748-4.434 2.241 0 3.723 1.96 3.723 4.434 0 2.45-1.494 4.434-3.748 4.434m.025-1.36c1.335 0 2.168-1.359 2.168-3.074 0-1.69-.87-3.075-2.193-3.075s-2.168 1.348-2.168 3.075c0 1.69.858 3.074 2.193 3.074m8.107 1.36c-1.495 0-2.56-.625-3.283-1.507l1.053-.979c.613.722 1.299 1.126 2.254 1.126.845 0 1.482-.514 1.482-1.322 0-.846-.771-1.323-1.972-1.323h-.698l-.245-.944 2.315-2.462h-3.711v-1.31h5.671v1.127l-2.389 2.45c1.36.196 2.524.894 2.524 2.437 0 1.58-1.225 2.707-3.001 2.707"/><path fill="#F1F3F9" stroke="#B5BAC7" d="M118.7 197.994a4.4 4.4 0 0 1-4.669-4.392V168.5a4.4 4.4 0 0 1 4.669-4.391l23.273 1.428a4.4 4.4 0 0 1 4.13 4.391v22.246a4.4 4.4 0 0 1-4.13 4.391z"/><path fill="#F1F3F9" stroke="#B5BAC7" d="M121.648 200.702a2.911 2.911 0 1 1 0-5.821l15.992.281a2.63 2.63 0 0 1 0 5.258zM121.648 167.224a2.91 2.91 0 1 1 0-5.821l15.992.282a2.63 2.63 0 0 1 0 5.258z"/><rect width="14.924" height="3.9" x="144.653" y="188.513" fill="#F1F3F9" stroke="#B5BAC7" rx="1.95" transform="rotate(-90 144.653 188.513)"/><path fill="#5F2167" d="M126.861 185.198c-2.254 0-3.724-1.96-3.724-4.434 0-2.45 1.495-4.434 3.749-4.434 2.241 0 3.723 1.96 3.723 4.434 0 2.45-1.494 4.434-3.748 4.434m.025-1.36c1.335 0 2.168-1.359 2.168-3.074 0-1.69-.87-3.074-2.193-3.074s-2.168 1.347-2.168 3.074c0 1.69.857 3.074 2.193 3.074m4.897 1.213v-1.188l2.952-2.511c1.176-.992 1.605-1.543 1.605-2.315 0-.845-.6-1.335-1.384-1.335s-1.323.428-1.984 1.286l-1.066-.833c.821-1.151 1.629-1.801 3.16-1.801 1.678 0 2.83 1.029 2.83 2.585 0 1.347-.723 2.07-2.23 3.319l-1.763 1.47h4.078v1.323z"/><path fill="#F1F3F9" stroke="#B5BAC7" d="M118.7 254.415a4.4 4.4 0 0 1-4.669-4.392v-25.102a4.4 4.4 0 0 1 4.669-4.391l23.273 1.428a4.4 4.4 0 0 1 4.13 4.391v22.246a4.4 4.4 0 0 1-4.13 4.391z"/><path fill="#F1F3F9" stroke="#B5BAC7" d="M121.648 257.123a2.911 2.911 0 1 1 0-5.822l15.992.282a2.63 2.63 0 0 1 0 5.258zM121.648 223.645a2.91 2.91 0 1 1 0-5.821l15.992.282a2.63 2.63 0 0 1 0 5.258z"/><rect width="14.924" height="3.9" x="144.653" y="244.934" fill="#F1F3F9" stroke="#B5BAC7" rx="1.95" transform="rotate(-90 144.653 244.934)"/><path fill="#5F2167" d="M127.629 241.619c-2.254 0-3.724-1.96-3.724-4.434 0-2.45 1.495-4.434 3.749-4.434 2.241 0 3.723 1.96 3.723 4.434 0 2.45-1.494 4.434-3.748 4.434m.025-1.36c1.335 0 2.168-1.359 2.168-3.074 0-1.69-.87-3.074-2.193-3.074s-2.168 1.347-2.168 3.074c0 1.69.857 3.074 2.193 3.074m6.597 1.213v-7.104l-1.543.428-.319-1.224 2.303-.735h1.053v8.635z"/><path fill="#848CA2" stroke="#B5BAC7" d="M195.753 61.153a4.4 4.4 0 0 1-4.669-4.392V31.66a4.4 4.4 0 0 1 4.669-4.391l23.272 1.428a4.4 4.4 0 0 1 4.13 4.391v22.246a4.4 4.4 0 0 1-4.13 4.391z"/><path fill="#848CA2" stroke="#B5BAC7" d="M198.701 63.86a2.911 2.911 0 1 1 0-5.821l15.992.281a2.63 2.63 0 0 1 0 5.258zM198.701 30.382a2.911 2.911 0 1 1 0-5.821l15.992.282a2.63 2.63 0 0 1 0 5.258z"/><rect width="14.924" height="3.9" x="221.706" y="51.673" fill="#848CA2" stroke="#B5BAC7" rx="1.95" transform="rotate(-90 221.706 51.673)"/><path stroke="#E11F2A" stroke-linecap="round" stroke-width="1.837" d="M.919-.919h46.665" opacity=".35" transform="rotate(135 106.708 60.412)"/><path stroke="#E11F2A" stroke-linecap="round" stroke-width="1.837" d="M.919-.919h46.665" opacity=".35" transform="matrix(.7071 .7071 .7071 -.7071 190.584 27.675)"/><path fill="#fff" d="M203.751 48.357c-2.254 0-3.723-1.96-3.723-4.434 0-2.45 1.494-4.434 3.748-4.434 2.241 0 3.723 1.96 3.723 4.434 0 2.45-1.494 4.434-3.748 4.434m.025-1.36c1.335 0 2.168-1.359 2.168-3.074 0-1.69-.87-3.074-2.193-3.074s-2.168 1.347-2.168 3.074c0 1.69.858 3.075 2.193 3.075m8.275 1.336c-1.874 0-3.27-.98-3.27-2.474 0-1.042.576-1.69 1.543-2.095-.722-.38-1.249-.955-1.249-1.935 0-1.311 1.262-2.315 2.976-2.315 1.715 0 2.977.992 2.977 2.34 0 .955-.527 1.53-1.249 1.91.93.429 1.543 1.041 1.543 2.082 0 1.531-1.396 2.487-3.271 2.487m0-5.071c.882 0 1.532-.527 1.532-1.286 0-.662-.613-1.2-1.532-1.2-.918 0-1.531.538-1.531 1.212 0 .747.65 1.274 1.531 1.274m0 3.81c1.127 0 1.801-.577 1.801-1.312 0-.783-.784-1.298-1.801-1.298s-1.8.515-1.8 1.323c0 .698.674 1.286 1.8 1.286"/><path fill="#F1F3F9" stroke="#B5BAC7" d="M195.753 117.573a4.4 4.4 0 0 1-4.669-4.392V88.079a4.4 4.4 0 0 1 4.669-4.391l23.273 1.428a4.4 4.4 0 0 1 4.13 4.391v22.246a4.4 4.4 0 0 1-4.13 4.391z"/><path fill="#F1F3F9" stroke="#B5BAC7" d="M198.701 120.281a2.91 2.91 0 1 1 0-5.821l15.992.281a2.63 2.63 0 0 1 0 5.258zM198.701 86.803a2.911 2.911 0 1 1 0-5.821l15.992.281a2.63 2.63 0 0 1 0 5.259z"/><rect width="14.924" height="3.9" x="221.706" y="108.092" fill="#F1F3F9" stroke="#B5BAC7" rx="1.95" transform="rotate(-90 221.706 108.092)"/><path fill="#5F2167" d="M203.545 104.777c-2.254 0-3.723-1.96-3.723-4.434 0-2.45 1.494-4.434 3.748-4.434 2.241 0 3.723 1.96 3.723 4.434 0 2.45-1.494 4.434-3.748 4.434m.025-1.36c1.335 0 2.168-1.359 2.168-3.074 0-1.69-.87-3.075-2.193-3.075s-2.168 1.348-2.168 3.075c0 1.69.858 3.074 2.193 3.074m5.381 1.213 3.846-7.251h-4.312v-1.323h6.027v1.139l-3.871 7.435z"/><path fill="#848CA2" stroke="#B5BAC7" d="M195.753 197.995a4.4 4.4 0 0 1-4.669-4.392v-25.102a4.4 4.4 0 0 1 4.669-4.391l23.272 1.428a4.4 4.4 0 0 1 4.13 4.391v22.246a4.4 4.4 0 0 1-4.13 4.391z"/><path fill="#848CA2" stroke="#B5BAC7" d="M198.701 200.702a2.911 2.911 0 1 1 0-5.821l15.992.281a2.63 2.63 0 0 1 0 5.258zM198.701 167.224a2.911 2.911 0 1 1 0-5.821l15.992.281a2.63 2.63 0 0 1 0 5.259z"/><rect width="14.924" height="3.9" x="221.706" y="188.515" fill="#848CA2" stroke="#B5BAC7" rx="1.95" transform="rotate(-90 221.706 188.515)"/><path stroke="#E11F2A" stroke-linecap="round" stroke-width="1.837" d="M.919-.919h46.665" opacity=".35" transform="rotate(135 78.367 128.833)"/><path stroke="#E11F2A" stroke-linecap="round" stroke-width="1.837" d="M.919-.919h46.665" opacity=".35" transform="matrix(.7071 .7071 .7071 -.7071 190.584 164.517)"/><path fill="#fff" d="M203.59 185.199c-2.254 0-3.724-1.96-3.724-4.434 0-2.45 1.494-4.434 3.748-4.434 2.242 0 3.724 1.96 3.724 4.434 0 2.45-1.494 4.434-3.748 4.434m.024-1.359c1.335 0 2.168-1.36 2.168-3.075 0-1.69-.869-3.074-2.192-3.074s-2.168 1.347-2.168 3.074c0 1.691.857 3.075 2.192 3.075m8.545 1.359c-1.053 0-1.812-.33-2.376-.894-.661-.661-1.053-1.556-1.053-3.307 0-2.621 1.249-4.667 3.674-4.667 1.115 0 1.874.355 2.622.956l-.809 1.163c-.6-.465-1.114-.747-1.862-.747-1.273 0-1.984 1.151-2.057 2.719.453-.441 1.041-.857 2.045-.857 1.666 0 3.001.98 3.001 2.719 0 1.703-1.384 2.915-3.185 2.915m-.036-1.298c1.065 0 1.715-.674 1.715-1.58 0-.858-.686-1.495-1.752-1.495s-1.739.686-1.739 1.532c0 .869.698 1.543 1.776 1.543"/><path fill="#848CA2" stroke="#B5BAC7" d="M195.753 254.416a4.4 4.4 0 0 1-4.669-4.392v-25.102a4.4 4.4 0 0 1 4.669-4.391l23.272 1.428a4.4 4.4 0 0 1 4.13 4.391v22.246a4.4 4.4 0 0 1-4.13 4.391z"/><path fill="#848CA2" stroke="#B5BAC7" d="M198.701 257.123a2.911 2.911 0 1 1 0-5.822l15.992.282a2.63 2.63 0 0 1 0 5.258zM198.701 223.645a2.911 2.911 0 1 1 0-5.821l15.992.281a2.63 2.63 0 0 1 0 5.259z"/><rect width="14.924" height="3.9" x="221.706" y="244.936" fill="#848CA2" stroke="#B5BAC7" rx="1.95" transform="rotate(-90 221.706 244.936)"/><path stroke="#E11F2A" stroke-linecap="round" stroke-width="1.837" d="M.919-.919h46.665" opacity=".35" transform="rotate(135 66.682 157.043)"/><path stroke="#E11F2A" stroke-linecap="round" stroke-width="1.837" d="M.919-.919h46.665" opacity=".35" transform="matrix(.7071 .7071 .7071 -.7071 190.584 220.938)"/><path fill="#fff" d="M203.799 241.62c-2.254 0-3.724-1.96-3.724-4.434 0-2.45 1.495-4.434 3.749-4.434 2.241 0 3.723 1.96 3.723 4.434 0 2.45-1.494 4.434-3.748 4.434m.025-1.359c1.335 0 2.168-1.36 2.168-3.075 0-1.69-.87-3.074-2.193-3.074s-2.168 1.347-2.168 3.074c0 1.691.857 3.075 2.193 3.075m8.141 1.359c-1.311 0-2.34-.526-3.148-1.31l.931-1.091c.685.637 1.408 1.029 2.204 1.029 1.029 0 1.703-.588 1.703-1.506 0-.87-.735-1.421-1.776-1.421-.613 0-1.139.171-1.58.38l-.907-.601.245-4.201h5.12v1.335h-3.821l-.135 2.009a3.65 3.65 0 0 1 1.36-.245c1.665 0 2.976.882 2.976 2.719 0 1.752-1.274 2.903-3.172 2.903"/><path fill="#F1F3F9" stroke="#B5BAC7" d="M272.805 61.152a4.4 4.4 0 0 1-4.669-4.392V31.659a4.4 4.4 0 0 1 4.669-4.392l23.273 1.429a4.4 4.4 0 0 1 4.13 4.391v22.246a4.4 4.4 0 0 1-4.13 4.391z"/><path fill="#F1F3F9" stroke="#B5BAC7" d="M275.754 63.86a2.911 2.911 0 1 1 0-5.821l15.992.281a2.63 2.63 0 0 1 0 5.258zM275.753 30.383a2.911 2.911 0 1 1 0-5.822l15.992.282a2.63 2.63 0 0 1 0 5.258z"/><rect width="14.924" height="3.9" x="298.758" y="51.671" fill="#F1F3F9" stroke="#B5BAC7" rx="1.95" transform="rotate(-90 298.758 51.671)"/><path fill="#5F2167" d="M280.669 48.21v-7.105l-1.544.428-.318-1.224 2.303-.735h1.053v8.635zm3.276 0v-1.19l2.952-2.51c1.176-.992 1.604-1.543 1.604-2.315 0-.845-.6-1.335-1.384-1.335s-1.323.428-1.984 1.286l-1.066-.833c.821-1.151 1.63-1.8 3.161-1.8 1.678 0 2.829 1.028 2.829 2.584 0 1.347-.723 2.07-2.229 3.32l-1.764 1.47h4.079v1.322z"/><path fill="#F1F3F9" stroke="#B5BAC7" d="M272.805 117.573a4.4 4.4 0 0 1-4.669-4.392V88.079a4.4 4.4 0 0 1 4.669-4.391l23.273 1.428a4.4 4.4 0 0 1 4.13 4.391v22.246a4.4 4.4 0 0 1-4.13 4.391z"/><path fill="#F1F3F9" stroke="#B5BAC7" d="M275.754 120.281a2.911 2.911 0 1 1 0-5.821l15.992.281a2.63 2.63 0 0 1 0 5.258zM275.753 86.803a2.911 2.911 0 1 1 0-5.821l15.992.281a2.63 2.63 0 0 1 0 5.259z"/><rect width="14.924" height="3.9" x="298.758" y="108.092" fill="#F1F3F9" stroke="#B5BAC7" rx="1.95" transform="rotate(-90 298.758 108.092)"/><path fill="#5F2167" d="M281.496 104.63v-7.104l-1.543.428-.319-1.224 2.303-.735h1.054v8.635zm4.857 0v-7.104l-1.544.428-.318-1.224 2.303-.735h1.053v8.635z"/><path fill="#F1F3F9" stroke="#B5BAC7" d="M272.805 197.994a4.4 4.4 0 0 1-4.669-4.392V168.5a4.4 4.4 0 0 1 4.669-4.391l23.273 1.428a4.4 4.4 0 0 1 4.13 4.391v22.246a4.4 4.4 0 0 1-4.13 4.391z"/><path fill="#F1F3F9" stroke="#B5BAC7" d="M275.754 200.702a2.911 2.911 0 1 1 0-5.821l15.992.281a2.63 2.63 0 0 1 0 5.258zM275.753 167.224a2.91 2.91 0 1 1 0-5.821l15.992.282a2.63 2.63 0 0 1 0 5.258z"/><rect width="14.924" height="3.9" x="298.758" y="188.513" fill="#F1F3F9" stroke="#B5BAC7" rx="1.95" transform="rotate(-90 298.758 188.513)"/><path fill="#5F2167" d="M279.493 185.051v-7.104l-1.544.428-.318-1.224 2.303-.735h1.053v8.635zm7.098.147c-2.254 0-3.724-1.96-3.724-4.434 0-2.45 1.494-4.434 3.748-4.434 2.242 0 3.724 1.96 3.724 4.434 0 2.45-1.494 4.434-3.748 4.434m.024-1.36c1.335 0 2.168-1.359 2.168-3.074 0-1.69-.869-3.074-2.192-3.074s-2.168 1.347-2.168 3.074c0 1.69.857 3.074 2.192 3.074"/><path fill="#F1F3F9" stroke="#B5BAC7" d="M272.805 254.415a4.4 4.4 0 0 1-4.669-4.392v-25.102a4.4 4.4 0 0 1 4.669-4.391l23.273 1.428a4.4 4.4 0 0 1 4.13 4.391v22.246a4.4 4.4 0 0 1-4.13 4.391z"/><path fill="#F1F3F9" stroke="#B5BAC7" d="M275.754 257.123a2.911 2.911 0 1 1 0-5.822l15.992.282a2.63 2.63 0 0 1 0 5.258zM275.753 223.645a2.91 2.91 0 1 1 0-5.821l15.992.282a2.63 2.63 0 0 1 0 5.258z"/><rect width="14.924" height="3.9" x="298.758" y="244.934" fill="#F1F3F9" stroke="#B5BAC7" rx="1.95" transform="rotate(-90 298.758 244.934)"/><path fill="#5F2167" d="M280.643 241.619c-2.253 0-3.723-1.96-3.723-4.434 0-2.45 1.494-4.434 3.748-4.434 2.241 0 3.723 1.96 3.723 4.434 0 2.45-1.494 4.434-3.748 4.434m.025-1.36c1.335 0 2.168-1.359 2.168-3.074 0-1.69-.87-3.074-2.193-3.074s-2.168 1.347-2.168 3.074c0 1.69.858 3.074 2.193 3.074m8.08 1.36c-1.189 0-2.021-.429-2.744-1.029l.82-1.151c.65.551 1.225.808 1.96.808 1.262 0 2.021-1.114 2.07-2.695-.428.515-1.09.907-2.008.907-1.826 0-3.038-1.066-3.038-2.744s1.298-2.964 3.197-2.964c1.078 0 1.776.306 2.376.906.637.637 1.041 1.58 1.041 3.295 0 2.756-1.372 4.667-3.674 4.667m.318-4.422c1.09 0 1.739-.71 1.739-1.568 0-.894-.698-1.58-1.788-1.58-1.066 0-1.703.711-1.703 1.617 0 .894.686 1.531 1.752 1.531"/><path fill="#F1F3F9" stroke="#B5BAC7" d="M349.858 61.152a4.4 4.4 0 0 1-4.669-4.392V31.659a4.4 4.4 0 0 1 4.669-4.392l23.273 1.429a4.4 4.4 0 0 1 4.13 4.391v22.246a4.4 4.4 0 0 1-4.13 4.391z"/><path fill="#F1F3F9" stroke="#B5BAC7" d="M352.806 63.86a2.911 2.911 0 1 1 0-5.821l15.992.281a2.63 2.63 0 0 1 0 5.258zM352.806 30.383a2.91 2.91 0 1 1 0-5.822l15.992.282a2.63 2.63 0 0 1 0 5.258z"/><rect width="14.924" height="3.9" x="375.811" y="51.671" fill="#F1F3F9" stroke="#B5BAC7" rx="1.95" transform="rotate(-90 375.811 51.671)"/><path fill="#5F2167" d="M357.458 48.21v-7.105l-1.543.428-.319-1.224 2.303-.735h1.053v8.635zm6.804.146c-1.053 0-1.813-.33-2.376-.894-.662-.662-1.054-1.556-1.054-3.307 0-2.622 1.25-4.667 3.675-4.667 1.115 0 1.874.355 2.621.955l-.808 1.164c-.6-.465-1.115-.747-1.862-.747-1.274 0-1.984 1.151-2.058 2.719.453-.44 1.041-.857 2.046-.857 1.666 0 3.001.98 3.001 2.719 0 1.702-1.384 2.915-3.185 2.915m-.037-1.298c1.066 0 1.715-.674 1.715-1.58 0-.858-.686-1.495-1.751-1.495-1.066 0-1.74.686-1.74 1.531 0 .87.698 1.544 1.776 1.544"/><path fill="#F1F3F9" stroke="#B5BAC7" d="M349.858 117.573a4.4 4.4 0 0 1-4.669-4.392V88.079a4.4 4.4 0 0 1 4.669-4.391l23.273 1.428a4.4 4.4 0 0 1 4.13 4.391v22.246a4.4 4.4 0 0 1-4.13 4.391z"/><path fill="#F1F3F9" stroke="#B5BAC7" d="M352.806 120.281a2.911 2.911 0 1 1 0-5.821l15.992.281a2.63 2.63 0 0 1 0 5.258zM352.806 86.803a2.91 2.91 0 1 1 0-5.821l15.992.281a2.63 2.63 0 0 1 0 5.259z"/><rect width="14.924" height="3.9" x="375.811" y="108.092" fill="#F1F3F9" stroke="#B5BAC7" rx="1.95" transform="rotate(-90 375.811 108.092)"/><path fill="#5F2167" d="M357.667 104.63v-7.104l-1.543.428-.318-1.224 2.302-.735h1.054v8.635zm6.4.147c-1.31 0-2.339-.527-3.148-1.311l.931-1.09c.686.637 1.409 1.029 2.205 1.029 1.029 0 1.702-.588 1.702-1.506 0-.87-.734-1.421-1.776-1.421a3.7 3.7 0 0 0-1.58.379l-.906-.6.245-4.201h5.12v1.335h-3.822l-.134 2.009a3.6 3.6 0 0 1 1.359-.245c1.666 0 2.977.882 2.977 2.719 0 1.752-1.274 2.903-3.173 2.903"/><path fill="#848CA2" stroke="#B5BAC7" d="M349.858 197.995a4.4 4.4 0 0 1-4.669-4.392v-25.102a4.4 4.4 0 0 1 4.669-4.391l23.273 1.428a4.4 4.4 0 0 1 4.13 4.391v22.246a4.4 4.4 0 0 1-4.13 4.391z"/><path fill="#848CA2" stroke="#B5BAC7" d="M352.806 200.702a2.91 2.91 0 1 1 0-5.821l15.992.281a2.63 2.63 0 0 1 0 5.258zM352.806 167.224a2.91 2.91 0 1 1 0-5.821l15.992.281a2.63 2.63 0 0 1 0 5.259z"/><rect width="14.924" height="3.9" x="375.811" y="188.515" fill="#848CA2" stroke="#B5BAC7" rx="1.95" transform="rotate(-90 375.811 188.515)"/><path stroke="#E11F2A" stroke-linecap="round" stroke-width="1.837" d="M.919-.919h46.665" opacity=".35" transform="rotate(135 155.42 160.75)"/><path stroke="#E11F2A" stroke-linecap="round" stroke-width="1.837" d="M.919-.919h46.665" opacity=".35" transform="matrix(.7071 .7071 .7071 -.7071 344.689 164.517)"/><path fill="#fff" d="M356.808 185.052v-7.104l-1.544.429-.318-1.225 2.302-.735h1.054v8.635zm7.722 0v-1.923h-4.324l-.281-1.078 4.764-5.634h1.287v5.475h1.224v1.237h-1.224v1.923zm-2.817-3.16h2.817v-3.393z"/><path fill="#F1F3F9" stroke="#B5BAC7" d="M349.858 254.415a4.4 4.4 0 0 1-4.669-4.392v-25.102a4.4 4.4 0 0 1 4.669-4.391l23.273 1.428a4.4 4.4 0 0 1 4.13 4.391v22.246a4.4 4.4 0 0 1-4.13 4.391z"/><path fill="#F1F3F9" stroke="#B5BAC7" d="M352.806 257.123a2.911 2.911 0 1 1 0-5.822l15.992.282a2.63 2.63 0 0 1 0 5.258zM352.806 223.645a2.91 2.91 0 1 1 0-5.821l15.992.282a2.629 2.629 0 0 1 0 5.258z"/><rect width="14.924" height="3.9" x="375.811" y="244.934" fill="#F1F3F9" stroke="#B5BAC7" rx="1.95" transform="rotate(-90 375.811 244.934)"/><path fill="#5F2167" d="M357.691 241.472v-7.104l-1.543.428-.319-1.224 2.303-.735h1.054v8.635zm6.486.147c-1.495 0-2.56-.625-3.283-1.507l1.054-.979c.612.722 1.298 1.126 2.253 1.126.845 0 1.482-.514 1.482-1.322 0-.846-.771-1.323-1.972-1.323h-.698l-.245-.943 2.315-2.463h-3.711v-1.31h5.671v1.127l-2.388 2.45c1.359.196 2.523.894 2.523 2.437 0 1.58-1.225 2.707-3.001 2.707"/><path fill="#F1F3F9" stroke="#B5BAC7" d="M426.911 61.152a4.4 4.4 0 0 1-4.669-4.392V31.659a4.4 4.4 0 0 1 4.669-4.392l23.272 1.429a4.4 4.4 0 0 1 4.13 4.391v22.246a4.4 4.4 0 0 1-4.13 4.391z"/><path fill="#F1F3F9" stroke="#B5BAC7" d="M429.859 63.86a2.911 2.911 0 1 1 0-5.821l15.992.281a2.63 2.63 0 0 1 0 5.258zM429.859 30.383a2.911 2.911 0 1 1 0-5.822l15.992.282a2.63 2.63 0 0 1 0 5.258z"/><rect width="14.924" height="3.9" x="452.864" y="51.671" fill="#F1F3F9" stroke="#B5BAC7" rx="1.95" transform="rotate(-90 452.864 51.671)"/><path fill="#5F2167" d="M431.19 48.21v-1.19l2.952-2.51c1.176-.992 1.605-1.543 1.605-2.315 0-.845-.601-1.335-1.384-1.335-.784 0-1.323.428-1.985 1.286l-1.065-.833c.82-1.151 1.629-1.8 3.16-1.8 1.678 0 2.829 1.028 2.829 2.584 0 1.347-.722 2.07-2.229 3.32l-1.764 1.47h4.079v1.322zm11.334.146c-2.254 0-3.724-1.96-3.724-4.434 0-2.45 1.494-4.434 3.748-4.434 2.242 0 3.724 1.96 3.724 4.434 0 2.45-1.495 4.434-3.748 4.434m.024-1.36c1.335 0 2.168-1.36 2.168-3.074 0-1.69-.869-3.075-2.192-3.075s-2.168 1.348-2.168 3.075c0 1.69.857 3.074 2.192 3.074"/><path fill="#848CA2" stroke="#B5BAC7" d="M426.91 117.574a4.4 4.4 0 0 1-4.669-4.392V88.08a4.4 4.4 0 0 1 4.669-4.391l23.273 1.428a4.4 4.4 0 0 1 4.13 4.391v22.246a4.4 4.4 0 0 1-4.13 4.391z"/><path fill="#848CA2" stroke="#B5BAC7" d="M429.859 120.281a2.911 2.911 0 1 1 0-5.821l15.992.281a2.63 2.63 0 0 1 0 5.258zM429.859 86.803a2.911 2.911 0 1 1 0-5.821l15.992.281a2.63 2.63 0 0 1 0 5.259z"/><rect width="14.924" height="3.9" x="452.864" y="108.094" fill="#848CA2" stroke="#B5BAC7" rx="1.95" transform="rotate(-90 452.864 108.094)"/><path stroke="#E11F2A" stroke-linecap="round" stroke-width="1.837" d="M.919-.919h46.665" opacity=".35" transform="rotate(135 210.602 136.497)"/><path stroke="#E11F2A" stroke-linecap="round" stroke-width="1.837" d="M.919-.919h46.665" opacity=".35" transform="matrix(.7071 .7071 .7071 -.7071 421.741 84.096)"/><path fill="#fff" d="M434.51 104.631v-7.104l-1.544.429-.318-1.225 2.303-.735h1.053v8.635zm6.338.147c-1.188 0-2.021-.428-2.744-1.029l.821-1.151c.649.551 1.225.808 1.96.808 1.262 0 2.021-1.114 2.07-2.694-.429.514-1.09.906-2.009.906-1.825 0-3.037-1.066-3.037-2.744s1.298-2.964 3.196-2.964c1.078 0 1.777.306 2.377.907.637.637 1.041 1.58 1.041 3.294 0 2.756-1.372 4.667-3.675 4.667m.319-4.422c1.09 0 1.739-.71 1.739-1.567 0-.895-.698-1.58-1.788-1.58-1.066 0-1.703.71-1.703 1.616 0 .894.686 1.531 1.752 1.531"/><path fill="#F1F3F9" stroke="#B5BAC7" d="M426.911 197.994a4.4 4.4 0 0 1-4.669-4.392V168.5a4.4 4.4 0 0 1 4.669-4.391l23.272 1.428a4.4 4.4 0 0 1 4.13 4.391v22.246a4.4 4.4 0 0 1-4.13 4.391z"/><path fill="#F1F3F9" stroke="#B5BAC7" d="M429.859 200.702a2.911 2.911 0 1 1 0-5.821l15.992.281a2.63 2.63 0 0 1 0 5.258zM429.859 167.224a2.91 2.91 0 1 1 0-5.821l15.992.282a2.629 2.629 0 0 1 0 5.258z"/><rect width="14.924" height="3.9" x="452.864" y="188.513" fill="#F1F3F9" stroke="#B5BAC7" rx="1.95" transform="rotate(-90 452.864 188.513)"/><path fill="#5F2167" d="M434.672 185.051v-7.104l-1.543.428-.319-1.224 2.303-.735h1.053v8.635zm6.535.123c-1.874 0-3.271-.98-3.271-2.475 0-1.041.576-1.69 1.544-2.094-.723-.38-1.25-.956-1.25-1.936 0-1.31 1.262-2.315 2.977-2.315s2.976.993 2.976 2.34c0 .955-.527 1.531-1.249 1.911.931.428 1.543 1.041 1.543 2.082 0 1.531-1.396 2.487-3.27 2.487m0-5.071c.882 0 1.531-.527 1.531-1.287 0-.661-.613-1.2-1.531-1.2-.919 0-1.531.539-1.531 1.213 0 .747.649 1.274 1.531 1.274m0 3.809c1.127 0 1.8-.576 1.8-1.311 0-.784-.784-1.298-1.8-1.298s-1.801.514-1.801 1.323c0 .698.674 1.286 1.801 1.286"/><path fill="#F1F3F9" stroke="#B5BAC7" d="M426.911 254.415a4.4 4.4 0 0 1-4.669-4.392v-25.102a4.4 4.4 0 0 1 4.669-4.391l23.272 1.428a4.4 4.4 0 0 1 4.13 4.391v22.246a4.4 4.4 0 0 1-4.13 4.391z"/><path fill="#F1F3F9" stroke="#B5BAC7" d="M429.859 257.123a2.911 2.911 0 1 1 0-5.822l15.992.282a2.63 2.63 0 0 1 0 5.258zM429.859 223.645a2.91 2.91 0 1 1 0-5.821l15.992.282a2.629 2.629 0 0 1 0 5.258z"/><rect width="14.924" height="3.9" x="452.864" y="244.934" fill="#F1F3F9" stroke="#B5BAC7" rx="1.95" transform="rotate(-90 452.864 244.934)"/><path fill="#5F2167" d="M434.798 241.472v-7.104l-1.544.428-.318-1.224 2.303-.735h1.053v8.635zm3.974 0 3.846-7.251h-4.311v-1.323h6.026v1.139l-3.87 7.435z"/><path fill="#F1F3F9" stroke="#B5BAC7" d="M503.963 61.152a4.4 4.4 0 0 1-4.669-4.392V31.659a4.4 4.4 0 0 1 4.669-4.392l23.273 1.429a4.4 4.4 0 0 1 4.13 4.391v22.246a4.4 4.4 0 0 1-4.13 4.391z"/><path fill="#F1F3F9" stroke="#B5BAC7" d="M506.911 63.86a2.911 2.911 0 1 1 0-5.821l15.993.281a2.63 2.63 0 0 1 0 5.258zM506.911 30.383a2.911 2.911 0 1 1 0-5.822l15.992.282a2.63 2.63 0 0 1 0 5.258z"/><rect width="14.924" height="3.9" x="529.916" y="51.671" fill="#F1F3F9" stroke="#B5BAC7" rx="1.95" transform="rotate(-90 529.916 51.671)"/><path fill="#5F2167" d="M508.125 48.21v-1.19l2.952-2.51c1.176-.992 1.605-1.543 1.605-2.315 0-.845-.6-1.335-1.384-1.335s-1.323.428-1.984 1.286l-1.066-.833c.821-1.151 1.629-1.8 3.16-1.8 1.678 0 2.83 1.028 2.83 2.584 0 1.347-.723 2.07-2.23 3.32l-1.763 1.47h4.078v1.322zm11.72 0v-1.924h-4.324l-.282-1.078 4.765-5.634h1.286v5.475h1.225v1.237h-1.225v1.923zm-2.818-3.161h2.818v-3.393z"/><path fill="#F1F3F9" stroke="#B5BAC7" d="M503.963 117.573a4.4 4.4 0 0 1-4.669-4.392V88.079a4.4 4.4 0 0 1 4.669-4.391l23.273 1.428a4.4 4.4 0 0 1 4.13 4.391v22.246a4.4 4.4 0 0 1-4.13 4.391z"/><path fill="#F1F3F9" stroke="#B5BAC7" d="M506.911 120.281a2.911 2.911 0 1 1 0-5.821l15.993.281a2.63 2.63 0 0 1 0 5.258zM506.911 86.803a2.911 2.911 0 1 1 0-5.821l15.992.281a2.63 2.63 0 0 1 0 5.259z"/><rect width="14.924" height="3.9" x="529.916" y="108.092" fill="#F1F3F9" stroke="#B5BAC7" rx="1.95" transform="rotate(-90 529.916 108.092)"/><path fill="#5F2167" d="M508.389 104.63v-1.188l2.952-2.511c1.175-.992 1.604-1.543 1.604-2.315 0-.845-.6-1.335-1.384-1.335s-1.323.428-1.984 1.286l-1.066-.833c.821-1.151 1.629-1.8 3.16-1.8 1.678 0 2.83 1.028 2.83 2.584 0 1.347-.723 2.07-2.229 3.319l-1.764 1.47h4.079v1.323zm10.721.147c-1.495 0-2.56-.625-3.283-1.507l1.054-.979c.612.722 1.298 1.126 2.253 1.126.845 0 1.482-.514 1.482-1.322 0-.846-.771-1.323-1.972-1.323h-.698l-.245-.944 2.315-2.462h-3.711v-1.31h5.671v1.127l-2.388 2.45c1.359.196 2.523.894 2.523 2.437 0 1.58-1.225 2.707-3.001 2.707"/><path fill="#848CA2" stroke="#B5BAC7" d="M503.963 197.995a4.4 4.4 0 0 1-4.669-4.392v-25.102a4.4 4.4 0 0 1 4.669-4.391l23.273 1.428a4.4 4.4 0 0 1 4.13 4.391v22.246a4.4 4.4 0 0 1-4.13 4.391z"/><path fill="#848CA2" stroke="#B5BAC7" d="M506.911 200.702a2.911 2.911 0 1 1 0-5.821l15.992.281a2.63 2.63 0 0 1 0 5.258zM506.911 167.224a2.91 2.91 0 1 1 0-5.821l15.992.281a2.63 2.63 0 0 1 0 5.259z"/><rect width="14.924" height="3.9" x="529.916" y="188.515" fill="#848CA2" stroke="#B5BAC7" rx="1.95" transform="rotate(-90 529.916 188.515)"/><path stroke="#E11F2A" stroke-linecap="round" stroke-width="1.837" d="M.919-.919h46.665" opacity=".35" transform="rotate(135 232.473 192.665)"/><path stroke="#E11F2A" stroke-linecap="round" stroke-width="1.837" d="M.919-.919h46.665" opacity=".35" transform="matrix(.7071 .7071 .7071 -.7071 498.794 164.517)"/><path fill="#fff" d="M508.418 185.052v-1.188l2.952-2.511c1.175-.992 1.604-1.543 1.604-2.315 0-.845-.6-1.335-1.384-1.335s-1.323.429-1.984 1.286l-1.066-.833c.821-1.151 1.629-1.8 3.16-1.8 1.678 0 2.83 1.029 2.83 2.584 0 1.347-.723 2.07-2.23 3.32l-1.763 1.469h4.078v1.323zm7.512 0v-1.188l2.952-2.511c1.175-.992 1.604-1.543 1.604-2.315 0-.845-.6-1.335-1.384-1.335s-1.323.429-1.984 1.286l-1.066-.833c.821-1.151 1.629-1.8 3.16-1.8 1.678 0 2.83 1.029 2.83 2.584 0 1.347-.723 2.07-2.23 3.32l-1.763 1.469h4.078v1.323z"/><path fill="#F1F3F9" stroke="#B5BAC7" d="M503.963 254.415a4.4 4.4 0 0 1-4.669-4.392v-25.102a4.4 4.4 0 0 1 4.669-4.391l23.273 1.428a4.4 4.4 0 0 1 4.13 4.391v22.246a4.4 4.4 0 0 1-4.13 4.391z"/><path fill="#F1F3F9" stroke="#B5BAC7" d="M506.911 257.123a2.911 2.911 0 1 1 0-5.822l15.993.282a2.63 2.63 0 0 1 0 5.258zM506.911 223.645a2.91 2.91 0 1 1 0-5.821l15.992.282a2.63 2.63 0 0 1 0 5.258z"/><rect width="14.924" height="3.9" x="529.916" y="244.934" fill="#F1F3F9" stroke="#B5BAC7" rx="1.95" transform="rotate(-90 529.916 244.934)"/><path fill="#5F2167" d="M510.246 241.472v-1.188l2.952-2.511c1.176-.992 1.605-1.543 1.605-2.315 0-.845-.6-1.335-1.384-1.335s-1.323.428-1.985 1.286l-1.065-.833c.82-1.151 1.629-1.801 3.16-1.801 1.678 0 2.829 1.029 2.829 2.585 0 1.347-.722 2.07-2.229 3.319l-1.764 1.47h4.079v1.323zm9.092 0v-7.104l-1.543.428-.318-1.224 2.302-.735h1.054v8.635z"/><path fill="#F1F3F9" stroke="#B5BAC7" d="M581.016 61.152a4.4 4.4 0 0 1-4.669-4.392V31.659a4.4 4.4 0 0 1 4.669-4.392l23.273 1.429a4.4 4.4 0 0 1 4.13 4.391v22.246a4.4 4.4 0 0 1-4.13 4.391z"/><path fill="#F1F3F9" stroke="#B5BAC7" d="M583.964 63.86a2.911 2.911 0 1 1 0-5.821l15.992.281a2.63 2.63 0 0 1 0 5.258zM583.964 30.383a2.911 2.911 0 1 1 0-5.822l15.992.282a2.63 2.63 0 0 1 0 5.258z"/><rect width="14.924" height="3.9" x="606.969" y="51.671" fill="#F1F3F9" stroke="#B5BAC7" rx="1.95" transform="rotate(-90 606.969 51.671)"/><path fill="#5F2167" d="M585.37 48.21v-1.19l2.952-2.51c1.175-.992 1.604-1.543 1.604-2.315 0-.845-.6-1.335-1.384-1.335s-1.323.428-1.984 1.286l-1.066-.833c.821-1.151 1.629-1.8 3.16-1.8 1.678 0 2.83 1.028 2.83 2.584 0 1.347-.723 2.07-2.23 3.32l-1.763 1.47h4.079v1.322zm10.77.122c-1.874 0-3.271-.98-3.271-2.475 0-1.04.576-1.69 1.544-2.094-.723-.38-1.25-.956-1.25-1.936 0-1.31 1.262-2.315 2.977-2.315s2.976.993 2.976 2.34c0 .955-.526 1.531-1.249 1.91.931.43 1.543 1.042 1.543 2.083 0 1.531-1.396 2.487-3.27 2.487m0-5.071c.882 0 1.531-.527 1.531-1.287 0-.661-.613-1.2-1.531-1.2-.919 0-1.531.539-1.531 1.213 0 .747.649 1.274 1.531 1.274m0 3.809c1.127 0 1.8-.576 1.8-1.31 0-.785-.784-1.3-1.8-1.3s-1.801.515-1.801 1.324c0 .698.674 1.286 1.801 1.286"/><path fill="#848CA2" stroke="#B5BAC7" d="M581.016 117.574a4.4 4.4 0 0 1-4.669-4.392V88.08a4.4 4.4 0 0 1 4.669-4.391l23.273 1.428a4.4 4.4 0 0 1 4.13 4.391v22.246a4.4 4.4 0 0 1-4.13 4.391z"/><path fill="#848CA2" stroke="#B5BAC7" d="M583.964 120.281a2.91 2.91 0 1 1 0-5.821l15.992.281a2.63 2.63 0 0 1 0 5.258zM583.964 86.803a2.91 2.91 0 1 1 0-5.821l15.992.281a2.63 2.63 0 0 1 0 5.259z"/><rect width="14.924" height="3.9" x="606.969" y="108.094" fill="#848CA2" stroke="#B5BAC7" rx="1.95" transform="rotate(-90 606.969 108.094)"/><path stroke="#E11F2A" stroke-linecap="round" stroke-width="1.837" d="M.919-.919h46.665" opacity=".35" transform="rotate(135 287.655 168.413)"/><path stroke="#E11F2A" stroke-linecap="round" stroke-width="1.837" d="M.919-.919h46.665" opacity=".35" transform="matrix(.7071 .7071 .7071 -.7071 575.847 84.096)"/><path fill="#fff" d="M585.994 104.631v-1.188l2.952-2.511c1.176-.992 1.605-1.543 1.605-2.315 0-.845-.6-1.335-1.384-1.335s-1.323.429-1.985 1.286l-1.065-.833c.82-1.151 1.629-1.8 3.16-1.8 1.678 0 2.829 1.028 2.829 2.584 0 1.347-.722 2.07-2.229 3.32l-1.764 1.469h4.079v1.323zm8.21 0 3.847-7.251h-4.312v-1.323h6.026v1.14l-3.87 7.434z"/><path fill="#F1F3F9" stroke="#B5BAC7" d="M581.016 197.994a4.4 4.4 0 0 1-4.669-4.392V168.5a4.4 4.4 0 0 1 4.669-4.391l23.273 1.428a4.4 4.4 0 0 1 4.13 4.391v22.246a4.4 4.4 0 0 1-4.13 4.391z"/><path fill="#F1F3F9" stroke="#B5BAC7" d="M583.964 200.702a2.911 2.911 0 1 1 0-5.821l15.992.281a2.63 2.63 0 0 1 0 5.258zM583.964 167.224a2.91 2.91 0 1 1 0-5.821l15.992.282a2.629 2.629 0 0 1 0 5.258z"/><rect width="14.924" height="3.9" x="606.969" y="188.513" fill="#F1F3F9" stroke="#B5BAC7" rx="1.95" transform="rotate(-90 606.969 188.513)"/><path fill="#5F2167" d="M585.208 185.051v-1.188l2.952-2.511c1.176-.992 1.605-1.543 1.605-2.315 0-.845-.601-1.335-1.384-1.335-.784 0-1.323.428-1.985 1.286l-1.065-.833c.82-1.151 1.629-1.801 3.16-1.801 1.678 0 2.829 1.029 2.829 2.585 0 1.347-.722 2.07-2.229 3.319l-1.764 1.47h4.079v1.323zm11.04.147c-1.054 0-1.813-.331-2.377-.894-.661-.662-1.053-1.556-1.053-3.307 0-2.622 1.249-4.667 3.675-4.667 1.114 0 1.874.355 2.621.955l-.808 1.164c-.601-.466-1.115-.747-1.862-.747-1.274 0-1.985 1.151-2.058 2.719.453-.441 1.041-.857 2.045-.857 1.666 0 3.001.979 3.001 2.719 0 1.702-1.384 2.915-3.184 2.915m-.037-1.298c1.066 0 1.715-.674 1.715-1.58 0-.858-.686-1.495-1.752-1.495s-1.739.686-1.739 1.531c0 .87.698 1.544 1.776 1.544"/><path fill="#F1F3F9" stroke="#B5BAC7" d="M581.016 254.415a4.4 4.4 0 0 1-4.669-4.392v-25.102a4.4 4.4 0 0 1 4.669-4.391l23.273 1.428a4.4 4.4 0 0 1 4.13 4.391v22.246a4.4 4.4 0 0 1-4.13 4.391z"/><path fill="#F1F3F9" stroke="#B5BAC7" d="M583.964 257.123a2.911 2.911 0 1 1 0-5.822l15.992.282a2.63 2.63 0 0 1 0 5.258zM583.964 223.645a2.91 2.91 0 1 1 0-5.821l15.992.282a2.629 2.629 0 0 1 0 5.258z"/><rect width="14.924" height="3.9" x="606.969" y="244.934" fill="#F1F3F9" stroke="#B5BAC7" rx="1.95" transform="rotate(-90 606.969 244.934)"/><path fill="#5F2167" d="M585.417 241.472v-1.188l2.952-2.511c1.176-.992 1.605-1.543 1.605-2.315 0-.845-.6-1.335-1.384-1.335s-1.323.428-1.984 1.286l-1.066-.833c.821-1.151 1.629-1.801 3.16-1.801 1.678 0 2.83 1.029 2.83 2.585 0 1.347-.723 2.07-2.23 3.319l-1.764 1.47h4.079v1.323zm10.636.147c-1.311 0-2.34-.527-3.148-1.311l.931-1.09c.686.637 1.408 1.029 2.205 1.029 1.029 0 1.702-.588 1.702-1.506 0-.87-.735-1.421-1.776-1.421a3.7 3.7 0 0 0-1.58.379l-.906-.6.245-4.201h5.12v1.335h-3.822l-.135 2.009a3.65 3.65 0 0 1 1.36-.245c1.666 0 2.976.882 2.976 2.719 0 1.752-1.274 2.903-3.172 2.903"/><path fill="#F1F3F9" stroke="#B5BAC7" d="M658.068 61.152a4.4 4.4 0 0 1-4.669-4.392V31.659a4.4 4.4 0 0 1 4.669-4.392l23.273 1.429a4.4 4.4 0 0 1 4.13 4.391v22.246a4.4 4.4 0 0 1-4.13 4.391z"/><path fill="#F1F3F9" stroke="#B5BAC7" d="M661.017 63.86a2.911 2.911 0 1 1 0-5.821l15.992.281a2.63 2.63 0 0 1 0 5.258zM661.016 30.383a2.911 2.911 0 1 1 0-5.822l15.992.282a2.63 2.63 0 0 1 0 5.258z"/><rect width="14.924" height="3.9" x="684.021" y="51.671" fill="#F1F3F9" stroke="#B5BAC7" rx="1.95" transform="rotate(-90 684.021 51.671)"/><path fill="#5F2167" d="M665.703 48.356c-1.494 0-2.56-.625-3.283-1.507l1.054-.98c.612.723 1.298 1.127 2.254 1.127.845 0 1.482-.514 1.482-1.322 0-.846-.772-1.323-1.972-1.323h-.699l-.245-.944 2.315-2.461h-3.711v-1.311h5.671v1.127l-2.388 2.45c1.359.195 2.523.894 2.523 2.437 0 1.58-1.225 2.707-3.001 2.707m4.363-.147v-1.188l2.952-2.511c1.175-.992 1.604-1.543 1.604-2.315 0-.845-.6-1.335-1.384-1.335s-1.323.428-1.984 1.286l-1.066-.833c.821-1.151 1.629-1.8 3.16-1.8 1.678 0 2.83 1.028 2.83 2.584 0 1.347-.723 2.07-2.229 3.32l-1.764 1.47h4.079v1.322z"/><path fill="#F1F3F9" stroke="#B5BAC7" d="M658.068 117.573a4.4 4.4 0 0 1-4.669-4.392V88.079a4.4 4.4 0 0 1 4.669-4.391l23.273 1.428a4.4 4.4 0 0 1 4.13 4.391v22.246a4.4 4.4 0 0 1-4.13 4.391z"/><path fill="#F1F3F9" stroke="#B5BAC7" d="M661.017 120.281a2.911 2.911 0 1 1 0-5.821l15.992.281a2.63 2.63 0 0 1 0 5.258zM661.016 86.803a2.911 2.911 0 1 1 0-5.821l15.992.281a2.63 2.63 0 0 1 0 5.259z"/><rect width="14.924" height="3.9" x="684.021" y="108.092" fill="#F1F3F9" stroke="#B5BAC7" rx="1.95" transform="rotate(-90 684.021 108.092)"/><path fill="#5F2167" d="M667.531 104.777c-1.495 0-2.56-.625-3.283-1.507l1.054-.979c.612.722 1.298 1.126 2.253 1.126.845 0 1.482-.514 1.482-1.322 0-.846-.771-1.323-1.972-1.323h-.698l-.245-.944 2.315-2.462h-3.711v-1.31h5.671v1.127l-2.388 2.45c1.359.196 2.523.894 2.523 2.437 0 1.58-1.225 2.707-3.001 2.707m5.942-.147v-7.104l-1.543.428-.318-1.224 2.302-.735h1.054v8.635z"/><path fill="#F1F3F9" stroke="#B5BAC7" d="M658.068 197.994a4.4 4.4 0 0 1-4.669-4.392V168.5a4.4 4.4 0 0 1 4.669-4.391l23.273 1.428a4.4 4.4 0 0 1 4.13 4.391v22.246a4.4 4.4 0 0 1-4.13 4.391z"/><path fill="#F1F3F9" stroke="#B5BAC7" d="M661.017 200.702a2.911 2.911 0 1 1 0-5.821l15.992.281a2.63 2.63 0 0 1 0 5.258zM661.016 167.224a2.91 2.91 0 1 1 0-5.821l15.992.282a2.629 2.629 0 0 1 0 5.258z"/><rect width="14.924" height="3.9" x="684.021" y="188.513" fill="#F1F3F9" stroke="#B5BAC7" rx="1.95" transform="rotate(-90 684.021 188.513)"/><path fill="#5F2167" d="M665.527 185.198c-1.494 0-2.56-.625-3.282-1.507l1.053-.979c.612.722 1.298 1.126 2.254 1.126.845 0 1.482-.514 1.482-1.322 0-.846-.772-1.323-1.972-1.323h-.698l-.245-.943 2.315-2.462h-3.712v-1.311h5.671v1.127l-2.388 2.45c1.36.196 2.523.894 2.523 2.437 0 1.58-1.225 2.707-3.001 2.707m8.184 0c-2.253 0-3.723-1.96-3.723-4.434 0-2.45 1.494-4.434 3.748-4.434 2.241 0 3.724 1.96 3.724 4.434 0 2.45-1.495 4.434-3.749 4.434m.025-1.36c1.335 0 2.168-1.359 2.168-3.074 0-1.69-.87-3.074-2.193-3.074s-2.168 1.347-2.168 3.074c0 1.69.858 3.074 2.193 3.074"/><path fill="#848CA2" stroke="#B5BAC7" d="M658.068 254.416a4.4 4.4 0 0 1-4.669-4.392v-25.102a4.4 4.4 0 0 1 4.669-4.391l23.273 1.428a4.4 4.4 0 0 1 4.13 4.391v22.246a4.4 4.4 0 0 1-4.13 4.391z"/><path fill="#848CA2" stroke="#B5BAC7" d="M661.016 257.123a2.911 2.911 0 1 1 0-5.822l15.993.282a2.63 2.63 0 0 1 0 5.258zM661.016 223.645a2.91 2.91 0 1 1 0-5.821l15.993.281a2.63 2.63 0 0 1 0 5.259z"/><rect width="14.924" height="3.9" x="684.021" y="244.936" fill="#848CA2" stroke="#B5BAC7" rx="1.95" transform="rotate(-90 684.021 244.936)"/><path stroke="#E11F2A" stroke-linecap="round" stroke-width="1.837" d="M.919-.919h46.665" opacity=".35" transform="rotate(135 297.84 252.792)"/><path stroke="#E11F2A" stroke-linecap="round" stroke-width="1.837" d="M.919-.919h46.665" opacity=".35" transform="matrix(.7071 .7071 .7071 -.7071 652.899 220.938)"/><path fill="#fff" d="M662.26 241.473v-1.188l2.952-2.511c1.175-.992 1.604-1.543 1.604-2.315 0-.845-.6-1.335-1.384-1.335s-1.323.429-1.984 1.286l-1.066-.833c.821-1.151 1.629-1.8 3.16-1.8 1.678 0 2.83 1.029 2.83 2.584 0 1.347-.723 2.07-2.229 3.32l-1.764 1.469h4.079v1.323zm10.574.147c-1.188 0-2.021-.428-2.744-1.029l.821-1.151c.649.551 1.225.808 1.96.808 1.261 0 2.021-1.114 2.07-2.694-.429.514-1.091.906-2.009.906-1.825 0-3.038-1.066-3.038-2.744s1.298-2.964 3.197-2.964c1.078 0 1.776.306 2.376.907.637.636 1.041 1.58 1.041 3.294 0 2.756-1.371 4.667-3.674 4.667m.318-4.422c1.09 0 1.74-.71 1.74-1.567 0-.895-.699-1.581-1.789-1.581-1.065 0-1.702.711-1.702 1.617 0 .894.686 1.531 1.751 1.531"/><path fill="#848CA2" stroke="#B5BAC7" d="M735.121 61.153a4.4 4.4 0 0 1-4.669-4.392V31.66a4.4 4.4 0 0 1 4.669-4.391l23.273 1.428a4.4 4.4 0 0 1 4.13 4.391v22.246a4.4 4.4 0 0 1-4.13 4.391z"/><path fill="#848CA2" stroke="#B5BAC7" d="M738.069 63.86a2.911 2.911 0 1 1 0-5.821l15.992.281a2.63 2.63 0 0 1 0 5.258zM738.069 30.382a2.911 2.911 0 1 1 0-5.821l15.992.282a2.63 2.63 0 0 1 0 5.258z"/><rect width="14.924" height="3.9" x="761.074" y="51.673" fill="#848CA2" stroke="#B5BAC7" rx="1.95" transform="rotate(-90 761.074 51.673)"/><path stroke="#E11F2A" stroke-linecap="round" stroke-width="1.837" d="M.919-.919h46.665" opacity=".35" transform="rotate(135 376.393 172.119)"/><path stroke="#E11F2A" stroke-linecap="round" stroke-width="1.837" d="M.919-.919h46.665" opacity=".35" transform="matrix(.7071 .7071 .7071 -.7071 729.952 27.675)"/><path fill="#fff" d="M742.492 48.357c-1.495 0-2.56-.624-3.283-1.506l1.053-.98c.613.722 1.299 1.127 2.254 1.127.845 0 1.482-.515 1.482-1.323 0-.845-.771-1.323-1.972-1.323h-.698l-.245-.943 2.315-2.462h-3.711v-1.31h5.671v1.126l-2.389 2.45c1.36.196 2.524.894 2.524 2.437 0 1.58-1.225 2.707-3.001 2.707m7.89 0c-1.053 0-1.813-.33-2.376-.894-.662-.661-1.054-1.556-1.054-3.307 0-2.621 1.25-4.667 3.675-4.667 1.115 0 1.874.355 2.621.956l-.808 1.163c-.6-.465-1.115-.747-1.862-.747-1.274 0-1.984 1.151-2.058 2.72.453-.442 1.041-.858 2.046-.858 1.665 0 3.001.98 3.001 2.72 0 1.702-1.385 2.914-3.185 2.914m-.037-1.298c1.066 0 1.715-.674 1.715-1.58 0-.858-.686-1.495-1.752-1.495s-1.739.686-1.739 1.532c0 .87.698 1.543 1.776 1.543"/><path fill="#F1F3F9" stroke="#B5BAC7" d="M735.121 117.573a4.4 4.4 0 0 1-4.669-4.392V88.079a4.4 4.4 0 0 1 4.669-4.391l23.273 1.428a4.4 4.4 0 0 1 4.13 4.391v22.246a4.4 4.4 0 0 1-4.13 4.391z"/><path fill="#F1F3F9" stroke="#B5BAC7" d="M738.069 120.281a2.911 2.911 0 1 1 0-5.821l15.992.281a2.63 2.63 0 0 1 0 5.258zM738.069 86.803a2.911 2.911 0 1 1 0-5.821l15.992.281a2.63 2.63 0 0 1 0 5.259z"/><rect width="14.924" height="3.9" x="761.074" y="108.092" fill="#F1F3F9" stroke="#B5BAC7" rx="1.95" transform="rotate(-90 761.074 108.092)"/><path fill="#5F2167" d="M742.702 104.777c-1.494 0-2.56-.625-3.283-1.507l1.054-.979c.612.722 1.298 1.126 2.253 1.126.846 0 1.483-.514 1.483-1.322 0-.846-.772-1.323-1.972-1.323h-.699l-.245-.944 2.315-2.462h-3.711v-1.31h5.671v1.127l-2.388 2.45c1.359.196 2.523.894 2.523 2.437 0 1.58-1.225 2.707-3.001 2.707m7.486 0c-1.311 0-2.34-.527-3.148-1.311l.931-1.09c.686.637 1.409 1.029 2.205 1.029 1.029 0 1.702-.588 1.702-1.506 0-.87-.735-1.421-1.776-1.421a3.7 3.7 0 0 0-1.58.379l-.906-.6.245-4.201h5.12v1.335h-3.822l-.135 2.009a3.7 3.7 0 0 1 1.36-.245c1.666 0 2.976.882 2.976 2.719 0 1.752-1.273 2.903-3.172 2.903"/><path fill="#F1F3F9" stroke="#B5BAC7" d="M735.121 197.994a4.4 4.4 0 0 1-4.669-4.392V168.5a4.4 4.4 0 0 1 4.669-4.391l23.273 1.428a4.4 4.4 0 0 1 4.13 4.391v22.246a4.4 4.4 0 0 1-4.13 4.391z"/><path fill="#F1F3F9" stroke="#B5BAC7" d="M738.069 200.702a2.911 2.911 0 1 1 0-5.821l15.992.281a2.63 2.63 0 0 1 0 5.258zM738.069 167.224a2.91 2.91 0 1 1 0-5.821l15.992.282a2.63 2.63 0 0 1 0 5.258z"/><rect width="14.924" height="3.9" x="761.074" y="188.513" fill="#F1F3F9" stroke="#B5BAC7" rx="1.95" transform="rotate(-90 761.074 188.513)"/><path fill="#5F2167" d="M742.343 185.198c-1.494 0-2.56-.625-3.283-1.507l1.054-.979c.612.722 1.298 1.126 2.254 1.126.845 0 1.482-.514 1.482-1.322 0-.846-.772-1.323-1.972-1.323h-.699l-.245-.943 2.316-2.462h-3.712v-1.311h5.671v1.127l-2.388 2.45c1.359.196 2.523.894 2.523 2.437 0 1.58-1.225 2.707-3.001 2.707m8.809-.147v-1.923h-4.324l-.282-1.078 4.765-5.634h1.286v5.475h1.225v1.237h-1.225v1.923zm-2.817-3.16h2.817v-3.393z"/><path fill="#F1F3F9" stroke="#B5BAC7" d="M735.121 254.415a4.4 4.4 0 0 1-4.669-4.392v-25.102a4.4 4.4 0 0 1 4.669-4.391l23.273 1.428a4.4 4.4 0 0 1 4.13 4.391v22.246a4.4 4.4 0 0 1-4.13 4.391z"/><path fill="#F1F3F9" stroke="#B5BAC7" d="M738.069 257.123a2.911 2.911 0 1 1 0-5.822l15.992.282a2.63 2.63 0 0 1 0 5.258zM738.069 223.645a2.91 2.91 0 1 1 0-5.821l15.992.282a2.63 2.63 0 0 1 0 5.258z"/><rect width="14.924" height="3.9" x="761.074" y="244.934" fill="#F1F3F9" stroke="#B5BAC7" rx="1.95" transform="rotate(-90 761.074 244.934)"/><path fill="#5F2167" d="M742.726 241.619c-1.494 0-2.56-.625-3.283-1.507l1.054-.979c.612.722 1.298 1.126 2.253 1.126.846 0 1.482-.514 1.482-1.322 0-.846-.771-1.323-1.972-1.323h-.698l-.245-.943 2.315-2.463h-3.711v-1.31h5.671v1.127l-2.388 2.45c1.359.196 2.523.894 2.523 2.437 0 1.58-1.225 2.707-3.001 2.707m7.572 0c-1.495 0-2.56-.625-3.283-1.507l1.053-.979c.613.722 1.299 1.126 2.254 1.126.845 0 1.482-.514 1.482-1.322 0-.846-.771-1.323-1.972-1.323h-.698l-.245-.943 2.315-2.463h-3.711v-1.31h5.671v1.127l-2.389 2.45c1.36.196 2.524.894 2.524 2.437 0 1.58-1.225 2.707-3.001 2.707"/><path fill="#000" fill-opacity=".1" d="M807.005 24H856c8.837 0 16 7.163 16 16v201.684c0 8.837-7.163 16-16 16h-48.995z"/><rect width="47.995" height="47.995" x="815.505" y="40.5" fill="#F1F3F9" rx="3.5"/><rect width="47.995" height="47.995" x="815.505" y="40.5" stroke="#B5BAC7" rx="3.5"/><path fill="#5F2167" fill-rule="evenodd" d="M836.302 53.698a3.2 3.2 0 1 0 6.4 0 3.2 3.2 0 0 0-6.4 0m1.388 0c0-.996.816-1.813 1.812-1.813 1.004 0 1.813.809 1.813 1.813a1.82 1.82 0 0 1-1.813 1.812 1.82 1.82 0 0 1-1.812-1.812" clip-rule="evenodd"/><path fill="#5F2167" d="M837.07 68.457h1.387v10.04h-1.387zM841.943 68.457h-1.388v10.04h1.388z"/><path fill="#5F2167" d="M843.364 59.494h-7.707l-.016 9.42h-1.388l.009-10.106c0-.188.073-.367.204-.498a.68.68 0 0 1 .489-.204h9.102c.384 0 .694.31.694.694v10.114h-1.387z"/><rect width="47.995" height="47.995" x="815.505" y="193.189" fill="#F1F3F9" rx="3.5"/><rect width="47.995" height="47.995" x="815.505" y="193.189" stroke="#B5BAC7" rx="3.5"/><path fill="#5F2167" fill-rule="evenodd" d="M836.296 206.389a3.21 3.21 0 0 0 3.203 3.203 3.21 3.21 0 0 0 3.202-3.203 3.21 3.21 0 0 0-3.202-3.203 3.21 3.21 0 0 0-3.203 3.203m1.389 0a1.82 1.82 0 0 1 1.814-1.814 1.82 1.82 0 0 1 1.813 1.814 1.82 1.82 0 0 1-1.813 1.814 1.815 1.815 0 0 1-1.814-1.814" clip-rule="evenodd"/><path fill="#5F2167" d="M837.056 221.145h1.388v10.041h-1.388zM841.933 221.145h-1.389v10.041h1.389z"/><path fill="#5F2167" d="M841.5 211.071c.278 0 .531.163.638.425l4.036 9.665h-1.504l-3.636-8.701h-3.063l-3.636 8.701h-1.503l4.036-9.665a.7.7 0 0 1 .637-.425z"/></svg>