<svg xmlns="http://www.w3.org/2000/svg" width="30" height="30" fill="none"><rect width="30" height="30" fill="#5F2167" rx="15"/><path fill="#FAFBFD" d="M12.892 17.281h-1.554v.7h1.554zM17.108 17.281h1.554v.7h-1.554z"/><path fill="#FAFBFD" fill-rule="evenodd" d="M16.762 20.595h-3.549v.85a.556.556 0 0 1-.552.555H11.03a.557.557 0 0 1-.556-.556V20.3a1.25 1.25 0 0 1-.446-.957v-8.068l-.61.442v1.93h-.7v-2.288l1.31-.947V9.253c0-.688.56-1.253 1.253-1.253h7.443c.689 0 1.253.56 1.253 1.253v1.166l1.307.94v2.287h-.7v-1.929l-.607-.433v8.058a1.26 1.26 0 0 1-.473.978v1.124a.553.553 0 0 1-.553.556h-1.632a.557.557 0 0 1-.556-.556zm.7 0v.705h1.34v-.708l-.083.003zm-6.182 0h1.233v.705h-1.34v-.71q.053.005.107.005m0-11.894a.55.55 0 0 0-.552.552v.667h8.548v-.667a.55.55 0 0 0-.553-.552zm7.996 1.92v5.135h-8.548v-5.135zm0 5.836h-8.548v2.885c0 .305.247.552.552.552h7.443a.55.55 0 0 0 .553-.552z" clip-rule="evenodd"/></svg>