<svg xmlns="http://www.w3.org/2000/svg" width="60" height="60" fill="none"><rect width="60" height="60" fill="#F1F3F9" rx="5.333"/><path fill="#1D1F24" fill-rule="evenodd" d="M16.873 26.337a5.306 5.306 0 0 0 5.299 5.3c2.912 0 5.299-2.379 5.299-5.3s-2.378-5.299-5.299-5.299a5.306 5.306 0 0 0-5.3 5.3m1.378 0a3.924 3.924 0 0 1 3.921-3.92 3.93 3.93 0 0 1 3.92 3.92 3.924 3.924 0 0 1-3.92 3.92 3.924 3.924 0 0 1-3.92-3.92M23.689 37.151l.24.216.604-.121 1.534-3.137h1.645v4.852h1.379v-5.54c0-.38-.31-.69-.69-.69H16.107c-.38 0-.69.31-.69.69v5.54h1.38v-4.852h1.425l.996 2.81.129.318.646.121 1.956-1.947zm.275-1.3.853-1.742h-2.586zm-4.561-1.742h2.26l-1.67 1.664zM39.18 37.151l.242.216.603-.121 1.534-3.137h1.646v4.852h1.378v-5.54c0-.38-.31-.69-.689-.69H31.598c-.379 0-.689.31-.689.69v5.54h1.379v-4.852h1.424l.988 2.81.138.318.646.13 1.956-1.956zm-4.285-3.042.59 1.664 1.67-1.664zm2.829 0h2.586l-.853 1.741zM37.664 31.636a5.306 5.306 0 0 1-5.299-5.299c0-2.92 2.378-5.299 5.3-5.299 2.92 0 5.298 2.378 5.298 5.3a5.306 5.306 0 0 1-5.299 5.298m0-9.22a3.924 3.924 0 0 0-3.92 3.921 3.924 3.924 0 0 0 3.92 3.92 3.924 3.924 0 0 0 3.92-3.92 3.93 3.93 0 0 0-3.92-3.92" clip-rule="evenodd"/></svg>