<svg xmlns="http://www.w3.org/2000/svg" width="30" height="30" fill="none"><rect width="30" height="30" fill="#5F2167" rx="15"/><path fill="#FAFBFD" fill-rule="evenodd" d="M21.182 9.35h-7.913a.82.82 0 0 0-.819.819v3.019h.613v-.843h8.324v3.002a.206.206 0 0 1-.205.206h-3.06v.612h3.06a.82.82 0 0 0 .818-.818v-5.178a.82.82 0 0 0-.818-.818m.205 2.329h-8.324v-.375h8.324zm0-1.041h-8.324v-.469c0-.115.095-.206.205-.206h7.914c.115 0 .205.095.205.206z" clip-rule="evenodd"/><path fill="#FAFBFD" d="M12.816 16.387H8.98v.494h3.837zM8.979 15.4h3.837v.494H8.98zM14.264 16.523l-.017-.012-.259.341.017.013a.505.505 0 0 1 .004.802l-.017.012.251.32.013.017.016-.012a.93.93 0 0 0-.008-1.48"/><path fill="#FAFBFD" d="m14.757 15.894.017.012c.42.334.658.827.658 1.366 0 .53-.235 1.024-.65 1.357l-.016.012-.272-.333.017-.012a1.31 1.31 0 0 0-.004-2.052l-.017-.013z"/><path fill="#FAFBFD" d="m15.28 15.286-.017-.013-.259.317-.012.016.016.013a2.116 2.116 0 0 1 .004 3.294l-.016.012.259.317.012.017.017-.013c.6-.485.942-1.209.942-1.978a2.54 2.54 0 0 0-.946-1.982"/><path fill="#FAFBFD" fill-rule="evenodd" d="M8.818 13.834h7.914c.452 0 .818.366.818.818v5.178a.82.82 0 0 1-.819.819H8.819A.82.82 0 0 1 8 19.83v-5.178c0-.452.366-.818.818-.818m-.205 4.499h1.106c.239 0 .432.193.436.432v1.27h6.577c.11 0 .205-.09.205-.205v-5.178a.206.206 0 0 0-.206-.205H8.819a.206.206 0 0 0-.205.205zm0 .613v.884c0 .111.09.206.205.206h.724v-1.09z" clip-rule="evenodd"/></svg>