<svg width="40" height="40" viewBox="0 0 40 40" fill="none" xmlns="http://www.w3.org/2000/svg">
<rect x="0.666667" y="0.666667" width="38.6667" height="38.6667" rx="4.66667" fill="#F6F7FB"/>
<rect x="0.666667" y="0.666667" width="38.6667" height="38.6667" rx="4.66667" stroke="#E3E7F2" stroke-width="1.33333"/>
<path d="M18.1215 16.4512H10.733V15.5026H18.1215C19.0646 15.5026 19.8347 14.7324 19.8347 13.7893C19.8347 12.8462 19.0646 12.0762 18.1215 12.0762C17.6304 12.0762 17.1617 12.2882 16.838 12.6565L16.1237 12.0315C16.6315 11.4568 17.357 11.1274 18.1215 11.1274C19.5892 11.1274 20.7834 12.3217 20.7834 13.7893C20.7834 15.257 19.5892 16.4512 18.1215 16.4512Z" fill="#5F2167"/>
<path d="M26.1518 20.6869H10.7218V19.7382H26.1518C27.3795 19.7382 28.3784 18.7393 28.3784 17.5116C28.3784 16.2839 27.3795 15.285 26.1518 15.285C25.4041 15.285 24.7121 15.6588 24.2991 16.2782L23.5123 15.7537C24.1038 14.8664 25.0915 14.3362 26.1574 14.3362C27.9097 14.3362 29.3327 15.7593 29.3327 17.5116C29.3327 19.2639 27.9041 20.6869 26.1518 20.6869Z" fill="#5F2167"/>
<path d="M18.6907 27.6847C19.1874 28.4325 20.0133 28.8732 20.9062 28.8732C22.3738 28.8732 23.5681 27.679 23.5681 26.2113C23.5681 24.7437 22.3738 23.5495 20.9062 23.5495H10.666V24.4981H20.9062C21.8493 24.4981 22.6194 25.2682 22.6194 26.2113C22.6194 27.1544 21.8493 27.9246 20.9062 27.9246C20.3314 27.9246 19.7957 27.6399 19.4776 27.16L18.6907 27.6847Z" fill="#5F2167"/>
</svg>
