<svg width="35" height="35" viewBox="0 0 35 35" fill="none" xmlns="http://www.w3.org/2000/svg">
<path d="M17.3154 13.4965C17.9446 13.4965 18.4546 12.9865 18.4546 12.3573C18.4546 11.7281 17.9446 11.2181 17.3154 11.2181C16.6863 11.2181 16.1763 11.7281 16.1763 12.3573C16.1763 12.9865 16.6863 13.4965 17.3154 13.4965Z" fill="#D1820B"/>
<path d="M18.2269 16.0897H16.3825V25.2899H18.2269V16.0897Z" fill="#D1820B"/>
<path fill-rule="evenodd" clip-rule="evenodd" d="M0 17.4999C0 27.1558 7.85492 35 17.5 35C27.1559 35 35 27.1558 35 17.4999C35 7.84392 27.1559 0 17.5 0C7.84406 0 0 7.84392 0 17.4999ZM1.8444 17.5107C1.8444 8.87469 8.8639 1.8552 17.5 1.8552C26.1361 1.8552 33.1556 8.87469 33.1556 17.5107C33.1556 26.1468 26.1361 33.1663 17.5 33.1663C8.8639 33.1663 1.8444 26.1468 1.8444 17.5107Z" fill="#D1820B"/>
</svg>
