<svg width="40" height="40" viewBox="0 0 40 40" fill="none" xmlns="http://www.w3.org/2000/svg">
<rect x="0.666667" y="0.666667" width="38.6667" height="38.6667" rx="4.66667" fill="#F6F7FB"/>
<rect x="0.666667" y="0.666667" width="38.6667" height="38.6667" rx="4.66667" stroke="#E3E7F2" stroke-width="1.33333"/>
<path fill-rule="evenodd" clip-rule="evenodd" d="M29.3327 26.2371H25.4646V29.2365H24.4932V26.2371H21.248V29.2365H20.2766V26.2371H18.4825L10.8034 14.0785C10.6834 13.8899 10.6377 13.6614 10.6834 13.4328C10.7291 13.2043 10.8663 13.0101 11.0605 12.8844L14.4316 10.896C14.8201 10.6446 15.3572 10.7589 15.62 11.1588L18.1911 15.1012C18.3168 15.2955 18.3626 15.5298 18.3111 15.7526C18.2654 15.9812 18.1283 16.1754 17.934 16.3011L17.8826 16.3411L21.0479 21.3405H28.0071C28.7385 21.3405 29.3327 21.929 29.3327 22.6603V26.2371ZM19.0196 25.2658H28.3671V22.6603C28.3671 22.4718 28.2071 22.3118 28.0128 22.3118H20.5109L16.5856 16.1126L17.3227 15.5469L14.8601 11.7702L11.6776 13.6442L19.0196 25.2658Z" fill="#5F2167"/>
<path d="M21.8707 13.116C23.9652 13.1958 25.6521 14.8938 25.7142 16.9927H26.613C26.6644 16.9927 26.693 17.0498 26.6644 17.0898L25.2646 18.8325C25.236 18.861 25.1903 18.861 25.1675 18.8325L23.7676 17.0898C23.7333 17.0498 23.7619 16.9927 23.8133 16.9927H24.7424C24.6811 15.4308 23.4282 14.167 21.8707 14.0883V15.0043C21.8707 15.0557 21.8136 15.0843 21.7736 15.0557L20.0309 13.6559C20.0158 13.6408 20.0087 13.6208 20.0096 13.602C20.0104 13.5853 20.0175 13.5695 20.0309 13.5588L21.7736 12.1589C21.8136 12.1246 21.8707 12.1532 21.8707 12.2046V13.116Z" fill="#5F2167"/>
</svg>
