<svg width="40" height="40" viewBox="0 0 40 40" fill="none" xmlns="http://www.w3.org/2000/svg">
<rect x="0.666667" y="0.666667" width="38.6667" height="38.6667" rx="4.66667" fill="#F6F7FB"/>
<rect x="0.666667" y="0.666667" width="38.6667" height="38.6667" rx="4.66667" stroke="#E3E7F2" stroke-width="1.33333"/>
<path fill-rule="evenodd" clip-rule="evenodd" d="M19.4353 13.22H20.5656C20.6378 13.7406 20.9144 14.2056 21.3342 14.4994C22.0176 14.9751 22.4222 15.7625 22.4222 16.6155L22.4223 27.6765C22.4223 27.9936 22.1653 28.2396 21.8427 28.2396C21.7151 28.2396 21.5902 28.1904 21.4913 28.1055C21.5173 27.9905 21.5311 27.8706 21.5311 27.7475H20.6016C20.6016 28.1083 20.3282 28.4037 19.9892 28.4037C19.6502 28.4037 19.3768 28.1083 19.3768 27.7475H18.4473C18.4473 27.8739 18.4618 27.9969 18.4892 28.1148C18.3911 28.2004 18.2681 28.245 18.1411 28.245C17.8185 28.245 17.5779 28.0044 17.5779 27.6818H16.6484C16.6484 28.5184 17.3045 29.1745 18.1411 29.1745C18.4338 29.1745 18.7151 29.0857 18.956 28.9227C19.23 29.1777 19.5929 29.3332 19.9892 29.3332C20.3854 29.3332 20.7482 29.1778 21.0222 28.9228C21.2627 29.0857 21.5469 29.1746 21.8427 29.1746C22.672 29.1746 23.3489 28.5049 23.3517 27.6817L23.3517 16.6155C23.3517 15.4618 22.794 14.3847 21.8645 13.7395C21.691 13.6172 21.5658 13.4295 21.5095 13.2133C21.7555 13.1732 21.9471 12.9568 21.952 12.7004V11.6069C21.952 11.0875 21.531 10.6665 21.0116 10.6665H18.9995C18.4801 10.6665 18.0591 11.0875 18.0591 11.6069V12.7004C18.0591 12.9557 18.2442 13.1714 18.4917 13.2128C18.4368 13.4292 18.3133 13.6171 18.1356 13.7395C17.2061 14.3847 16.6484 15.4618 16.6484 16.6155V27.6818H17.5779V16.621C17.5779 15.768 17.988 14.9751 18.666 14.5049C19.0873 14.21 19.3643 13.7429 19.4353 13.22ZM21.017 12.2904H18.9886L18.994 11.5906L21.017 11.6014V12.2904Z" fill="#5F2167"/>
</svg>
