<svg width="40" height="40" viewBox="0 0 40 40" fill="none" xmlns="http://www.w3.org/2000/svg">
<rect x="0.666667" y="0.666667" width="38.6667" height="38.6667" rx="4.66667" fill="#F6F7FB"/>
<rect x="0.666667" y="0.666667" width="38.6667" height="38.6667" rx="4.66667" stroke="#E3E7F2" stroke-width="1.33333"/>
<path fill-rule="evenodd" clip-rule="evenodd" d="M21.7831 10.874V10.8684H25.5691V12.6831H29.3327V13.6688H25.5691V18.0594H29.3327V19.0452H25.5691V20.8878H21.4919V20.8767C19.0259 20.7513 17.0278 18.842 16.7706 16.4129C13.8811 16.7929 11.6461 19.273 11.6461 22.2599C11.6461 25.5138 14.2952 28.1573 17.5435 28.1573H22.9425V28.1461H27.4005V29.1318H17.6331C17.5762 29.1318 17.487 29.1288 17.4032 29.1253C17.2892 29.1206 17.1851 29.115 17.1851 29.115C13.5559 28.9246 10.666 25.9283 10.666 22.2543C10.666 18.7263 13.3377 15.8093 16.7637 15.4207C16.9896 12.9626 19.0072 11.0171 21.4919 10.8852V10.874H21.7831ZM21.7551 11.8541C19.5373 11.8541 17.7283 13.6631 17.7283 15.8809C17.7283 18.1043 19.5373 19.9133 21.7551 19.9077H24.5834V11.8541H21.7551Z" fill="#5F2167"/>
</svg>
