<svg width="40" height="40" viewBox="0 0 40 40" fill="none" xmlns="http://www.w3.org/2000/svg">
<rect x="0.666667" y="0.666667" width="38.6667" height="38.6667" rx="4.66667" fill="#F6F7FB"/>
<rect x="0.666667" y="0.666667" width="38.6667" height="38.6667" rx="4.66667" stroke="#E3E7F2" stroke-width="1.33333"/>
<path fill-rule="evenodd" clip-rule="evenodd" d="M16.3236 15.0537V12.0921C16.3236 11.7233 16.6232 11.418 16.9977 11.418H23.001C23.3697 11.418 23.675 11.7176 23.675 12.0921V15.0537H28.6701C29.033 15.0537 29.3327 15.3475 29.3327 15.7162V27.9187C29.3327 28.2874 29.033 28.5812 28.6701 28.5812H11.3286C10.9656 28.5812 10.666 28.2874 10.666 27.9187V15.7162C10.666 15.3533 10.9598 15.0537 11.3286 15.0537H16.3236ZM22.6956 15.0537V12.3974H17.303V15.0537H22.6956ZM28.3532 27.6076H25.317V16.0446H28.3532V27.6076ZM11.6512 27.6076H14.6874V16.0446H11.6512V27.6076ZM24.3376 27.6076H15.6668V16.0446H24.3376V27.6076Z" fill="#5F2167"/>
</svg>
