<svg width="24" height="24" viewBox="0 0 24 24" fill="none" xmlns="http://www.w3.org/2000/svg">
<path d="M17.4506 11.4031C18.3877 10.4592 18.6573 9.15807 18.6573 7.97829V7.40519H16.6079V5.7942H15.4618V7.40519H13.4056V8.55139H17.4843C17.2888 10.6278 15.9809 11.6052 13.4056 11.6052V12.7514C14.6798 12.7514 15.6506 12.5221 16.3921 12.1513C17.0056 12.5221 17.6191 12.7178 18.2056 12.7313L18.7989 12.7448L18.8259 11.5986L18.2394 11.5851C17.9899 11.5851 17.727 11.5177 17.4506 11.4031Z" fill="#FAFBFD"/>
<path fill-rule="evenodd" clip-rule="evenodd" d="M9.52923 11.7204H7.07529L6.62362 12.9877H5.41014L7.86408 6.07762L8.70003 6.0707L8.83483 6.48218L11.2146 12.9877H9.9944L9.52923 11.7204ZM9.11126 10.5742L8.28206 8.3157L7.47977 10.5742H9.11126Z" fill="#FAFBFD"/>
<path fill-rule="evenodd" clip-rule="evenodd" d="M19.473 2.75391H4.52696C2.85506 2.75391 1.5 4.10913 1.5 5.78103V13.8235C1.5 15.4954 2.85506 16.8506 4.52696 16.8506H7.70896L7.73595 20.4709C7.73595 20.781 7.92473 21.0642 8.20787 21.1856C8.30901 21.2261 8.41011 21.2461 8.518 21.2461C8.71349 21.2461 8.90898 21.1719 9.05727 21.0371L13.6213 16.7631L19.4393 16.8236C20.2618 16.8439 21.0236 16.5204 21.6034 15.9474C22.1831 15.3743 22.5 14.6122 22.5 13.7965V5.78103C22.5 4.10913 21.1449 2.75391 19.473 2.75391ZM21.3539 13.7965C21.3539 14.3021 21.1584 14.7811 20.7944 15.1317C20.4303 15.489 19.9854 15.6774 19.4528 15.6774L13.1764 15.6103L8.87528 19.6348L8.84158 15.7044H4.52696C3.48877 15.7044 2.64607 14.8617 2.64607 13.8235V5.78103C2.64607 4.7428 3.48877 3.9001 4.52696 3.9001H19.473C20.5112 3.9001 21.3539 4.7428 21.3539 5.78103V13.7965Z" fill="#FAFBFD"/>
</svg>
