<svg width="40" height="40" viewBox="0 0 40 40" fill="none" xmlns="http://www.w3.org/2000/svg">
<rect x="0.666667" y="0.666667" width="38.6667" height="38.6667" rx="4.66667" fill="#F6F7FB"/>
<rect x="0.666667" y="0.666667" width="38.6667" height="38.6667" rx="4.66667" stroke="#E3E7F2" stroke-width="1.33333"/>
<path fill-rule="evenodd" clip-rule="evenodd" d="M12.946 12.9574C12.946 14.123 13.9013 15.0726 15.0669 15.0726C16.2381 15.0726 17.1877 14.123 17.182 12.9574C17.182 11.7918 16.2324 10.8423 15.0669 10.8423C13.8956 10.8423 12.946 11.7918 12.946 12.9574ZM13.9354 12.9517C13.9354 12.3263 14.4414 11.8202 15.0669 11.8202C15.6923 11.8202 16.1983 12.3263 16.1983 12.9517C16.1983 13.5771 15.6923 14.0832 15.0669 14.0832C14.4414 14.0832 13.9354 13.5771 13.9354 12.9517Z" fill="#5F2167"/>
<path d="M13.4464 22.5327H14.43V29.0486H13.4464V22.5327Z" fill="#5F2167"/>
<path d="M16.693 22.5327H15.7094V29.0486H16.693V22.5327Z" fill="#5F2167"/>
<path d="M16.3632 15.954C16.5622 15.954 16.7442 16.0734 16.8181 16.2554L19.4791 22.6121H18.4101L16.0391 16.9376H14.1059L11.735 22.6121H10.666L13.3213 16.2554C13.4009 16.0734 13.5772 15.954 13.7762 15.954H16.3632Z" fill="#5F2167"/>
<path fill-rule="evenodd" clip-rule="evenodd" d="M25.9154 15.0668C24.7669 15.0668 23.8287 14.1286 23.8287 12.9801C23.8287 11.8315 24.7669 10.8934 25.9154 10.8934C27.0639 10.8934 28.0021 11.8315 28.0021 12.9801C28.0021 14.1286 27.0639 15.0668 25.9154 15.0668ZM25.9154 11.7975C25.2615 11.7975 24.7327 12.3262 24.7327 12.9801C24.7327 13.634 25.2615 14.1627 25.9154 14.1627C26.5693 14.1627 27.098 13.634 27.098 12.9801C27.098 12.3262 26.5693 11.7975 25.9154 11.7975Z" fill="#5F2167"/>
<path d="M24.3234 22.6065H25.2275V29.1566H24.3234V22.6065Z" fill="#5F2167"/>
<path d="M27.5018 22.6065H26.5978V29.1566H27.5018V22.6065Z" fill="#5F2167"/>
<path d="M28.4286 16.7614H23.4023L23.3966 22.9135H22.4926V16.3179C22.4926 16.1985 22.5381 16.0791 22.6234 15.9938C22.7087 15.9085 22.828 15.8574 22.9475 15.8574H28.8778C29.128 15.8574 29.3327 16.062 29.3327 16.3122V22.9078H28.4286V16.7614Z" fill="#5F2167"/>
</svg>
