<svg width="48" height="450" viewBox="0 0 48 450" fill="none" xmlns="http://www.w3.org/2000/svg">
<rect x="17.5" y="21.5" width="13" height="407" rx="6.5" fill="#AF90B3" stroke="#E3E7F2" stroke-width="3"/>
<path fill-rule="evenodd" clip-rule="evenodd" d="M16.8576 407.667C11.5979 407.667 7.33398 411.931 7.33398 417.191V431.475C7.33398 436.735 11.5979 440.999 16.8576 440.999H21.8022C22.2032 442.02 23.1526 444.334 23.5239 444.334C23.8952 444.334 24.8447 442.02 25.2456 440.999H31.1437C36.4034 440.999 40.6673 436.735 40.6673 431.475V417.191C40.6673 411.931 36.4034 407.667 31.1437 407.667H16.8576Z" fill="#5F2167"/>
<path fill-rule="evenodd" clip-rule="evenodd" d="M24.9757 441.672C24.9288 441.786 24.8796 441.905 24.8287 442.026C24.379 443.091 23.7966 444.333 23.5245 444.333C23.2525 444.333 22.67 443.091 22.2204 442.026C22.1694 441.905 22.1202 441.786 22.0733 441.672C21.9692 441.419 21.8767 441.187 21.8028 440.999H16.8582C11.5984 440.999 7.33458 436.735 7.33458 431.475V417.19C7.33458 411.93 11.5985 407.667 16.8582 407.667H31.1443C36.404 407.667 40.6679 411.93 40.6679 417.19V431.475C40.6679 436.735 36.404 440.999 31.1443 440.999H25.2462C25.1723 441.187 25.0798 441.419 24.9757 441.672ZM27.0246 443.665H31.1443C37.8768 443.665 43.3345 438.207 43.3345 431.475V417.19C43.3345 410.458 37.8768 405 31.1443 405H16.8582C10.1257 405 4.66797 410.458 4.66797 417.19V431.475C4.66797 438.207 10.1257 443.665 16.8582 443.665H20.0244C20.1029 443.842 20.1833 444.018 20.2641 444.189C20.4451 444.572 20.6664 445.01 20.9025 445.383C21.014 445.559 21.192 445.822 21.4313 446.073C21.5512 446.199 21.7522 446.391 22.0327 446.567C22.298 446.733 22.8186 447 23.5245 447C24.2305 447 24.751 446.733 25.0163 446.567C25.2969 446.391 25.4978 446.199 25.6178 446.073C25.8571 445.822 26.0351 445.559 26.1466 445.383C26.3826 445.01 26.6039 444.572 26.7849 444.189C26.8658 444.018 26.9462 443.842 27.0246 443.665Z" fill="white" fill-opacity="0.9"/>
<path fill-rule="evenodd" clip-rule="evenodd" d="M17.1735 413.689C16.5939 413.808 16.1286 414.254 16.0226 414.792C15.9914 414.95 15.993 433.128 16.0243 433.225C16.0525 433.313 16.1764 433.448 16.271 433.493C16.5089 433.606 16.8087 433.513 16.9388 433.286C16.9799 433.215 16.9812 433.192 16.9907 432.389C17.0015 431.472 16.9979 418.563 17.1401 418.43C17.2851 418.295 17.0301 418.307 19.9487 418.297C22.9171 418.286 22.6542 418.301 22.8159 418.134C22.9469 417.998 22.9836 417.806 22.9083 417.652C22.8884 417.611 22.5825 417.217 22.2287 416.777L21.5853 415.976L22.245 415.155C22.7247 414.557 22.9109 414.311 22.9272 414.255C22.996 414.018 22.8605 413.767 22.6206 413.687C22.5135 413.651 17.3481 413.653 17.1735 413.689Z" fill="white"/>
<path d="M32 430.922C31.9999 431.953 31.1093 432.791 30.0137 432.791H23.7344C22.6452 432.791 21.7482 431.953 21.748 430.922V427.361H32V430.922ZM24.1592 429.331C24.1081 429.343 24.0569 429.355 24.0059 429.379C23.961 429.397 23.9095 429.421 23.8711 429.445C23.8262 429.475 23.7811 429.506 23.749 429.542C23.5955 429.681 23.5128 429.873 23.5127 430.072C23.5127 430.271 23.5953 430.465 23.749 430.604C23.7811 430.64 23.8262 430.67 23.8711 430.7C23.9095 430.724 23.9611 430.749 24.0059 430.767C24.0569 430.791 24.1081 430.802 24.1592 430.814C24.2104 430.82 24.2622 430.826 24.3135 430.826C24.5248 430.826 24.7296 430.748 24.877 430.604C25.0307 430.465 25.1143 430.271 25.1143 430.072C25.1142 429.873 25.0306 429.681 24.877 429.542C24.6911 429.367 24.4154 429.283 24.1592 429.331ZM29.2852 429.331C29.2341 429.343 29.1829 429.355 29.1318 429.379C29.087 429.397 29.0355 429.421 28.9971 429.445C28.9522 429.475 28.907 429.506 28.875 429.542C28.7213 429.681 28.6387 429.874 28.6387 430.073C28.6388 430.272 28.7214 430.465 28.875 430.604C28.907 430.64 28.9522 430.67 28.9971 430.7C29.0355 430.724 29.087 430.749 29.1318 430.767C29.1829 430.791 29.2341 430.802 29.2852 430.814C29.3364 430.82 29.3882 430.826 29.4395 430.826C29.4906 430.826 29.542 430.82 29.5996 430.814C29.6444 430.802 29.6959 430.791 29.7471 430.767C29.7917 430.749 29.8425 430.724 29.8809 430.7C29.9257 430.67 29.9709 430.64 30.0029 430.604C30.1566 430.465 30.2401 430.272 30.2402 430.073C30.2402 429.874 30.1567 429.681 30.0029 429.542C29.9709 429.506 29.9257 429.475 29.8809 429.445C29.8425 429.421 29.7917 429.397 29.7471 429.379C29.6959 429.355 29.6444 429.343 29.5996 429.331C29.4907 429.313 29.3877 429.313 29.2852 429.331ZM30.0137 420.73C31.103 420.73 32 421.568 32 422.6V424.346H21.748V422.6C21.7481 421.574 22.6387 420.731 23.7344 420.73H30.0137ZM25.2754 422.081C25.0128 422.081 24.7951 422.286 24.7949 422.533C24.7949 422.78 25.0127 422.985 25.2754 422.985H28.4795C28.742 422.985 28.96 422.78 28.96 422.533C28.9598 422.286 28.7419 422.081 28.4795 422.081H25.2754Z" fill="white"/>
<rect x="23.3262" y="432.04" width="1.57726" height="1.50761" rx="0.366304" fill="white"/>
<rect x="28.8438" y="432.04" width="1.57726" height="1.50761" rx="0.366304" fill="white"/>
<path fill-rule="evenodd" clip-rule="evenodd" d="M18.0477 261.723C13.6646 261.723 10.1113 265.276 10.1113 269.659V281.563C10.1113 285.946 13.6646 289.499 18.0477 289.499H22.1682C22.5023 290.35 23.2935 292.278 23.6029 292.278C23.9124 292.278 24.7036 290.35 25.0377 289.499H29.9528C34.3359 289.499 37.8891 285.946 37.8891 281.563V269.659C37.8891 265.276 34.3359 261.723 29.9528 261.723H18.0477Z" fill="#7A4680"/>
<path fill-rule="evenodd" clip-rule="evenodd" d="M24.8118 290.06C24.7727 290.155 24.7317 290.254 24.6892 290.355C24.3145 291.243 23.8292 292.278 23.6025 292.278C23.3758 292.278 22.8904 291.243 22.5157 290.355C22.4732 290.254 22.4322 290.155 22.3931 290.06C22.3064 289.849 22.2293 289.656 22.1677 289.499H18.0472C13.6641 289.499 10.1108 285.946 10.1108 281.562V269.659C10.1108 265.275 13.6641 261.722 18.0472 261.722H29.9523C34.3354 261.722 37.8886 265.275 37.8886 269.659V281.562C37.8886 285.946 34.3354 289.499 29.9523 289.499H25.0372C24.9756 289.656 24.8986 289.849 24.8118 290.06ZM26.5192 291.721H29.9523C35.5627 291.721 40.1108 287.173 40.1108 281.562V269.659C40.1108 264.048 35.5627 259.5 29.9523 259.5H18.0472C12.4368 259.5 7.88867 264.048 7.88867 269.659V281.562C7.88867 287.173 12.4368 291.721 18.0472 291.721H20.6857C20.7511 291.868 20.8181 292.015 20.8855 292.157C21.0363 292.476 21.2207 292.842 21.4174 293.152C21.5103 293.299 21.6587 293.519 21.8581 293.727C21.9581 293.832 22.1255 293.993 22.3593 294.139C22.5804 294.278 23.0142 294.5 23.6025 294.5C24.1907 294.5 24.6245 294.278 24.8456 294.139C25.0794 293.993 25.2469 293.832 25.3468 293.727C25.5462 293.519 25.6946 293.299 25.7875 293.152C25.9842 292.842 26.1686 292.476 26.3195 292.157C26.3868 292.015 26.4538 291.868 26.5192 291.721Z" fill="white" fill-opacity="0.9"/>
<path d="M30.0869 279.936C30.0867 281.187 29.0065 282.203 27.6777 282.204H20.0596C18.7385 282.203 17.6506 281.187 17.6504 279.936V275.62H30.0869V279.936ZM20.5742 278.012C20.5122 278.027 20.4497 278.041 20.3877 278.07C20.3334 278.092 20.2712 278.122 20.2246 278.151C20.1702 278.187 20.115 278.224 20.0762 278.268C19.8898 278.436 19.7891 278.67 19.7891 278.912C19.7891 279.153 19.8898 279.387 20.0762 279.555C20.115 279.599 20.1702 279.636 20.2246 279.672C20.2712 279.702 20.3334 279.731 20.3877 279.752C20.4498 279.782 20.5121 279.796 20.5742 279.811C20.6363 279.818 20.6986 279.826 20.7607 279.826C21.0171 279.826 21.2656 279.731 21.4443 279.555C21.6309 279.387 21.7324 279.153 21.7324 278.912C21.7324 278.67 21.6309 278.436 21.4443 278.268C21.219 278.056 20.8851 277.954 20.5742 278.012ZM27.1729 278.012C27.0408 277.99 26.9163 277.99 26.792 278.012C26.7298 278.027 26.6676 278.042 26.6055 278.071C26.5512 278.093 26.489 278.122 26.4424 278.151C26.388 278.187 26.3328 278.224 26.2939 278.268C26.1076 278.436 26.0069 278.67 26.0068 278.912C26.0068 279.153 26.1076 279.387 26.2939 279.555C26.3328 279.599 26.388 279.636 26.4424 279.672C26.489 279.702 26.5511 279.732 26.6055 279.753C26.6675 279.783 26.7299 279.796 26.792 279.811C26.8541 279.818 26.9164 279.826 26.9785 279.826C27.0406 279.826 27.103 279.818 27.1729 279.811C27.2272 279.796 27.2895 279.783 27.3516 279.753C27.406 279.731 27.468 279.702 27.5146 279.672C27.569 279.636 27.6233 279.599 27.6621 279.555C27.8487 279.387 27.9502 279.153 27.9502 278.912C27.9502 278.67 27.8486 278.436 27.6621 278.268C27.6232 278.224 27.569 278.187 27.5146 278.151C27.4681 278.122 27.4059 278.093 27.3516 278.071C27.2895 278.042 27.2272 278.027 27.1729 278.012ZM27.6777 267.573C28.9989 267.573 30.0868 268.59 30.0869 269.84V271.962H17.6504V269.84C17.6505 268.597 18.7307 267.573 20.0596 267.573H27.6777ZM21.9268 269.214C21.6081 269.214 21.3438 269.463 21.3438 269.763C21.3438 270.063 21.6081 270.312 21.9268 270.312H25.8135C26.132 270.312 26.3965 270.063 26.3965 269.763C26.3965 269.463 26.132 269.215 25.8135 269.214H21.9268Z" fill="white"/>
<rect x="19.5645" y="281.292" width="1.91331" height="1.82882" rx="0.366304" fill="white"/>
<rect x="26.2598" y="281.292" width="1.91331" height="1.82882" rx="0.366304" fill="white"/>
<path fill-rule="evenodd" clip-rule="evenodd" d="M18.0477 157.723C13.6646 157.723 10.1113 161.276 10.1113 165.659V177.563C10.1113 181.946 13.6646 185.499 18.0477 185.499H22.1682C22.5023 186.35 23.2935 188.278 23.6029 188.278C23.9124 188.278 24.7036 186.35 25.0377 185.499H29.9528C34.3359 185.499 37.8891 181.946 37.8891 177.563V165.659C37.8891 161.276 34.3359 157.723 29.9528 157.723H18.0477Z" fill="#7A4680"/>
<path fill-rule="evenodd" clip-rule="evenodd" d="M24.8118 186.06C24.7727 186.155 24.7317 186.254 24.6892 186.355C24.3145 187.243 23.8292 188.278 23.6025 188.278C23.3758 188.278 22.8904 187.243 22.5157 186.355C22.4732 186.254 22.4322 186.155 22.3931 186.06C22.3064 185.849 22.2293 185.656 22.1677 185.499H18.0472C13.6641 185.499 10.1108 181.946 10.1108 177.562V165.659C10.1108 161.275 13.6641 157.722 18.0472 157.722H29.9523C34.3354 157.722 37.8886 161.275 37.8886 165.659V177.562C37.8886 181.946 34.3354 185.499 29.9523 185.499H25.0372C24.9756 185.656 24.8986 185.849 24.8118 186.06ZM26.5192 187.721H29.9523C35.5627 187.721 40.1108 183.173 40.1108 177.562V165.659C40.1108 160.048 35.5627 155.5 29.9523 155.5H18.0472C12.4368 155.5 7.88867 160.048 7.88867 165.659V177.562C7.88867 183.173 12.4368 187.721 18.0472 187.721H20.6857C20.7511 187.868 20.8181 188.015 20.8855 188.157C21.0363 188.476 21.2207 188.842 21.4174 189.152C21.5103 189.299 21.6587 189.519 21.8581 189.727C21.9581 189.832 22.1255 189.993 22.3593 190.139C22.5804 190.278 23.0142 190.5 23.6025 190.5C24.1907 190.5 24.6245 190.278 24.8456 190.139C25.0794 189.993 25.2469 189.832 25.3468 189.727C25.5462 189.519 25.6946 189.299 25.7875 189.152C25.9842 188.842 26.1686 188.476 26.3195 188.157C26.3868 188.015 26.4538 187.868 26.5192 187.721Z" fill="white" fill-opacity="0.9"/>
<path d="M30.0869 175.936C30.0867 177.187 29.0065 178.203 27.6777 178.204H20.0596C18.7385 178.203 17.6506 177.187 17.6504 175.936V171.62H30.0869V175.936ZM20.5742 174.012C20.5122 174.027 20.4497 174.041 20.3877 174.07C20.3334 174.092 20.2712 174.122 20.2246 174.151C20.1702 174.187 20.115 174.224 20.0762 174.268C19.8898 174.436 19.7891 174.67 19.7891 174.912C19.7891 175.153 19.8898 175.387 20.0762 175.555C20.115 175.599 20.1702 175.636 20.2246 175.672C20.2712 175.702 20.3334 175.731 20.3877 175.752C20.4498 175.782 20.5121 175.796 20.5742 175.811C20.6363 175.818 20.6986 175.826 20.7607 175.826C21.0171 175.826 21.2656 175.731 21.4443 175.555C21.6309 175.387 21.7324 175.153 21.7324 174.912C21.7324 174.67 21.6309 174.436 21.4443 174.268C21.219 174.056 20.8851 173.954 20.5742 174.012ZM27.1729 174.012C27.0408 173.99 26.9163 173.99 26.792 174.012C26.7298 174.027 26.6676 174.042 26.6055 174.071C26.5512 174.093 26.489 174.122 26.4424 174.151C26.388 174.187 26.3328 174.224 26.2939 174.268C26.1076 174.436 26.0069 174.67 26.0068 174.912C26.0068 175.153 26.1076 175.387 26.2939 175.555C26.3328 175.599 26.388 175.636 26.4424 175.672C26.489 175.702 26.5511 175.732 26.6055 175.753C26.6675 175.783 26.7299 175.796 26.792 175.811C26.8541 175.818 26.9164 175.826 26.9785 175.826C27.0406 175.826 27.103 175.818 27.1729 175.811C27.2272 175.796 27.2895 175.783 27.3516 175.753C27.406 175.731 27.468 175.702 27.5146 175.672C27.569 175.636 27.6233 175.599 27.6621 175.555C27.8487 175.387 27.9502 175.153 27.9502 174.912C27.9502 174.67 27.8486 174.436 27.6621 174.268C27.6232 174.224 27.569 174.187 27.5146 174.151C27.4681 174.122 27.4059 174.093 27.3516 174.071C27.2895 174.042 27.2272 174.027 27.1729 174.012ZM27.6777 163.573C28.9989 163.573 30.0868 164.59 30.0869 165.84V167.962H17.6504V165.84C17.6505 164.597 18.7307 163.573 20.0596 163.573H27.6777ZM21.9268 165.214C21.6081 165.214 21.3438 165.463 21.3438 165.763C21.3438 166.063 21.6081 166.312 21.9268 166.312H25.8135C26.132 166.312 26.3965 166.063 26.3965 165.763C26.3965 165.463 26.132 165.215 25.8135 165.214H21.9268Z" fill="white"/>
<rect x="19.5645" y="177.292" width="1.91331" height="1.82882" rx="0.366304" fill="white"/>
<rect x="26.2598" y="177.292" width="1.91331" height="1.82882" rx="0.366304" fill="white"/>
<path fill-rule="evenodd" clip-rule="evenodd" d="M16.8576 5.66699C11.5979 5.66699 7.33398 9.93085 7.33398 15.1906V29.4753C7.33398 34.735 11.5979 38.9989 16.8576 38.9989H21.8022C22.2032 40.0199 23.1526 42.3337 23.5239 42.3337C23.8952 42.3337 24.8447 40.0199 25.2456 38.9989H31.1437C36.4034 38.9989 40.6673 34.735 40.6673 29.4753V15.1906C40.6673 9.93085 36.4034 5.66699 31.1437 5.66699H16.8576Z" fill="#5F2167"/>
<path fill-rule="evenodd" clip-rule="evenodd" d="M24.9757 39.6722C24.9288 39.7864 24.8796 39.9048 24.8287 40.0256C24.379 41.0913 23.7966 42.3334 23.5245 42.3334C23.2525 42.3334 22.67 41.0913 22.2204 40.0256C22.1694 39.9048 22.1202 39.7864 22.0733 39.6722C21.9692 39.4188 21.8767 39.1868 21.8028 38.9986H16.8582C11.5984 38.9986 7.33458 34.7347 7.33458 29.475V15.1902C7.33458 9.93048 11.5985 5.66661 16.8582 5.66661H31.1443C36.404 5.66661 40.6679 9.93048 40.6679 15.1902V29.475C40.6679 34.7347 36.404 38.9986 31.1443 38.9986H25.2462C25.1723 39.1868 25.0798 39.4188 24.9757 39.6722ZM27.0246 41.6652H31.1443C37.8768 41.6652 43.3345 36.2075 43.3345 29.475V15.1902C43.3345 8.45775 37.8768 3 31.1443 3H16.8582C10.1257 3 4.66797 8.45775 4.66797 15.1902V29.475C4.66797 36.2075 10.1257 41.6652 16.8582 41.6652H20.0244C20.1029 41.8417 20.1833 42.0179 20.2641 42.1889C20.4451 42.5716 20.6664 43.01 20.9025 43.3828C21.014 43.5588 21.192 43.8223 21.4313 44.073C21.5512 44.1987 21.7522 44.3912 22.0327 44.5669C22.298 44.7332 22.8186 45 23.5245 45C24.2305 45 24.751 44.7332 25.0163 44.5669C25.2969 44.3912 25.4978 44.1987 25.6178 44.073C25.8571 43.8223 26.0351 43.5588 26.1466 43.3828C26.3826 43.01 26.6039 42.5716 26.7849 42.1889C26.8658 42.0179 26.9462 41.8417 27.0246 41.6652Z" fill="white" fill-opacity="0.9"/>
<path fill-rule="evenodd" clip-rule="evenodd" d="M17.1735 11.6889C16.5939 11.8078 16.1286 12.2536 16.0226 12.7917C15.9914 12.9502 15.993 31.1279 16.0243 31.2254C16.0525 31.3133 16.1764 31.4475 16.271 31.4925C16.5089 31.6058 16.8087 31.5133 16.9388 31.2865C16.9799 31.2147 16.9812 31.1918 16.9907 30.3889C17.0015 29.4718 16.9979 16.5628 17.1401 16.4301C17.2851 16.2947 17.0301 16.3068 19.9487 16.2967C22.9171 16.2865 22.6542 16.3014 22.8159 16.1336C22.9469 15.9976 22.9836 15.8064 22.9083 15.6518C22.8884 15.6108 22.5825 15.217 22.2287 14.7768L21.5853 13.9764L22.245 13.1546C22.7247 12.5569 22.9109 12.3115 22.9272 12.255C22.996 12.0178 22.8605 11.7669 22.6206 11.687C22.5135 11.6513 17.3481 11.6532 17.1735 11.6889Z" fill="white"/>
<path d="M32 28.9219C31.9999 29.953 31.1093 30.791 30.0137 30.791H23.7344C22.6452 30.7909 21.7482 29.9529 21.748 28.9219V25.3613H32V28.9219ZM24.1592 27.3311C24.1081 27.3431 24.0569 27.3549 24.0059 27.3789C23.961 27.397 23.9095 27.4212 23.8711 27.4453C23.8262 27.4755 23.7811 27.5058 23.749 27.542C23.5955 27.6806 23.5128 27.8735 23.5127 28.0723C23.5127 28.2712 23.5953 28.4648 23.749 28.6035C23.7811 28.6397 23.8262 28.67 23.8711 28.7002C23.9095 28.7243 23.9611 28.7485 24.0059 28.7666C24.0569 28.7906 24.1081 28.8024 24.1592 28.8145C24.2104 28.8205 24.2622 28.8262 24.3135 28.8262C24.5248 28.8261 24.7296 28.7481 24.877 28.6035C25.0307 28.4648 25.1143 28.2713 25.1143 28.0723C25.1142 27.8734 25.0306 27.6806 24.877 27.542C24.6911 27.3672 24.4154 27.2828 24.1592 27.3311ZM29.2852 27.3311C29.2341 27.3431 29.1829 27.3549 29.1318 27.3789C29.087 27.397 29.0355 27.4212 28.9971 27.4453C28.9522 27.4755 28.907 27.5058 28.875 27.542C28.7213 27.6807 28.6387 27.8743 28.6387 28.0732C28.6388 28.272 28.7214 28.4649 28.875 28.6035C28.907 28.6397 28.9522 28.67 28.9971 28.7002C29.0355 28.7243 29.087 28.7485 29.1318 28.7666C29.1829 28.7906 29.2341 28.8024 29.2852 28.8145C29.3364 28.8205 29.3882 28.8262 29.4395 28.8262C29.4906 28.8261 29.542 28.8205 29.5996 28.8145C29.6444 28.8024 29.6959 28.7907 29.7471 28.7666C29.7917 28.7486 29.8425 28.7242 29.8809 28.7002C29.9257 28.6701 29.9709 28.6397 30.0029 28.6035C30.1566 28.4649 30.2401 28.2721 30.2402 28.0732C30.2402 27.8742 30.1567 27.6807 30.0029 27.542C29.9709 27.5059 29.9257 27.4754 29.8809 27.4453C29.8425 27.4213 29.7917 27.3969 29.7471 27.3789C29.6959 27.3548 29.6444 27.3431 29.5996 27.3311C29.4907 27.313 29.3877 27.313 29.2852 27.3311ZM30.0137 18.7305C31.103 18.7305 32 19.5684 32 20.5996V22.3457H21.748V20.5996C21.7481 19.5745 22.6387 18.7305 23.7344 18.7305H30.0137ZM25.2754 20.0811C25.0128 20.0811 24.7951 20.2861 24.7949 20.5332C24.7949 20.7805 25.0127 20.9854 25.2754 20.9854H28.4795C28.742 20.9851 28.96 20.7803 28.96 20.5332C28.9598 20.2862 28.7419 20.0813 28.4795 20.0811H25.2754Z" fill="white"/>
<rect x="23.3262" y="30.0396" width="1.57726" height="1.50761" rx="0.366304" fill="white"/>
<rect x="28.8438" y="30.0396" width="1.57726" height="1.50761" rx="0.366304" fill="white"/>
</svg>
