<svg width="40" height="40" viewBox="0 0 40 40" fill="none" xmlns="http://www.w3.org/2000/svg">
<rect x="0.666667" y="0.666667" width="38.6667" height="38.6667" rx="4.66667" fill="#F6F7FB"/>
<rect x="0.666667" y="0.666667" width="38.6667" height="38.6667" rx="4.66667" stroke="#E3E7F2" stroke-width="1.33333"/>
<path fill-rule="evenodd" clip-rule="evenodd" d="M24.2689 14.9858H25.4658V11.5051H14.5273V14.9858H15.7243V15.8793H10.7763V18.9132H12.6022V20.4416L12.034 20.4414L13.2498 27.5569H10.666V28.4947H29.3327V27.5569H26.7654L27.9592 20.4469L27.2862 20.4467V18.9132H29.2223V15.8793H24.2689V14.9858ZM25.8182 27.5569L26.8504 21.3847L13.1483 21.3792L14.2029 27.5569H16.7614V23.7344H23.2318V27.5569H25.8182ZM22.2941 27.5569V24.6722H20.4241V27.5569H22.2941ZM19.4864 27.5569V24.6722H17.6992V27.5569H19.4864ZM23.5518 14.9858H16.4414V15.8793H23.5518V14.9858ZM24.5281 14.0481H15.4651V12.4428H24.5281V14.0481ZM26.5691 20.4465V18.9132H23.7945V20.4455L26.5691 20.4465ZM23.0774 20.4453V18.9132H20.3027V20.4443L23.0774 20.4453ZM19.5856 20.444V18.9132H16.811V20.4431L19.5856 20.444ZM13.3193 18.9132V20.4419L16.0939 20.4428V18.9132H13.3193ZM11.714 17.9754H28.2846V16.817H11.714V17.9754Z" fill="#5F2167"/>
</svg>
