<svg width="40" height="40" viewBox="0 0 40 40" fill="none" xmlns="http://www.w3.org/2000/svg">
<rect x="0.666667" y="0.666667" width="38.6667" height="38.6667" rx="4.66667" fill="#F6F7FB"/>
<rect x="0.666667" y="0.666667" width="38.6667" height="38.6667" rx="4.66667" stroke="#E3E7F2" stroke-width="1.33333"/>
<path fill-rule="evenodd" clip-rule="evenodd" d="M20.3748 21.9883L20.3804 21.0362L21.8179 20.3989L21.8234 18.8666C21.8234 18.6524 21.6532 18.4822 21.4445 18.4822C21.2303 18.4822 21.06 18.6524 21.06 18.8611L21.0545 19.8991L20.3853 20.1951L20.3954 18.482C20.3954 18.2678 20.2251 18.0976 20.0164 18.0976C19.8022 18.0976 19.6319 18.2678 19.6319 18.4765L19.6182 20.8156L18.8411 20.5031L18.8466 19.608C18.8466 19.3937 18.6818 19.2234 18.4677 19.2234C18.2535 19.2234 18.0832 19.3937 18.0832 19.6025L18.0777 21.0194L19.5991 21.629L19.604 21.6309L19.6134 21.6342L19.6113 21.9814C19.1915 22.1348 18.8893 22.5361 18.8851 23.0077C18.8851 23.6119 19.3739 24.1062 19.978 24.1117C20.5822 24.1172 21.0764 23.6283 21.0819 23.0187C21.0819 22.5504 20.7882 22.1481 20.3748 21.9883ZM19.5606 23.0132C19.5661 22.7771 19.7528 22.5903 19.989 22.5903C20.2197 22.5958 20.4119 22.7826 20.4119 23.0187C20.4064 23.2549 20.2197 23.4416 19.9835 23.4416C19.7473 23.4361 19.5551 23.2494 19.5606 23.0132Z" fill="#5F2167"/>
<path d="M18.3509 12.695L19.6691 12.7018L19.6622 14.0199L18.344 14.013L18.3509 12.695Z" fill="#5F2167"/>
<path d="M21.7286 12.7126L20.4105 12.7057L20.4036 14.0238L21.7218 14.0306L21.7286 12.7126Z" fill="#5F2167"/>
<path fill-rule="evenodd" clip-rule="evenodd" d="M16.1719 10.6665L16.1435 16.4281L15.0186 16.4226L14.9746 24.6664C14.9746 25.3474 15.5238 25.9021 16.2049 25.9076L19.4008 25.9239L19.3831 29.3271L20.5475 29.3332L20.5653 25.9298L23.7402 25.946C24.4212 25.9515 24.9759 25.3968 24.9814 24.7157L25.0253 16.4719L23.893 16.4663L23.9214 10.7049L16.1719 10.6665ZM23.8884 17.3944L15.9357 17.3562L15.8973 24.6719C15.8973 24.8421 16.0346 24.9793 16.2049 24.9793L23.7402 25.0178C23.9104 25.0178 24.0477 24.8805 24.0477 24.7102L24.0861 17.3947L23.8884 17.3938V17.3944ZM17.0726 16.4327L22.9658 16.4618L22.9932 11.6331L17.1001 11.6002L17.0726 16.4327Z" fill="#5F2167"/>
</svg>
