<svg width="96" height="96" viewBox="0 0 96 96" fill="none" xmlns="http://www.w3.org/2000/svg">
<rect width="96" height="96" rx="48" fill="#FFF1DB"/>
<path d="M47.6309 39.993C48.8892 39.993 49.9092 38.973 49.9092 37.7146C49.9092 36.4561 48.8892 35.4361 47.6309 35.4361C46.3726 35.4361 45.3526 36.4561 45.3526 37.7146C45.3526 38.973 46.3726 39.993 47.6309 39.993Z" fill="#D1820B"/>
<path d="M49.4538 45.1793H45.765V63.5798H49.4538V45.1793Z" fill="#D1820B"/>
<path fill-rule="evenodd" clip-rule="evenodd" d="M13 47.9997C13 67.3116 28.7098 83 48 83C67.3118 83 83 67.3116 83 47.9997C83 28.6878 67.3118 13 48 13C28.6881 13 13 28.6878 13 47.9997ZM16.6888 48.0215C16.6888 30.7494 30.7278 16.7104 48 16.7104C65.2722 16.7104 79.3112 30.7494 79.3112 48.0215C79.3112 65.2935 65.2722 79.3325 48 79.3325C30.7278 79.3325 16.6888 65.2935 16.6888 48.0215Z" fill="#D1820B"/>
</svg>
