<svg width="24" height="24" viewBox="0 0 24 24" fill="none" xmlns="http://www.w3.org/2000/svg">
<path fill-rule="evenodd" clip-rule="evenodd" d="M5.03764 4.96316H1.72051V6.03424H4.99711C5.20458 7.41958 6.40248 8.48534 7.84474 8.48534C9.28126 8.48534 10.4787 7.41958 10.6908 6.03424H22.4937V4.96316H10.6518C10.3591 3.68381 9.21162 2.72656 7.84474 2.72656C6.47786 2.72656 5.33041 3.68381 5.03764 4.96316ZM7.84474 3.79764C6.84923 3.79764 6.03646 4.61041 6.03646 5.60592C6.03646 6.60142 6.84923 7.41427 7.84474 7.41427C8.84025 7.41427 9.65301 6.60142 9.65301 5.60592C9.64671 4.61041 8.84025 3.79764 7.84474 3.79764Z" fill="#5F2167"/>
<path fill-rule="evenodd" clip-rule="evenodd" d="M16.9933 14.8616C15.5796 14.8616 14.4006 13.8377 14.1591 12.4925H1.5V11.4213H14.1687C14.4304 10.1011 15.5974 9.10287 16.9933 9.10287C18.3891 9.10287 19.5561 10.1011 19.8178 11.4213H22.3551V12.4925H19.8274C19.5859 13.8377 18.4069 14.8616 16.9933 14.8616ZM16.9933 10.1803C15.9977 10.1803 15.185 10.9931 15.185 11.9886C15.185 12.9841 15.9977 13.7968 16.9933 13.7968C17.9888 13.7968 18.8015 12.9841 18.8015 11.9886C18.8015 10.9931 17.9888 10.1803 16.9933 10.1803Z" fill="#5F2167"/>
<path fill-rule="evenodd" clip-rule="evenodd" d="M7.51394 18.9507C7.77313 20.274 8.94162 21.2756 10.3398 21.2756C11.7379 21.2756 12.9064 20.274 13.1656 18.9507H22.5V17.8794H13.1727C12.9286 16.5374 11.7512 15.5167 10.3398 15.5167C8.92831 15.5167 7.7509 16.5374 7.50678 17.8794H1.5756V18.9507H7.51394ZM8.53148 18.4024C8.53148 17.4069 9.34425 16.5941 10.3398 16.5941C11.3353 16.5941 12.148 17.4069 12.148 18.4024C12.148 19.398 11.3353 20.2108 10.3398 20.2108C9.34425 20.2108 8.53148 19.398 8.53148 18.4024Z" fill="#5F2167"/>
</svg>
